<svg width="50" height="50" viewBox="0 0 50 50" fill="none" xmlns="http://www.w3.org/2000/svg">
<path d="M40.1031 45.5234C39.9797 45.2172 36.9359 38.0625 25 38.0625C13.0656 38.0625 10.0203 45.2172 9.89688 45.5219L8.85313 45.1016C8.98438 44.7734 12.1703 37.1672 24.4391 36.9406V25.5625H20.3125C13.8641 25.5625 8.8125 20.5109 8.8125 14.0625V9.375C8.8125 9.06406 9.06406 8.8125 9.375 8.8125H14.0625C18.6953 8.8125 22.6062 11.4187 24.4422 15.2781C24.6187 8.99531 29.6047 4.125 35.9375 4.125H40.625C40.9359 4.125 41.1875 4.37656 41.1875 4.6875V9.375C41.1875 15.8234 36.1359 20.875 29.6875 20.875H25.5625V36.9438C37.8313 37.1703 41.0156 44.7766 41.1469 45.1047L40.1031 45.5234ZM9.9375 9.9375V14.0625C9.9375 19.8797 14.4953 24.4375 20.3125 24.4375H23.6422L15.2281 16.0219L16.0234 15.2266L24.4391 23.6406V20.3125C24.4391 14.4953 19.8813 9.9375 14.0641 9.9375H9.9375ZM26.3578 19.75H29.6875C35.5062 19.75 40.0625 15.1922 40.0625 9.375V5.25H35.9375C30.1187 5.25 25.5625 9.80781 25.5625 15.625V18.9547L33.9766 10.5406L34.7734 11.3359L26.3578 19.75Z" fill="white"/>
</svg>
