<svg width="451" height="90" viewBox="0 0 451 90" fill="none" xmlns="http://www.w3.org/2000/svg">
<path d="M19.52 58C17.8987 58 16.4907 58.5547 15.296 59.664C14.1867 60.688 13.632 62.0533 13.632 63.76V87.44C13.632 89.1467 12.7787 90 11.072 90H3.52C1.81333 90 0.96 89.1467 0.96 87.44V63.888C0.96 62.1813 1.77067 61.1147 3.392 60.688L11.2 58.64C12.8213 58.2133 13.8453 57.1893 14.272 55.568L16.448 47.632C16.8747 46.0107 17.9413 45.2 19.648 45.2H57.92C59.5413 45.2 60.9067 44.688 62.016 43.664C63.2107 42.5547 63.808 41.1467 63.808 39.44V19.088C63.808 17.4667 63.2107 16.1013 62.016 14.992C60.9067 13.7973 59.5413 13.2 57.92 13.2H19.52C17.8987 13.2 16.4907 13.7973 15.296 14.992C14.1867 16.1013 13.632 17.4667 13.632 19.088V42.64C13.632 44.3467 12.7787 45.2 11.072 45.2H3.52C1.81333 45.2 0.96 44.3467 0.96 42.64V28.56C0.96 27.792 1.13067 27.024 1.472 26.256C1.81333 25.488 2.24 24.8053 2.752 24.208L11.84 14.992C12.352 14.3947 12.8213 13.7547 13.248 13.072C13.76 12.304 14.1013 11.536 14.272 10.768L16.448 2.83199C16.8747 1.21066 17.9413 0.399994 19.648 0.399994H57.792C59.4987 0.399994 60.5653 1.21066 60.992 2.83199L63.168 10.768C63.3387 11.536 63.6373 12.304 64.064 13.072C64.576 13.7547 65.088 14.3947 65.6 14.992L74.688 24.208C75.2 24.8053 75.6267 25.488 75.968 26.256C76.3093 27.024 76.48 27.792 76.48 28.56V39.312C76.48 41.0187 75.6693 42.0853 74.048 42.512L65.984 44.56C64.3627 44.9867 63.3387 46.0107 62.912 47.632L60.736 55.568C60.3093 57.1893 59.2427 58 57.536 58H19.52ZM76.48 87.44C76.48 89.1467 75.6267 90 73.92 90H66.368C64.6613 90 63.808 89.1467 63.808 87.44V60.56C63.808 58.8533 64.6613 58 66.368 58H73.92C75.6267 58 76.48 58.8533 76.48 60.56V87.44ZM107.132 74.64C107.132 76.3467 107.985 77.2 109.692 77.2H151.42C153.041 77.2 154.407 76.688 155.516 75.664C156.711 74.5547 157.308 73.1467 157.308 71.44V57.36C157.308 55.824 156.711 54.5013 155.516 53.392C154.321 52.1973 152.956 51.6 151.42 51.6H113.148C111.441 51.6 110.375 50.7893 109.948 49.168L107.772 41.232C107.345 39.6107 106.321 38.5867 104.7 38.16L96.892 35.984C95.2707 35.5573 94.46 34.4907 94.46 32.784V2.96C94.46 1.25333 95.3133 0.399994 97.02 0.399994H151.292C152.999 0.399994 154.065 1.21066 154.492 2.83199L156.668 10.768C157.095 12.3893 158.119 13.4133 159.74 13.84L167.548 16.016C169.169 16.4427 169.98 17.5093 169.98 19.216V36.24C169.98 37.9467 169.127 38.8 167.42 38.8H159.868C158.161 38.8 157.308 39.6533 157.308 41.36V49.04C157.308 50.7467 158.161 51.6 159.868 51.6H167.42C169.127 51.6 169.98 52.4533 169.98 54.16V71.312C169.98 73.0187 169.169 74.0853 167.548 74.512L159.74 76.56C158.119 76.9867 157.095 78.0107 156.668 79.632L154.492 87.568C154.065 89.1893 152.999 90 151.292 90H97.02C95.3133 90 94.46 89.1467 94.46 87.44V54.16C94.46 52.4533 95.3133 51.6 97.02 51.6H104.572C106.279 51.6 107.132 52.4533 107.132 54.16V74.64ZM151.42 38.8C153.041 38.8 154.407 38.288 155.516 37.264C156.711 36.1547 157.308 34.7467 157.308 33.04V19.088C157.308 17.4667 156.711 16.1013 155.516 14.992C154.407 13.7973 153.041 13.2 151.42 13.2H109.692C107.985 13.2 107.132 14.0533 107.132 15.76V32.912C107.132 34.5333 107.687 35.9413 108.796 37.136C109.991 38.2453 111.399 38.8 113.02 38.8H151.42ZM206.648 90C204.941 90 203.875 89.1893 203.448 87.568L201.272 79.632C200.845 78.0107 199.821 76.9867 198.2 76.56L190.392 74.512C188.771 74.0853 187.96 73.0187 187.96 71.312V19.216C187.96 17.5093 188.771 16.4427 190.392 16.016L198.2 13.84C199.821 13.4133 200.845 12.3893 201.272 10.768L203.448 2.83199C203.875 1.21066 204.941 0.399994 206.648 0.399994H244.536C246.243 0.399994 247.309 1.21066 247.736 2.83199L249.912 10.768C250.339 12.3893 251.363 13.4133 252.984 13.84L261.048 16.016C262.669 16.4427 263.48 17.5093 263.48 19.216V71.312C263.48 73.0187 262.669 74.0853 261.048 74.512L252.984 76.56C251.363 76.9867 250.339 78.0107 249.912 79.632L247.736 87.568C247.309 89.1893 246.243 90 244.536 90H206.648ZM206.52 13.2C204.899 13.2 203.491 13.7973 202.296 14.992C201.187 16.1013 200.632 17.4667 200.632 19.088V71.44C200.632 73.1467 201.187 74.5547 202.296 75.664C203.491 76.688 204.899 77.2 206.52 77.2H244.92C246.541 77.2 247.907 76.688 249.016 75.664C250.211 74.5547 250.808 73.1467 250.808 71.44V19.088C250.808 17.4667 250.211 16.1013 249.016 14.992C247.907 13.7973 246.541 13.2 244.92 13.2H206.52ZM291.572 0.399994C293.279 0.399994 294.132 1.25333 294.132 2.96V71.44C294.132 73.1467 294.687 74.5547 295.796 75.664C296.991 76.688 298.399 77.2 300.02 77.2H338.42C340.041 77.2 341.407 76.688 342.516 75.664C343.711 74.5547 344.308 73.1467 344.308 71.44V2.96C344.308 1.25333 345.161 0.399994 346.868 0.399994H354.42C356.127 0.399994 356.98 1.25333 356.98 2.96V71.312C356.98 73.0187 356.169 74.0853 354.548 74.512L346.484 76.56C344.863 76.9867 343.839 78.0107 343.412 79.632L341.236 87.568C340.809 89.1893 339.743 90 338.036 90H300.148C298.441 90 297.375 89.1893 296.948 87.568L294.772 79.632C294.345 78.0107 293.321 76.9867 291.7 76.56L283.892 74.512C282.271 74.0853 281.46 73.0187 281.46 71.312V2.96C281.46 1.25333 282.313 0.399994 284.02 0.399994H291.572ZM403.76 13.072H377.52C375.813 13.072 374.96 12.2187 374.96 10.512V2.96C374.96 1.25333 375.813 0.399994 377.52 0.399994H403.76C405.467 0.399994 406.32 1.25333 406.32 2.96V10.512C406.32 12.2187 405.467 13.072 403.76 13.072ZM408.88 90C407.173 90 406.32 89.1467 406.32 87.44V19.088C406.32 17.3813 407.131 16.3147 408.752 15.888L416.688 13.712C418.309 13.2853 419.333 12.2613 419.76 10.64L421.936 2.83199C422.363 1.21066 423.429 0.399994 425.136 0.399994H447.92C449.627 0.399994 450.48 1.25333 450.48 2.96V10.512C450.48 12.2187 449.627 13.072 447.92 13.072H425.008C423.387 13.072 421.979 13.6693 420.784 14.864C419.675 15.9733 419.12 17.3387 419.12 18.96V87.44C419.12 89.1467 418.267 90 416.56 90H408.88Z" fill="#06B6D4"/>
</svg>
