<svg width="1126" height="256" viewBox="0 0 1126 256" fill="none" xmlns="http://www.w3.org/2000/svg">
<mask id="mask0_1662_237" style="mask-type:alpha" maskUnits="userSpaceOnUse" x="0" y="0" width="1126" height="256">
<path d="M0 24C0 10.7452 10.7452 0 24 0H1102C1115.25 0 1126 10.7452 1126 24V232C1126 245.255 1115.25 256 1102 256H24C10.7452 256 0 245.255 0 232V24Z" fill="#27272A"/>
</mask>
<g mask="url(#mask0_1662_237)">
<path d="M856 201C856 211.343 851.891 221.263 844.577 228.577C837.263 235.891 827.343 240 817 240C806.657 240 796.737 235.891 789.423 228.577C782.109 221.263 778 211.343 778 201L817 201H856Z" fill="#155E75"/>
<path d="M345 55C345 44.6566 349.109 34.7368 356.423 27.4228C363.737 20.1089 373.657 16 384 16C394.343 16 404.263 20.1089 411.577 27.4228C418.891 34.7368 423 44.6566 423 55L384 55L345 55Z" fill="#083344"/>
<path d="M1015 142.5C1015 110.541 1027.7 79.8918 1050.29 57.2937C1072.89 34.6955 1103.54 22 1135.5 22C1167.46 22 1198.11 34.6955 1220.71 57.2936C1243.3 79.8918 1256 110.541 1256 142.5L1210.22 142.5C1210.22 122.683 1202.35 103.678 1188.33 89.6659C1174.32 75.6534 1155.32 67.7813 1135.5 67.7813C1115.68 67.7813 1096.68 75.6534 1082.67 89.6659C1068.65 103.678 1060.78 122.683 1060.78 142.5L1015 142.5Z" fill="#22D3EE"/>
<path d="M616 65L736 185H616V65Z" fill="#0891B2"/>
<rect x="347" y="211" width="45" height="45" fill="#67E8F9"/>
</g>
</svg>
