<svg width="592" height="90" viewBox="0 0 592 90" fill="none" xmlns="http://www.w3.org/2000/svg">
<path d="M544.68 13.0719H518.44C516.733 13.0719 515.88 12.2186 515.88 10.5119V2.95991C515.88 1.25324 516.733 0.399902 518.44 0.399902H544.68C546.387 0.399902 547.24 1.25324 547.24 2.95991V10.5119C547.24 12.2186 546.387 13.0719 544.68 13.0719ZM549.8 89.9999C548.093 89.9999 547.24 89.1466 547.24 87.4399V19.0879C547.24 17.3812 548.051 16.3146 549.672 15.8879L557.608 13.7119C559.229 13.2852 560.253 12.2612 560.68 10.6399L562.856 2.8319C563.283 1.21057 564.349 0.399902 566.056 0.399902H588.84C590.547 0.399902 591.4 1.25324 591.4 2.95991V10.5119C591.4 12.2186 590.547 13.0719 588.84 13.0719H565.928C564.307 13.0719 562.899 13.6692 561.704 14.8639C560.595 15.9732 560.04 17.3386 560.04 18.9599V87.4399C560.04 89.1466 559.187 89.9999 557.48 89.9999H549.8Z" fill="#06B6D4"/>
<path d="M503.02 61.0719C504.727 61.0719 505.58 61.9252 505.58 63.6319V71.3119C505.58 73.0186 504.769 74.0852 503.148 74.5119L495.084 76.5599C493.463 76.9866 492.439 78.0106 492.012 79.6319L489.836 87.5679C489.409 89.1892 488.343 89.9999 486.636 89.9999H448.748C447.041 89.9999 445.975 89.1892 445.548 87.5679L443.372 79.6319C442.945 78.0106 441.921 76.9866 440.3 76.5599L432.492 74.5119C430.871 74.0852 430.06 73.0186 430.06 71.3119V19.2159C430.06 17.5092 430.871 16.4426 432.492 16.0159L440.3 13.8399C441.921 13.4132 442.945 12.3892 443.372 10.7679L445.548 2.8319C445.975 1.21057 447.041 0.399902 448.748 0.399902H486.636C488.343 0.399902 489.409 1.21057 489.836 2.8319L492.012 10.7679C492.439 12.3892 493.463 13.4132 495.084 13.8399L503.148 16.0159C504.769 16.4426 505.58 17.5092 505.58 19.2159V26.8959C505.58 28.6026 504.727 29.4559 503.02 29.4559H495.468C493.761 29.4559 492.908 28.6026 492.908 26.8959V19.0879C492.908 17.4666 492.311 16.1012 491.116 14.9919C490.007 13.7972 488.641 13.1999 487.02 13.1999H448.62C446.999 13.1999 445.591 13.7972 444.396 14.9919C443.287 16.1012 442.732 17.4666 442.732 19.0879V71.4399C442.732 73.1466 443.287 74.5546 444.396 75.6639C445.591 76.6879 446.999 77.1999 448.62 77.1999H487.02C488.641 77.1999 490.007 76.6879 491.116 75.6639C492.311 74.5546 492.908 73.1466 492.908 71.4399V63.6319C492.908 61.9252 493.761 61.0719 495.468 61.0719H503.02Z" fill="#06B6D4"/>
<path d="M362.8 57.9999C361.179 57.9999 359.771 58.5546 358.576 59.6639C357.467 60.6879 356.912 62.0532 356.912 63.7599V87.4399C356.912 89.1466 356.059 89.9999 354.352 89.9999H346.8C345.094 89.9999 344.24 89.1466 344.24 87.4399V63.8879C344.24 62.1812 345.051 61.1146 346.672 60.6879L354.48 58.6399C356.102 58.2132 357.126 57.1892 357.552 55.5679L359.728 47.6319C360.155 46.0106 361.222 45.1999 362.928 45.1999H401.2C402.822 45.1999 404.187 44.6879 405.296 43.6639C406.491 42.5546 407.088 41.1466 407.088 39.4399V19.0879C407.088 17.4666 406.491 16.1012 405.296 14.9919C404.187 13.7972 402.822 13.1999 401.2 13.1999H362.8C361.179 13.1999 359.771 13.7972 358.576 14.9919C357.467 16.1012 356.912 17.4666 356.912 19.0879V42.6399C356.912 44.3466 356.059 45.1999 354.352 45.1999H346.8C345.094 45.1999 344.24 44.3466 344.24 42.6399V28.5599C344.24 27.7919 344.411 27.0239 344.752 26.2559C345.094 25.4879 345.52 24.8052 346.032 24.2079L355.12 14.9919C355.632 14.3946 356.102 13.7546 356.528 13.0719C357.04 12.3039 357.382 11.5359 357.552 10.7679L359.728 2.8319C360.155 1.21057 361.222 0.399902 362.928 0.399902H401.072C402.779 0.399902 403.846 1.21057 404.272 2.8319L406.448 10.7679C406.619 11.5359 406.918 12.3039 407.344 13.0719C407.856 13.7546 408.368 14.3946 408.88 14.9919L417.968 24.2079C418.48 24.8052 418.907 25.4879 419.248 26.2559C419.59 27.0239 419.76 27.7919 419.76 28.5599V39.3119C419.76 41.0186 418.95 42.0852 417.328 42.5119L409.264 44.5599C407.643 44.9866 406.619 46.0106 406.192 47.6319L404.016 55.5679C403.59 57.1892 402.523 57.9999 400.816 57.9999H362.8ZM419.76 87.4399C419.76 89.1466 418.907 89.9999 417.2 89.9999H409.648C407.942 89.9999 407.088 89.1466 407.088 87.4399V60.5599C407.088 58.8532 407.942 57.9999 409.648 57.9999H417.2C418.907 57.9999 419.76 58.8532 419.76 60.5599V87.4399Z" fill="#06B6D4"/>
<path d="M287.22 13.0719H260.98C259.273 13.0719 258.42 12.2186 258.42 10.5119V2.95991C258.42 1.25324 259.273 0.399902 260.98 0.399902H287.22C288.927 0.399902 289.78 1.25324 289.78 2.95991V10.5119C289.78 12.2186 288.927 13.0719 287.22 13.0719ZM292.34 89.9999C290.633 89.9999 289.78 89.1466 289.78 87.4399V19.0879C289.78 17.3812 290.591 16.3146 292.212 15.8879L300.148 13.7119C301.769 13.2852 302.793 12.2612 303.22 10.6399L305.396 2.8319C305.823 1.21057 306.889 0.399902 308.596 0.399902H331.38C333.087 0.399902 333.94 1.25324 333.94 2.95991V10.5119C333.94 12.2186 333.087 13.0719 331.38 13.0719H308.468C306.847 13.0719 305.439 13.6692 304.244 14.8639C303.135 15.9732 302.58 17.3386 302.58 18.9599V87.4399C302.58 89.1466 301.727 89.9999 300.02 89.9999H292.34Z" fill="#06B6D4"/>
<path d="M248.12 87.4399C248.12 89.1466 247.267 89.9999 245.56 89.9999H238.008C236.301 89.9999 235.448 89.1466 235.448 87.4399V57.4879C235.448 55.8666 234.851 54.5012 233.656 53.3919C232.547 52.1972 231.181 51.5999 229.56 51.5999H222.776C221.069 51.5999 220.003 50.7892 219.576 49.1679L217.4 41.2319C216.973 39.6106 215.949 38.5866 214.328 38.1599L206.52 35.9839C204.899 35.5572 204.088 34.4906 204.088 32.7839V19.0879C204.088 17.4666 203.491 16.1012 202.296 14.9919C201.187 13.7972 199.821 13.1999 198.2 13.1999H187.832C186.125 13.1999 185.272 14.0532 185.272 15.7599V87.4399C185.272 89.1466 184.419 89.9999 182.712 89.9999H175.16C173.453 89.9999 172.6 89.1466 172.6 87.4399V2.95991C172.6 1.25324 173.453 0.399902 175.16 0.399902H198.072C199.779 0.399902 200.845 1.21057 201.272 2.8319L203.448 10.7679C203.875 12.3892 204.899 13.4132 206.52 13.8399L214.328 16.0159C215.949 16.4426 216.76 17.5092 216.76 19.2159V32.9119C216.76 34.5332 217.315 35.9412 218.424 37.1359C219.619 38.2452 221.027 38.7999 222.648 38.7999H229.432C231.139 38.7999 232.205 39.6106 232.632 41.2319L234.808 49.1679C235.235 50.7892 236.259 51.8132 237.88 52.2399L245.688 54.4159C247.309 54.8426 248.12 55.9092 248.12 57.6159V87.4399ZM235.448 2.95991C235.448 1.25324 236.301 0.399902 238.008 0.399902H245.56C247.267 0.399902 248.12 1.25324 248.12 2.95991V36.2399C248.12 37.9466 247.267 38.7999 245.56 38.7999H238.008C236.301 38.7999 235.448 37.9466 235.448 36.2399V2.95991Z" fill="#06B6D4"/>
<path d="M105.468 89.9999C103.761 89.9999 102.694 89.1892 102.268 87.5679L100.092 79.6319C99.6651 78.0106 98.6411 76.9866 97.0198 76.5599L89.2118 74.5119C87.5905 74.0852 86.7798 73.0186 86.7798 71.3119V19.2159C86.7798 17.5092 87.5905 16.4426 89.2118 16.0159L97.0198 13.8399C98.6411 13.4132 99.6651 12.3892 100.092 10.7679L102.268 2.8319C102.694 1.21057 103.761 0.399902 105.468 0.399902H143.356C145.062 0.399902 146.129 1.21057 146.556 2.8319L148.732 10.7679C149.158 12.3892 150.182 13.4132 151.804 13.8399L159.868 16.0159C161.489 16.4426 162.3 17.5092 162.3 19.2159V71.3119C162.3 73.0186 161.489 74.0852 159.868 74.5119L151.804 76.5599C150.182 76.9866 149.158 78.0106 148.732 79.6319L146.556 87.5679C146.129 89.1892 145.062 89.9999 143.356 89.9999H105.468ZM105.34 13.1999C103.718 13.1999 102.31 13.7972 101.116 14.9919C100.006 16.1012 99.4518 17.4666 99.4518 19.0879V71.4399C99.4518 73.1466 100.006 74.5546 101.116 75.6639C102.31 76.6879 103.718 77.1999 105.34 77.1999H143.74C145.361 77.1999 146.726 76.6879 147.836 75.6639C149.03 74.5546 149.628 73.1466 149.628 71.4399V19.0879C149.628 17.4666 149.03 16.1012 147.836 14.9919C146.726 13.7972 145.361 13.1999 143.74 13.1999H105.34Z" fill="#06B6D4"/>
<path d="M73.92 61.0719C75.6266 61.0719 76.48 61.9252 76.48 63.6319V71.3119C76.48 73.0186 75.6693 74.0852 74.048 74.5119L65.984 76.5599C64.3626 76.9866 63.3386 78.0106 62.912 79.6319L60.736 87.5679C60.3093 89.1892 59.2426 89.9999 57.536 89.9999H19.648C17.9413 89.9999 16.8746 89.1892 16.448 87.5679L14.272 79.6319C13.8453 78.0106 12.8213 76.9866 11.2 76.5599L3.39196 74.5119C1.77063 74.0852 0.959961 73.0186 0.959961 71.3119V19.2159C0.959961 17.5092 1.77063 16.4426 3.39196 16.0159L11.2 13.8399C12.8213 13.4132 13.8453 12.3892 14.272 10.7679L16.448 2.8319C16.8746 1.21057 17.9413 0.399902 19.648 0.399902H57.536C59.2426 0.399902 60.3093 1.21057 60.736 2.8319L62.912 10.7679C63.3386 12.3892 64.3626 13.4132 65.984 13.8399L74.048 16.0159C75.6693 16.4426 76.48 17.5092 76.48 19.2159V26.8959C76.48 28.6026 75.6266 29.4559 73.92 29.4559H66.368C64.6613 29.4559 63.808 28.6026 63.808 26.8959V19.0879C63.808 17.4666 63.2106 16.1012 62.016 14.9919C60.9066 13.7972 59.5413 13.1999 57.92 13.1999H19.52C17.8986 13.1999 16.4906 13.7972 15.296 14.9919C14.1866 16.1012 13.632 17.4666 13.632 19.0879V71.4399C13.632 73.1466 14.1866 74.5546 15.296 75.6639C16.4906 76.6879 17.8986 77.1999 19.52 77.1999H57.92C59.5413 77.1999 60.9066 76.6879 62.016 75.6639C63.2106 74.5546 63.808 73.1466 63.808 71.4399V63.6319C63.808 61.9252 64.6613 61.0719 66.368 61.0719H73.92Z" fill="#06B6D4"/>
</svg>
