<svg width="36" height="36" viewBox="0 0 36 36" fill="none" xmlns="http://www.w3.org/2000/svg">
<path d="M9.66666 13.8335L16.4708 18.5964C17.0217 18.982 17.2972 19.1749 17.5969 19.2496C17.8616 19.3156 18.1384 19.3156 18.4031 19.2496C18.7028 19.1749 18.9782 18.982 19.5292 18.5964L26.3333 13.8335M13.6667 24.6668H22.3333C23.7335 24.6668 24.4335 24.6668 24.9683 24.3943C25.4387 24.1547 25.8212 23.7722 26.0608 23.3018C26.3333 22.767 26.3333 22.067 26.3333 20.6668V15.3335C26.3333 13.9334 26.3333 13.2333 26.0608 12.6985C25.8212 12.2281 25.4387 11.8457 24.9683 11.606C24.4335 11.3335 23.7335 11.3335 22.3333 11.3335H13.6667C12.2665 11.3335 11.5665 11.3335 11.0317 11.606C10.5613 11.8457 10.1788 12.2281 9.93914 12.6985C9.66666 13.2333 9.66666 13.9334 9.66666 15.3335V20.6668C9.66666 22.067 9.66666 22.767 9.93914 23.3018C10.1788 23.7722 10.5613 24.1547 11.0317 24.3943C11.5665 24.6668 12.2665 24.6668 13.6667 24.6668Z" stroke="white" stroke-width="1.66667" stroke-linecap="round" stroke-linejoin="round"/>
</svg>
