<svg width="64" height="64" viewBox="0 0 64 64" fill="none" xmlns="http://www.w3.org/2000/svg">
<path d="M56.1986 55.8498L46.7826 39.6618C46.7726 39.6458 46.7646 39.6298 46.7526 39.6158L38.7206 25.8058V2.71979H42.0006C42.3986 2.71979 42.7206 2.39779 42.7206 1.99979C42.7206 1.60179 42.3986 1.27979 42.0006 1.27979H22.0006C21.6026 1.27979 21.2806 1.60179 21.2806 1.99979C21.2806 2.39779 21.6026 2.71979 22.0006 2.71979H25.2806V25.8058L17.2506 39.6098C17.2386 39.6298 17.2266 39.6498 17.2146 39.6678L7.78056 55.8878C7.04256 57.3618 7.12056 59.0798 7.98656 60.4798C8.85256 61.8818 10.3546 62.7198 12.0026 62.7198H51.9986C53.6446 62.7198 55.1466 61.8818 56.0126 60.4818C56.8786 59.0798 56.9566 57.3638 56.1986 55.8498ZM26.6226 26.3618C26.6866 26.2518 26.7206 26.1258 26.7206 25.9998V20.7198H32.0006V19.2798H26.7206V14.7198H32.0006V13.2798H26.7206V8.71979H32.0006V7.27979H26.7206V2.71979H37.2806V25.9998C37.2806 26.1258 37.3166 26.2518 37.3786 26.3618L44.8946 39.2778H19.1086L26.6226 26.3618ZM54.7886 59.7238C54.1866 60.6978 53.1446 61.2778 51.9986 61.2778H12.0026C10.8566 61.2778 9.81456 60.6978 9.21056 59.7238C8.60856 58.7498 8.55456 57.5558 9.04456 56.5718L18.2666 40.7198H45.7266L54.9266 56.5318C55.4446 57.5558 55.3886 58.7498 54.7886 59.7238Z" fill="#0891B2"/>
</svg>
