<svg width="64" height="64" viewBox="0 0 64 64" fill="none" xmlns="http://www.w3.org/2000/svg">
<path d="M31.9993 62.72C24.9853 62.72 19.2793 57.012 19.2793 50C19.2793 44.798 22.4733 40.122 27.2793 38.2V2.00003C27.2793 1.60203 27.6013 1.28003 27.9993 1.28003H35.9993C36.3973 1.28003 36.7193 1.60203 36.7193 2.00003V38.2C41.5233 40.122 44.7193 44.8 44.7193 50C44.7193 57.014 39.0133 62.72 31.9993 62.72ZM28.7193 24.72V38.698C28.7193 39.002 28.5273 39.274 28.2393 39.378C23.7413 40.97 20.7193 45.238 20.7193 50.002C20.7193 56.222 25.7793 61.282 31.9993 61.282C38.2193 61.282 43.2793 56.224 43.2793 50.002C43.2793 45.238 40.2573 40.97 35.7593 39.378C35.4713 39.274 35.2793 39.002 35.2793 38.698V24.72H28.7193ZM28.7193 23.28H35.2793V2.72003H28.7193V23.28V23.28ZM51.9993 36.72H43.9993V35.28H51.9993V36.72ZM59.9993 30.72H43.9993V29.28H59.9993V30.72ZM51.9993 24.72H43.9993V23.28H51.9993V24.72ZM59.9993 18.72H43.9993V17.28H59.9993V18.72ZM51.9993 12.72H43.9993V11.28H51.9993V12.72ZM59.9993 6.72003H43.9993V5.28003H59.9993V6.72003Z" fill="#0891B2"/>
</svg>
