<svg width="64" height="64" viewBox="0 0 64 64" fill="none" xmlns="http://www.w3.org/2000/svg">
<path d="M31.9993 1.17993L9.2793 13.5719V39.9999C9.2793 52.3159 19.6833 62.7199 31.9993 62.7199C44.3153 62.7199 54.7193 52.3159 54.7193 39.9999V13.5719L31.9993 1.17993ZM51.6793 47.9139L31.9993 37.1839V38.8259L51.0713 49.2219C49.6733 52.0359 47.6833 54.5239 45.2533 56.4939L31.9993 49.2699V50.9119L43.9893 57.4479C40.5473 59.8479 36.4073 61.2799 31.9993 61.2799C20.4633 61.2799 10.7193 51.5359 10.7193 39.9999V14.4279L31.9993 2.81993L53.2793 14.4279V24.7879L31.9993 13.1839V14.8239L53.2793 26.4259V36.6999L31.9993 25.0979V26.7379L53.2793 38.3419V39.9999C53.2793 42.7799 52.7013 45.4519 51.6793 47.9139Z" fill="#0891B2"/>
</svg>
