<svg width="64" height="64" viewBox="0 0 64 64" fill="none" xmlns="http://www.w3.org/2000/svg">
<path d="M31.9993 61.72C31.8753 61.72 31.7493 61.686 31.6393 61.622L14.9453 51.972L15.6653 50.726L31.9993 60.168L51.3773 48.964C51.3133 48.652 51.2773 48.33 51.2773 48C51.2773 45.396 53.3953 43.28 55.9973 43.28C58.5993 43.28 60.7173 45.398 60.7173 48C60.7173 50.602 58.5993 52.72 55.9973 52.72C54.2413 52.72 52.7053 51.756 51.8933 50.328L32.3573 61.622C32.2493 61.688 32.1233 61.72 31.9993 61.72ZM55.9993 44.72C54.1913 44.72 52.7193 46.19 52.7193 48C52.7193 49.81 54.1893 51.28 55.9993 51.28C57.8093 51.28 59.2793 49.81 59.2793 48C59.2793 46.19 57.8073 44.72 55.9993 44.72ZM7.9993 52.72C5.3973 52.72 3.2793 50.602 3.2793 48C3.2793 45.642 5.0173 43.682 7.2793 43.334V19.376C7.2793 19.12 7.4153 18.88 7.6393 18.752L24.4873 9.01003L25.2073 10.256L8.7193 19.79V43.334C10.9813 43.682 12.7193 45.642 12.7193 48C12.7193 50.604 10.6013 52.72 7.9993 52.72ZM7.9993 44.72C6.1913 44.72 4.7193 46.19 4.7193 48C4.7193 49.81 6.1913 51.28 7.9993 51.28C9.8073 51.28 11.2793 49.808 11.2793 48C11.2793 46.192 9.8073 44.72 7.9993 44.72ZM31.9993 52.72C31.8753 52.72 31.7493 52.686 31.6393 52.622L15.6393 43.372C15.4173 43.244 15.2793 43.006 15.2793 42.748V24.248C15.2793 23.992 15.4153 23.752 15.6393 23.624L31.6393 14.374C31.8613 14.246 32.1373 14.246 32.3593 14.374L48.3593 23.624C48.5793 23.752 48.7193 23.99 48.7193 24.248V42.748C48.7193 43.006 48.5813 43.242 48.3593 43.372L32.3593 52.622C32.2493 52.688 32.1233 52.72 31.9993 52.72ZM16.7193 42.334L31.9993 51.168L47.2793 42.334V24.666L31.9993 15.832L16.7193 24.666V42.334ZM56.7193 40H55.2793V19.79L35.9333 8.60603C35.0873 9.87803 33.6393 10.72 31.9993 10.72C29.3973 10.72 27.2793 8.60203 27.2793 6.00003C27.2793 3.39803 29.3973 1.28003 31.9993 1.28003C34.6033 1.28003 36.7193 3.39803 36.7193 6.00003C36.7193 6.44803 36.6553 6.88203 36.5373 7.29203L56.3593 18.75C56.5793 18.878 56.7193 19.116 56.7193 19.374V40ZM31.9993 2.72003C30.1913 2.72003 28.7193 4.19203 28.7193 6.00003C28.7193 7.80803 30.1913 9.28003 31.9993 9.28003C33.8073 9.28003 35.2793 7.80803 35.2793 6.00003C35.2793 4.19203 33.8073 2.72003 31.9993 2.72003Z" fill="#0891B2"/>
</svg>
