<svg width="64" height="64" viewBox="0 0 64 64" fill="none" xmlns="http://www.w3.org/2000/svg">
<path d="M62 27.28H58.686C58.328 14.486 48.574 5.56603 34.62 5.30603C34.31 4.14403 33.258 3.28003 32 3.28003C30.5 3.28003 29.28 4.50003 29.28 6.00003C29.28 7.50003 30.5 8.72003 32 8.72003C33.24 8.72003 34.278 7.88203 34.604 6.74603C49.892 7.01203 56.934 17.068 57.248 27.282H54C53.602 27.282 53.28 27.604 53.28 28.002V31.282H36.648C36.298 29.022 34.356 27.282 32 27.282C29.644 27.282 27.702 29.022 27.354 31.282H2V32.722H27.354C27.704 34.982 29.644 36.722 32 36.722C34.358 36.722 36.298 34.982 36.648 32.722H53.28V36C53.28 36.398 53.602 36.72 54 36.72H57.248C56.932 46.934 49.89 56.988 34.602 57.254C34.276 56.118 33.24 55.28 32 55.28C30.5 55.28 29.28 56.5 29.28 58C29.28 59.5 30.5 60.72 32 60.72C33.258 60.72 34.31 59.858 34.62 58.694C48.574 58.434 58.328 49.512 58.688 36.72H62C62.398 36.72 62.72 36.398 62.72 36V28C62.72 27.602 62.398 27.28 62 27.28ZM32 7.28003C31.294 7.28003 30.72 6.70603 30.72 6.00003C30.72 5.29403 31.294 4.72003 32 4.72003C32.706 4.72003 33.28 5.29403 33.28 6.00003C33.28 6.70603 32.706 7.28003 32 7.28003ZM32 35.28C30.192 35.28 28.72 33.81 28.72 32C28.72 30.19 30.192 28.72 32 28.72C33.808 28.72 35.28 30.192 35.28 32C35.28 33.808 33.808 35.28 32 35.28ZM32 59.28C31.294 59.28 30.72 58.706 30.72 58C30.72 57.294 31.294 56.72 32 56.72C32.706 56.72 33.28 57.294 33.28 58C33.28 58.706 32.706 59.28 32 59.28ZM61.28 35.28H54.72V28.72H61.278L61.28 35.28ZM30.618 50.72C35.284 50.72 39.748 48.408 42.384 44.682C43.702 44.494 44.72 43.368 44.72 42C44.72 40.5 43.5 39.28 42 39.28C40.752 39.28 39.706 40.13 39.388 41.28H2V42.722H39.388C39.594 43.464 40.102 44.074 40.774 44.416C38.366 47.43 34.576 49.28 30.618 49.28H26.61C26.292 48.13 25.248 47.28 24 47.28C22.752 47.28 21.708 48.13 21.39 49.28H12V50.722H21.39C21.708 51.872 22.752 52.722 24 52.722C25.248 52.722 26.292 51.872 26.61 50.722L30.618 50.72ZM42 40.72C42.706 40.72 43.28 41.294 43.28 42C43.28 42.706 42.706 43.28 42 43.28C41.294 43.28 40.72 42.706 40.72 42C40.72 41.294 41.294 40.72 42 40.72ZM24 51.28C23.294 51.28 22.72 50.706 22.72 50C22.72 49.294 23.294 48.72 24 48.72C24.706 48.72 25.28 49.294 25.28 50C25.28 50.706 24.706 51.28 24 51.28ZM42 24.72C43.5 24.72 44.72 23.5 44.72 22C44.72 20.632 43.7 19.508 42.384 19.32C39.748 15.594 35.284 13.282 30.618 13.282H26.61C26.292 12.132 25.248 11.282 24 11.282C22.752 11.282 21.708 12.132 21.39 13.282H12V14.722H21.39C21.708 15.872 22.752 16.722 24 16.722C25.248 16.722 26.292 15.872 26.61 14.722H30.618C34.578 14.722 38.368 16.574 40.776 19.588C40.102 19.932 39.594 20.542 39.39 21.284H2V22.724H39.388C39.706 23.87 40.75 24.72 42 24.72ZM24 15.28C23.294 15.28 22.72 14.706 22.72 14C22.72 13.294 23.294 12.72 24 12.72C24.706 12.72 25.28 13.294 25.28 14C25.28 14.706 24.706 15.28 24 15.28ZM42 20.72C42.706 20.72 43.28 21.294 43.28 22C43.28 22.706 42.706 23.28 42 23.28C41.294 23.28 40.72 22.706 40.72 22C40.72 21.294 41.294 20.72 42 20.72Z" fill="#0891B2"/>
</svg>
