<svg width="377" height="476" viewBox="0 0 377 476" fill="none" xmlns="http://www.w3.org/2000/svg">
<g clip-path="url(#clip0_2056_278)">
<path d="M200.24 277.879L200.07 277.529L200.57 275.759L199.71 274.359L199.82 272.899L200.28 271.529L200.03 271.209L199.14 271.569L198 271.219L197.03 269.649L196.71 268.439L196.93 266.249L198.62 263.279L199.9 263.429L201.56 262.929L203.04 261.799L203.02 262.369L204.2 263.239L204.17 263.889L204.67 264.099L204.58 264.579L204.85 264.899L205.17 265.049L205.47 264.839L206.41 265.229L206.93 265.939L207.78 265.769L208.7 265.039L209.33 265.029L210.08 265.499L210.01 265.739L210.85 265.789L210.83 266.099L211.82 266.599L213.54 265.199L214.34 265.119L214.02 265.949L214.66 266.759L214.65 267.269L215.91 267.009L216.76 266.459L218.32 266.759L218.54 267.149L219.38 266.879L219.07 267.859L219.59 268.359L219.01 268.929L219.09 269.399L218.63 269.639L217.17 271.639L217.14 272.699L215.86 274.629L213.11 276.159L212.68 277.389L212.84 279.709L209.43 280.499L206 281.729L203.97 281.999L203.71 281.789L204.51 280.079L205 280.129L205.25 280.699L207.61 279.679L208.47 279.149L208.37 278.709L208.82 278.349L209.3 278.499L209.52 278.309L209.73 277.169L209.16 276.469L207.47 276.159L206.95 276.619L206.71 277.549L205.9 276.979L203.77 277.229L202.35 275.859L202.66 274.779L202.22 274.589L201.8 275.179L201.53 277.399L202.55 278.329L202.7 279.209L201.01 278.609L200.24 277.879Z" fill="#27272A"/>
<path d="M263.49 155.409L262.8 152.659L261.41 151.039L261.92 150.229L262.66 150.459L263.26 151.349L263.45 150.209L263.19 149.799L263.59 149.189L263.78 147.789L263.44 146.379L262.37 145.939L261.92 146.369L261.38 147.179L260.77 149.239L261.31 149.659L261.23 150.919L260.48 150.629L259.59 150.779L259.4 151.029L259.57 151.879L257.47 151.789L256.51 149.949L256.29 148.649L256.43 147.919L258.36 149.239L259.03 149.029L260.51 147.569L261.38 145.999L262.18 143.609L262.78 140.609L262.81 138.939L261.09 137.129L261.6 137.019L262.73 137.369L262.99 136.499L263.76 136.149L264.3 136.469L264.51 136.959L265.99 136.829L266.8 137.109L268.15 136.729L269.01 136.909L269.51 135.909L270.82 135.799L271.09 136.639H271.89L273.04 137.829L274.04 136.989L275.29 137.829L276.08 137.199L276.84 137.149L277.56 136.529L278.27 136.629L278.51 135.549L279.74 135.059L279.58 137.409L281.71 137.179L281.99 139.019L281.58 139.289L281.08 140.509L281.22 141.819L280.82 142.389L280.21 142.609L279.4 143.719L279.8 144.209L279.65 145.769L279.13 146.229L279.08 148.909L279.7 151.409L279.14 151.589L278.65 151.109L277.83 151.559L277.9 152.619L279.02 153.279L278.2 154.749L277.81 154.889L278.47 156.059L278.6 157.139L278.09 158.329L277.82 158.299L277.21 159.159L276.79 159.269L277 159.989L276.57 161.329L275.79 162.179L275.84 162.989L275.39 163.109L275.34 163.759L275.73 163.849L276.33 165.099L276.18 166.019L276.71 166.769L277.83 167.539L277.5 168.599L278.35 169.039L277.75 169.339L277.28 170.169L277.55 170.389L277.27 171.359L278.24 171.739L278.38 172.139L277.59 173.509L277.67 174.659L276.96 174.829L275.32 176.399L273.56 176.759L273.29 176.579L273.05 176.129L271.53 175.599L270.95 173.799L269.89 173.719L269.54 172.949L268.46 173.219L265.38 172.279L264.59 171.579L263.88 171.399L263.68 170.229L262.7 170.469L262.33 170.929L259.82 170.519L260.5 169.049L260.27 168.119L260.66 167.339L260.62 166.809L261.01 166.199L261.71 166.089L262.65 163.699L263.45 159.509L263.49 155.409Z" fill="#27272A"/>
<path d="M284.62 125.649L285.54 124.819L286.12 123.769L286.69 121.919L286.92 119.469L287.51 118.329L286.79 116.269L285.93 115.229L285.14 115.149L284.29 116.759L283.16 117.569L281.64 117.149L280.97 117.799L279.16 118.139L278.31 119.009L277.38 118.539L278.07 113.949L278.49 113.289L278.8 111.449L280.23 109.419L280.01 108.599L280.31 108.049L282.03 109.619L283.35 109.729L284.24 110.229L285.81 112.199L287.27 113.049L288.16 113.159L289.16 112.789L291.2 111.119L289.71 117.969L289.61 123.059L290.16 128.609L291.53 133.469L292.71 134.559L293.38 134.169L293.61 134.719L295.52 136.609L295.05 137.149L293.66 137.769L293.55 138.599L292.66 139.289L291.42 138.519L290.74 138.609L289.02 139.709L288.34 138.629L286.38 140.119L284.86 140.499L284.12 140.999L284.08 141.719L283.62 141.739L282.62 142.519L281.68 142.509L281.22 141.829L281.08 140.519L281.58 139.299L281.99 139.029L281.71 137.189L279.58 137.419L279.74 135.069L278.51 135.559L278.27 136.639L277.56 136.539L276.84 137.159L276.08 137.209L275.29 137.839L274.04 136.999L273.04 137.839L271.89 136.649H271.09L270.82 135.809L269.51 135.919L269.01 136.919L268.15 136.739L266.8 137.119L265.99 136.839L264.51 136.969L264.3 136.479L263.76 136.159L262.99 136.509L262.73 137.379L261.6 137.029L261.09 137.139L261.35 135.359L261.16 133.919L260.71 133.059L259.75 133.109L259.6 132.289L261.38 130.869L262.4 129.069L263.05 128.629L263.66 128.379L264.89 129.069L266.32 127.999L267.13 127.899L267.55 127.289L268.57 123.679L268.64 119.879L267.95 119.129L267.25 119.049L267.42 118.659L268.3 118.889L268.68 118.459L269.08 115.509L270.17 116.199L270.84 117.189L271.48 117.549L272.15 117.359L273.15 116.349L274.24 116.729L274.89 117.449L274.78 119.719L275.17 122.239L275.9 125.519L276.83 126.709L278.16 126.599L279.35 125.319L279.57 124.759L279.35 123.519L279.68 122.069L281.17 122.609L281.85 123.569L281.67 124.119L282.4 124.109L283.32 124.559L283.85 125.439L284.62 125.649Z" fill="#27272A"/>
<path d="M259.15 263.119L259.29 262.909L260.25 263.329L260.64 262.859L260.34 262.139L260.43 261.559L261.78 261.179L261.66 260.669L261.94 260.539L262.18 260.919L263.69 258.759L264.26 259.209L264.49 258.859L263.95 257.569L263.19 256.739L261.98 255.549L261.29 255.839L260.94 255.079L259.86 252.819L260.2 252.559L260.42 251.229L258.74 248.009L258.69 246.969L257.98 245.559L258.4 245.589L258.73 246.429L260.36 248.439L261.08 248.679L261.28 249.389L262.32 250.089L264.78 250.949L265.36 251.669L266.38 251.259L267.24 251.369L267.83 250.969L268.63 251.199L269.49 250.379L271.5 249.859L272.58 250.379L273.49 250.339L274.62 251.309L275.85 251.569L276.96 253.099L279.46 254.639L279.35 255.289L278.59 254.779L277.09 255.279L276.29 255.059L275.54 255.249L272.82 257.319L271.43 258.889L270.31 261.049L270.02 263.369L270.49 264.599L269.88 267.449L269.21 267.589L268.74 268.609L268.46 268.709L266.31 269.329L266.08 268.889L264.8 269.079L263.99 270.179L262.02 271.539L261.51 272.749L261.61 273.329L261.16 273.939L260.12 274.369L258.95 274.159L258.76 273.439L257.45 272.769L257.48 272.479L258.28 272.589L259.53 272.029L258.75 270.369L259.21 269.869L258.85 269.509L259.14 268.809L258.73 268.239L258.74 267.409L259.66 266.699L259.74 266.179L259.3 265.429L259.36 265.039L258.61 264.579L259.15 263.119Z" fill="#27272A"/>
<path d="M114.07 312.769L114.3 312.339L114.65 312.079L115 312.119L115.02 311.919L114.73 311.789L114.35 311.629L113.88 311.789L113.6 312.019L113.16 311.769L112.96 312.149L112.56 312.019L112.42 311.789H111.96L112.09 311.339L112.26 311.209L112.4 311.109L112.71 310.989L112.68 310.819L112.64 310.569L112.34 310.599L112.12 310.229L112.47 309.939L112.4 309.579L112.13 309.509L112.48 309.189L112.64 309.149L112.86 308.879L112.95 308.419L112.72 308.549L112.32 308.499L112.49 308.089L111.98 308.189L111.65 307.829L111.42 307.889L111.07 308.179L110.21 308.779L109.69 308.919L109.36 309.289L108.26 309.619L107.69 310.149L107.53 310.459L107.22 310.739L106.71 310.799L106.68 310.559L107.03 310.339L107.04 310.169L106.53 310.189L105.68 310.899L105.17 311.209L104.92 311.219L107.07 309.409L107.58 309.109L108.24 308.749L108.81 308.829L109.12 308.499L109.43 308.359L109.89 308.319L110.13 308.179L110.23 307.999L111.39 307.479L112.25 306.839L113 306.439L113.21 305.939L114.04 304.949L114.67 304.489L116.22 303.929L117.44 303.019L117.65 302.779L118.02 301.799L118.47 301.399L118.24 300.679L118.23 299.689L118.43 298.649L118.67 297.989L119.1 298.159L119.53 297.869L119.87 296.649L119.94 296.029L121.71 294.359L122.82 294.189L122.76 293.739L123.02 293.569L122.87 293.009L123.23 292.409L123.98 293.279L124.96 294.689L125.68 296.169L126.06 296.769L126.19 297.199L126.69 297.559L127.64 297.239L129.02 296.899L129.39 296.799L129.27 296.339L130.47 296.139L130.71 295.879L131.09 295.929L131.46 296.259L132.16 295.959L132.84 296.059L133.32 296.159L134.05 296.489L134.55 296.419L135.24 295.919L135.44 295.579L135.58 295.139L135.74 295.059L136.14 294.789L136.47 295.059L137.42 295.189L138.03 295.529L137.74 296.209L138.01 296.699V297.739L137.79 298.349L137.45 298.639L137.04 298.649L136.39 298.639L135.92 298.969L135.41 298.629L135.2 298.669L134.64 299.439L134.43 299.709L134.23 299.869L132.16 299.939L131.36 299.809L129.89 299.829L129.69 299.999L129.47 300.729L129.29 300.839L128.77 301.029L128.43 300.689L128.23 300.709L127.97 301.399L127.58 302.189L127.18 302.589L126.83 303.089L126.77 303.639L126.55 303.919L125.94 304.019L125.76 304.669L125.51 305.399L125.32 305.859L125.61 306.149L125.65 306.669L125.29 306.939L124.72 307.819L124.71 308.089L123.51 308.429L123.3 308.299L122.64 308.379L121.34 308.169L120.93 308.279L120.61 308.579L120.96 308.899L121.11 309.839L121.26 310.039H121.46L121.69 310.759L122.14 310.899L122.41 311.259L122.45 311.829L122.37 312.049L121.57 312.509L120.36 312.929L120.05 313.449L119.87 314.589L119.44 314.619L119.27 314.769L119.13 315.239L118.42 316.139L118.23 316.209L117.28 315.289L117.17 315.019L116.97 315.089L116.83 315.379L117.12 315.999L117.09 316.259L117.56 316.769L117.77 316.819L117.86 317.119L117.66 318.039L117.96 318.349L118.17 319.289L118.16 320.619L117.75 320.719L117.7 321.099L117.38 320.979L116.44 321.329L116.3 321.059L116.05 320.719L115.96 320.539L115.5 320.699L115.31 320.789L115.05 320.849L115.03 321.139L115.05 321.269L114.86 321.529L114.51 321.499L114.24 321.509L113.99 321.469L114.07 321.099L113.75 320.719L113.85 320.599L114.21 320.559L114.56 320.299L113.93 319.959L114.21 319.729L114.45 319.869L114.6 319.909L114.74 319.809L114.53 319.419L114.63 319.159L114.33 319.019L114.21 318.979L114.2 318.149L113.92 318.109L113.57 318.439L113.15 318.199L112.77 318.369L112.64 318.449L112.55 318.659L112.5 318.949L112.14 318.769L112.47 318.369L112.49 317.989L112.64 317.639L112.86 317.589L113.06 317.699L113.2 318.039L113.53 317.979L114.1 317.759L114.23 317.489L113.93 317.369L114.14 316.979L114.52 316.379L114.5 316.049L114.11 315.959L113.96 315.969L113.74 316.049L113.59 316.179L113.37 316.039L113.42 315.789L113.06 315.619L113.21 315.289L113.5 314.939L112.98 314.379L113.49 314.579L114.18 314.919L114.47 315.249L114.82 315.269L114.74 314.899L114.54 314.489L114.85 314.219L115.41 314.259L115.64 314.229L115.73 314.069L115.59 313.729L115.31 313.769L114.93 313.429L115.32 313.219L115.36 312.909L114.56 312.959L114.07 312.769Z" fill="#27272A"/>
<path d="M178.259 258.189L179.419 258.909L179.489 259.289L179.799 259.249L180.219 258.989L179.569 258.179L179.769 258.049L180.309 258.409L180.679 257.759L180.099 257.309L179.849 256.469L180.439 256.619L180.869 257.309L181.629 256.909L181.779 257.259L182.999 256.899L183.229 256.469L182.979 256.149L183.039 255.199L182.609 254.519L183.849 253.529L184.239 254.129L184.009 255.559L184.369 256.099L184.969 255.989L185.449 254.469L185.469 253.189L184.899 252.059L183.379 250.539L183.459 249.439L182.669 248.249L183.729 246.979L184.079 245.489L186.179 242.399L185.939 241.739H186.789L188.319 240.649L189.999 242.239L190.249 243.489L190.659 243.869L191.559 243.739L192.209 244.499L192.679 244.549L194.429 244.129L196.289 245.589L196.529 246.209L198.419 245.729L198.629 246.219L198.139 246.589L197.889 247.979L198.389 248.349L198.339 248.879L199.129 249.159L198.999 249.649L199.639 250.179L199.939 251.399L199.309 251.859L199.139 252.639L197.799 252.619L196.669 253.109L196.249 252.589L195.789 253.039L195.269 252.869L194.779 253.309L193.959 253.099L193.399 253.869L193.099 253.359L192.039 253.379L190.869 252.959L189.969 253.439L189.959 254.409L188.969 256.049L187.159 255.109L186.489 255.239L186.179 255.909L187.009 257.669L186.879 258.419L185.779 258.099L185.429 259.169L184.139 259.299L183.689 260.169L183.229 260.269L182.459 259.499L181.419 262.269L180.849 262.549L180.499 262.149L179.839 262.139L179.789 262.639L179.419 262.739L178.969 263.479L177.599 263.739L176.089 263.149L174.359 262.959L174.229 262.089L172.919 260.879L173.209 259.879L172.689 259.459L173.099 258.559L173.979 258.729L173.769 259.819L173.949 260.069L176.529 260.459L178.309 260.079L178.579 259.199L177.929 259.469L177.899 258.969L177.329 258.859L177.849 258.269L178.259 258.189Z" fill="#27272A"/>
<path d="M73.1402 303.079L74.3802 301.729L74.5202 301.129L74.4002 300.769L74.0702 300.779L74.0102 300.099L74.5702 300.049L74.8202 299.239L75.6702 298.719L75.5902 298.329L76.3702 298.299L76.6202 298.599L77.6602 298.489L78.3402 298.089L79.0502 297.149L80.1502 297.599L80.6002 297.259L82.3902 297.649L82.8202 298.229L83.5602 297.949L83.8802 297.179L85.0402 296.419L85.4402 296.729L84.7202 298.079L84.8902 299.039L84.1002 299.739L84.3202 300.199L84.9802 300.069L85.5302 302.599L86.9302 304.699L87.4902 304.419L88.5702 305.179L88.4202 305.549L88.7202 306.349L88.3302 306.869L88.4602 307.329L86.5502 307.439L85.5802 307.169L84.6502 307.399L83.0402 308.779L82.7402 310.429L82.2502 310.559L81.7802 311.249L82.0802 311.409L82.3702 312.359L82.2302 312.999L81.7102 313.259L81.5902 313.639L81.9502 313.829L81.9202 314.449L82.7602 315.179L82.2802 316.559L81.9302 316.809L80.4002 316.289L79.7302 315.679L78.9202 315.719L78.7602 315.319L78.2302 316.759L76.7302 316.589L75.1102 318.079L75.2902 319.149L73.1502 319.069L73.6302 317.969L73.3102 317.169L72.5702 316.389L72.6002 315.979L72.2302 315.789L72.4002 314.559L72.9902 313.519L74.8402 312.099L75.3502 311.239L75.8602 311.269L75.8802 309.019L75.4702 308.809L74.7302 309.059L73.7402 310.009L73.1202 309.299L72.3502 309.129L70.6502 308.059L70.1702 308.279L69.3102 308.039L68.6202 308.359L65.9902 308.279L66.1402 307.599L67.7502 307.279L68.2902 306.639L68.4802 306.089L68.0602 306.389L67.9102 305.939L67.6402 305.779L67.1902 306.019L66.9702 305.619L68.1602 305.269L68.4502 304.889L68.3302 304.509L69.1802 304.209L69.3302 303.599L69.9202 303.999L69.6702 304.369L69.8502 304.789L70.6702 304.929L70.7802 305.629L71.2602 305.549L71.4202 305.209L72.0802 305.279L73.1202 304.789L73.2402 303.949L73.8102 303.719L73.7302 303.119L73.1402 303.079Z" fill="#27272A"/>
<path d="M281.41 223.749L280.79 224.559L278.3 225.749L277.91 226.409L277.95 226.889L274.52 225.849L273.95 224.819L273.61 225.279L274.07 226.579L272.95 227.069L271.49 228.469L271.06 227.899L269.92 227.479L269.59 226.319L268.77 226.069L268.01 225.049L267.46 225.019L267.13 224.689L267.29 222.829L266.44 222.879L266.21 221.939L265.19 220.959L262.8 219.959L260.39 219.679L259.03 220.269L258.85 221.179L256.06 222.049L255.8 222.469L255.01 222.659L254.78 223.099L254.15 223.189L253.23 223.929L251.87 224.169L251.16 225.189L250.22 225.619L247.92 224.899L247.4 225.099L247.39 224.729L247.63 224.309L247.52 222.969L247.74 222.189L247.32 220.799L247.67 219.519L247.2 218.589L246.52 218.429L245.93 217.629L246.9 216.229L247.1 215.069L247.24 213.879L246.57 213.319L247.14 212.399L249.29 212.159L249.84 211.869L250.52 212.109L250.84 210.919L251.25 210.759L251.72 210.719L252.11 211.039L252.48 210.799L253.74 211.019L254.22 210.789L253.84 209.969L253.93 209.159L253.51 208.129L253.54 207.399L255.07 206.359L254.94 206.119L255.65 204.819L257.23 203.109L258.02 202.929L258.65 203.609L259.59 203.029L260.2 203.419L260.83 203.349L261.16 202.999L262.13 204.679L263.36 204.219L264.83 205.339L265.57 204.779L266.87 205.039L268.2 203.429L267.65 203.019L267.61 201.009L267.91 199.299L269.3 199.959L270.43 199.389L271.57 200.079L271.94 201.169L274.59 200.899L275.41 201.179L275.97 201.639L275.79 202.779L276.07 203.529L276.7 204.029L277.91 204.299L278.06 204.139L277.59 203.749L279.17 203.809L279.3 203.589L279.27 201.419L279.99 201.149L280.68 201.329L281.06 202.609L281.77 203.039L281.82 204.319L282.26 205.069L282.81 211.099V214.409L281.41 223.749Z" fill="#27272A"/>
<path d="M191.73 266.759L191.01 266.069L191.33 265.859L191.35 264.929L191.67 264.409L191.71 263.069L192.26 262.629L191.73 261.779L191.82 260.779L191.19 260.139L191.43 259.249L190.88 258.539L190.57 259.039L189.79 258.749L189.91 257.149L189.25 257.079L188.99 256.009L189.97 254.369L189.98 253.399L190.88 252.919L192.05 253.339L193.11 253.329L193.41 253.839L193.97 253.069L194.79 253.289L195.27 252.849L195.79 253.019L196.25 252.579L196.66 253.099L197.79 252.609L199.14 252.629L199.31 251.849L199.93 251.389L199.63 250.169L198.99 249.649L199.11 249.159L198.32 248.879L198.37 248.349L197.88 247.979L198.12 246.589L198.62 246.219L198.41 245.729L198.91 244.639L198.68 243.899L199.29 243.669L200.23 241.999L200.19 241.609L199.43 241.179L199.18 240.599L199.76 240.519L200.05 239.459L200.82 238.899L201.07 239.489L201.42 239.129L202.34 239.639L202.68 240.409L202.42 241.139L202.76 241.219L204.15 239.999L204.4 238.849L206.48 236.829L207.03 236.809L207.28 237.249L208.74 236.559L209.33 236.609L209.37 237.489L209.58 237.529L210.93 236.729L211.21 237.509L212.34 237.859L213.05 237.519L213.89 238.339L214.83 238.409L214.96 238.919L215.99 239.579L216.08 240.109L215.99 240.889L214.6 242.699L214.98 243.249L214.93 243.769L214.18 244.479L214.17 245.289L214.63 245.789L215.35 246.039L214.96 247.609L213.96 248.369L213.59 249.289L213.15 249.389L212.63 250.449L212.21 250.519L211.88 250.189L210.73 250.539L210.38 251.599L209.79 251.849L209.68 252.389L209.97 252.779L211.01 252.789L211.06 253.299L212.29 253.669L213.09 255.459L213.87 256.159L213.44 257.439L213.83 257.889L213.76 258.989L214.07 259.539L215.14 259.219L215.71 259.759V260.669L215.06 261.369L215.77 262.349L214.9 262.639L215.16 263.909L214.32 264.559L214.33 265.089L213.53 265.169L211.81 266.569L210.82 266.079L210.84 265.759L210 265.719L210.07 265.479L209.32 264.999L208.69 265.019L207.77 265.749L206.92 265.919L206.4 265.209L205.46 264.819L205.16 265.029L204.84 264.879L204.57 264.559L204.66 264.069L204.17 263.869L204.2 263.219L203.02 262.349L203.04 261.789L201.55 262.909L199.89 263.409L198.62 263.259L196.93 266.239L196.71 268.429L195.63 268.309L193.94 265.809L191.73 266.759Z" fill="#27272A"/>
<path d="M255.67 242.529L255.36 243.109L254.87 243.289L254.35 242.809L251.81 243.289L250 241.949L249.14 242.159L248.17 241.869L247.57 242.019L245.88 241.159L245.18 241.109L243.95 243.079L243.93 244.009L243.51 244.769L241.98 244.839L241.52 245.619L240 246.019L239.08 247.029L237.85 247.049L237.1 248.059L236.74 248.149L236.38 247.629L235.77 247.439L235.39 245.669L235.72 245.319L235.44 244.649L234.79 244.569L234.35 243.809L234.51 243.639L234.97 243.969L235.42 243.489L235.45 242.679L235.03 242.239L234.8 241.129L235.83 240.449L235.9 238.969L235.61 237.819L234.78 237.569L234.08 237.669L233.64 238.069L232.76 237.819L232.55 238.129L232.12 238.059L230.87 237.319L230.81 236.019L231.41 234.359L231.39 233.369L232.35 232.189L233.31 232.029L233.32 230.939L235.11 230.579L236.66 229.749L236.91 229.919L237.27 229.289L238.47 229.729L239.26 229.059L239.16 228.059L239.8 228.089L241.29 227.469L241.04 227.029L241.33 226.079L242.18 226.189L242.27 225.929L242 223.999L243.64 223.719L244.46 222.989L244.58 222.039L246.12 223.589L246.23 224.349L247.15 224.419L247.38 224.759L247.39 225.129L247.91 224.929L250.21 225.639L249.63 227.179L250.65 227.619L249.63 229.029L249.91 230.199L249.32 231.089L249.14 232.459L250.61 233.199L251.84 233.129L252.18 233.809L251.36 234.459L250.96 235.659L251.29 236.419L250.1 237.969L249.92 238.929L250.97 239.709L250.93 240.289L252.04 241.259L253.05 240.969L253.76 241.399L254.87 241.219L255.25 241.459L255.16 241.739L255.67 242.529Z" fill="#27272A"/>
<path d="M153.22 277.549L152.13 278.449L150.92 278.229L150.38 276.859L149.3 275.899L149.12 275.429L149.82 274.119L149.14 273.269L149.49 272.949L149.64 272.039L149.44 271.449L150.36 270.909L150.42 269.979L151.01 269.729L151.25 268.629L151.49 268.369L152.16 268.439L152.24 267.659L151.61 266.999L152.05 266.199L152.63 266.459L154.27 265.309L154.01 264.149L154.16 263.719L153.43 262.759L153.52 261.679L152.79 261.339L152.3 259.459L152.42 258.439L152.04 257.669L151.35 257.149L153.48 256.489L154.7 255.749L155.9 256.059L156.32 256.529L157.14 255.859L158.52 256.059L159.8 255.769L160.25 256.099L161.23 256.039L161.25 258.059L162.11 258.859L162.32 259.469L163.04 259.649L164.37 258.989L164.69 259.529V262.159L163.78 262.679L162.64 262.129L162.27 263.129L162.29 264.399L163.78 265.009L165.1 266.139L165.86 265.679L166.88 265.699L166.9 266.479L167.76 267.299L167.51 267.849L168.06 268.089L168.49 267.729L169.3 267.769L169.52 267.829L169.56 268.559L170.41 268.379L171.38 268.869L171.67 270.129L171.29 270.339L171.12 270.879L170.69 270.829L170.4 271.139L170.8 271.379L170.88 272.349L170.64 272.709L172.04 273.519L173 273.659L172.09 274.169L172.52 274.419L172.05 276.459L172.79 277.699L172.94 279.129L172.4 280.339L171.96 280.009L172.1 279.539L171.85 279.019L170.93 279.339L170.51 278.739L169.54 278.609L167.56 279.549L167.46 280.229L164.88 280.869L160.61 279.149L158.94 277.499L153.22 277.549ZM162.62 288.629L162.84 289.399L160.78 290.239L159.8 291.059L158.46 291.249L158.45 290.799L157.86 290.489L157.92 289.989L157.49 289.829L156.95 288.819L157.62 287.859L158 288.099L158.47 287.859L159.8 285.039L160.2 284.579L160.61 284.589L161.56 283.089L162.51 282.659L163.28 281.539L163.83 281.249L164.27 282.079L163.67 282.799L163.52 283.569L161.74 285.899L161.73 287.439L162.62 288.629Z" fill="#27272A"/>
<path d="M270.01 71.5689L272.72 69.4389L272.76 68.8489L270.8 65.6789L269.42 64.6889L268.72 63.5289L269.4 60.9889L269.13 60.5089L270.77 60.6189L271.37 60.1989L271.58 59.6589L272.11 59.4489L274.86 62.1089L276.79 62.9789L277.92 64.2589L280.4 63.7889L280.57 63.3689L281.59 63.0489L282.31 63.0689L282.17 64.2389L285.21 65.6289L287.41 64.4089L289.38 62.2589L290.37 60.6589L290.47 58.3089L289.09 55.5489L289.63 53.6089L288.97 52.1689L288.52 49.8989L289.54 47.7989L291.01 46.9089L291.77 46.8589L293.8 45.5389L294.73 43.6489L295.14 41.6989L294.79 33.8389L295.29 33.5189L296.93 30.0789L297.14 27.2189L297.52 26.4289L297.65 24.8289L297.35 21.5589L296.58 17.7189L293.54 10.3989L293.23 9.23888L293.3 8.24889L294.16 6.97888L294.95 5.02888L294.54 3.62888L294.69 2.34888L295.44 3.11888L295.57 3.63888L295.96 3.79888L297.72 3.51888L299.07 2.57888L299.62 0.588885L300.49 0.278885L300.96 0.608885L301.52 1.89888L302.11 2.23888L302.74 3.70888L305.06 5.40889L307.27 8.52888L312.22 14.0889L316.13 21.3189L318.71 23.8689L321.15 26.9689L326.73 31.3689L328.3 32.2589L328.63 33.2089L329.89 34.1689L333.59 36.1089L336.83 37.3889L342.71 39.0789L345.5 39.6089L345.94 39.2989L346.23 40.0689L346.17 41.3489L347.04 42.8989L347.62 43.3789L350.83 44.3889L354.24 44.5989L356.81 44.2789L359.09 42.2889L360.63 40.3689L362.81 38.3289L364.64 37.0689L365.3 35.6189L366.4 34.4589L367.18 33.0789L367.64 33.1089L368.09 35.3389L366.88 37.8289L365.97 38.7489L365.37 41.1489L363.64 43.2789L362.7 45.3989L362.8 46.2289L362.03 48.2789L362.25 49.3389L363.6 51.9189L365.09 53.8889L366.61 59.1189L368.1 61.0789L366.94 60.5489L366.75 60.0189L365.61 59.7989L365.37 60.1689L365.58 61.4289L366.44 60.7589L366.91 61.1589L366.62 61.7089L366.99 62.0989L367.39 61.8189L369.94 62.4389L372.03 60.7389L372.35 60.1389L373.46 59.4289L373.7 58.9289L376.98 59.1289L376.79 59.6289L375.62 60.5389L373.89 60.8489L372.02 61.8789L371.22 64.8089L370.45 64.4489L369.21 64.3989L366.5 64.9089L364.99 65.8089L363.73 65.5989L363.11 66.1989L362.97 67.3489L361.37 69.4989L360.35 69.9889L358.45 69.8889L357.55 69.0989L357.58 68.5689L357.91 68.2589L357.36 67.8889L356.63 67.9889L355.44 69.7189L355.42 70.1289L356.57 71.2589L354.56 71.1389L353.41 70.7889L349.83 70.7689L349.14 70.6189L347.56 69.3489L344.5 69.8889L342.07 71.0689L338.67 73.5989L333.4 78.8689L329.32 84.6689L327.79 87.9789L327.51 89.6489L328.06 91.0889L327.24 94.9689L326.33 96.4989V98.1089L322.63 94.3889L317.78 92.3689L309.69 87.9189L307.31 86.2489L305.47 84.1989L302.26 83.2589L300.05 81.2089L298.23 80.0089L296.4 79.4789L294.02 79.4389L290.85 80.4789L288.77 81.7689L286.09 84.0489L284.5 84.9389L282.38 87.3889L282.04 88.1389L280.97 87.7389L280.64 87.1889L281.02 86.8989L281.61 87.5389L281.73 86.7289L280.38 86.3189L279.51 83.9489L278.72 83.5489L277.65 82.4289L277.53 81.8489L276.26 80.6189L275.02 80.5289L273.77 81.0589L272.8 80.4689L271.59 80.4989L269.91 82.3089L268.47 85.0589L267.76 87.6089L268.04 89.5489L270.36 90.7489L273.1 93.0989L273.85 93.2389L275.22 92.7089L277.26 93.0189L278.49 95.2289L280.12 96.4489L281.2 98.3289L284.35 99.6889L284.9 100.579L285.69 101.169L285.08 101.779L284.13 101.789L283.03 103.089L281.37 103.749L280.51 102.959L277.73 102.049L276.8 102.209L276.52 102.829L276.11 102.929L275.93 102.319L276.61 101.869L276.41 101.199L275.82 100.829L274.96 100.909L274.55 101.239L274.12 102.919L272.68 103.979L271.39 104.079L271.04 104.409L270.73 108.349L270.33 108.829L269.39 108.859L267.43 109.729L266.53 111.619L266.14 111.939L265.12 111.139L263.98 111.359L263.08 110.649L262 107.929L261.91 107.069L262.32 105.299L263.67 102.269V101.219L264.44 101.299L264.73 100.709L265.04 98.0089L264.64 96.0289L262.74 93.0889L262.07 92.7289L260.77 92.6089L260.26 91.2789L259.41 90.3989L258.27 89.9889L257.88 89.2589L257.69 87.8689L258 86.7489L258.94 85.7189L259.27 84.7689L259.3 82.1189L258.81 79.8889L259.73 78.4389L260.85 77.8189L263.13 77.7589L263.74 76.8489L265.13 76.1189L265.98 74.1989L266.8 74.7689L267.36 75.7389L268.25 75.5089L268.34 74.1189L269.16 73.2789L270.01 71.5689ZM284.73 10.1389L284.64 8.90889L285.92 7.65889L287.99 8.86889L288.5 10.6789L286.69 12.1689L285.32 11.0989L284.73 10.1389ZM252.85 91.3089L252.56 93.5289L252.17 94.1589L251.52 94.3889L251.5 94.7489L250.89 94.2089L250.95 92.4989L250.53 91.3889L251.27 90.2989L253.18 89.9189L253.64 89.3989L253.67 90.0389L252.85 91.3089ZM283.2 4.52888L282.94 7.11889L282.55 7.24888L281.67 4.27888L281.89 2.96888L281.28 2.62888L281.37 1.89888L282.02 2.74888L282.68 2.59888L282.66 2.00888L283 2.27888L283.35 3.05888L283.2 4.52888Z" fill="#27272A"/>
<path d="M117.179 290.939L116.399 290.239L114.949 291.989L115.259 292.889L116.019 292.689L116.339 292.999L116.189 293.209L115.489 293.739L115.209 293.459L113.669 293.719L113.489 293.129L114.629 292.499L114.379 292.039L114.519 291.409L115.049 290.969L115.129 289.999L114.419 288.269L114.569 287.299L113.259 286.649L110.979 287.689L110.959 288.059L109.229 289.669L109.019 290.179L109.289 290.329L108.959 290.519L107.679 290.209L107.179 288.749L107.259 288.119L106.339 287.339L106.099 285.979L106.269 285.169L105.969 284.489L105.479 283.859L105.779 283.219L106.379 283.039L107.009 282.359L107.219 280.579L107.919 279.549L107.369 279.209L107.669 278.729L109.119 277.869L109.429 276.729L110.219 276.839L110.619 277.319L110.829 276.879L112.069 276.749L112.589 277.169L113.099 276.739L113.029 276.489L113.439 276.349L113.689 276.759L115.319 276.889L116.789 275.829L118.549 275.689L118.539 274.819L117.849 274.609L117.469 274.139L118.319 273.139L119.509 272.889L121.909 269.559L122.309 269.489L123.459 270.189L124.249 269.569L125.229 270.359L126.649 269.939L127.229 270.159V270.419L129.329 270.099L129.749 270.599L130.759 271.819L130.299 273.029L130.289 274.629L131.889 276.629L131.599 277.749L132.009 279.649L131.999 281.029L133.209 282.679L133.329 284.419L132.879 285.659L131.999 285.749L131.959 286.649L131.629 286.959L129.229 286.449L129.189 286.239L129.759 286.049L129.719 285.449L129.159 285.239L129.229 285.669L128.569 285.969L126.919 286.639L126.179 286.549L125.949 287.529L124.689 287.919L123.409 287.709L122.259 287.969L121.909 288.539L121.359 288.799L121.109 288.239L120.399 288.319L120.139 289.179L119.689 289.029L119.649 290.009L118.489 290.089L117.179 290.939Z" fill="#27272A"/>
<path d="M273.52 240.309L273.42 242.429L274.31 245.699L276.99 251.199L278.62 253.689L279.44 254.159L279.48 254.609L276.98 253.069L275.87 251.539L274.64 251.279L273.51 250.309L272.6 250.349L271.52 249.829L269.51 250.349L268.65 251.169L267.85 250.939L267.26 251.339L266.4 251.229L265.38 251.639L264.8 250.919L262.34 250.059L261.3 249.359L261.1 248.649L260.38 248.409L258.75 246.399L258.42 245.559L258 245.529L257.61 245.879L257.22 245.779L256.35 243.819L256.52 242.929L257.25 242.869L258.9 241.999L259.45 240.309L260.58 240.589L260.7 239.709L261.7 239.239L261.83 238.789L263.39 238.709L263.65 238.579L263.7 238.059L264.37 238.299L264.78 237.839L265.22 237.819L265.5 238.209L266.17 237.999L266.38 236.829L267.3 234.979L267.28 233.169L266.71 231.219L266.99 230.839L267.94 230.629L268.04 230.319L267.41 229.319L267.63 228.019L267.35 227.029L267.44 225.039L267.99 225.069L268.75 226.089L269.57 226.339L269.9 227.499L271.04 227.919L271.47 228.489L272.93 227.089L274.05 226.599L273.59 225.299L273.93 224.839L274.5 225.869L277.93 226.909L277.97 226.929L278 226.939L278.18 227.579L277.55 227.749L277.06 228.699L275.88 232.699L275.18 233.869L274.4 236.139L274.56 239.019L273.52 240.309Z" fill="#27272A"/>
<path d="M197.73 221.149L197.67 219.859L197.35 219.719L196.99 220.059L196.69 219.779L197.3 217.449L197.7 217.099V215.429L198.05 215.049L199.49 213.879L200.62 213.369L201.75 213.649L204.65 212.169L205.07 211.589L206.05 211.109L207.32 210.939L208.64 210.229L209.67 210.359L210.14 211.019L209.9 211.489L210.31 212.299L209.7 212.589L208.69 212.549L208.16 212.909L207.88 214.079L208.48 215.129L207.82 216.109L206.03 216.059L205.14 216.559L204.57 218.049L203.41 218.909L202.85 218.379L202.36 218.299L202.53 217.689H202.18L200.72 219.859L201.26 220.089L201.09 220.709L200.58 220.829L200.7 221.259L200.44 221.649L201 221.739L201.56 221.169L202.69 222.279L203.44 221.629L203.64 220.949H204.2L204.24 224.439L203 224.339L202.28 224.599L200.88 225.969L200.28 229.459L199.73 230.109L199.57 231.089L199.8 231.549L199.04 232.779L199.23 233.909L199.69 234.489L198.94 237.449L199.39 239.329L199.07 239.749L199.21 240.629L199.46 241.209L200.22 241.639L200.26 242.029L199.32 243.709L198.72 243.939L198.94 244.669L198.44 245.759L196.55 246.239L196.31 245.619L194.45 244.159L192.7 244.579L192.23 244.529L191.58 243.769L190.68 243.899L190.27 243.519L190.02 242.269L188.34 240.679L189.44 239.279L190.36 238.959L191.77 237.599L196.24 231.569L197.33 229.599L198.66 225.799L198.7 223.499L197.75 222.019L197.73 221.149Z" fill="#27272A"/>
<path d="M299.86 166.199L300.28 166.359L300.33 166.809L299.5 166.769L300.03 167.299L300.53 167.289L300.86 167.969L299.83 168.399L299.1 168.369L299.11 168.729L299.6 168.999L300.15 168.879L300.16 169.119L299.5 169.649L298.76 169.619L298.5 169.889L300.17 170.929L299.31 171.229L298.05 170.699L298.26 171.669L299.28 171.929L298.06 172.109L298.8 172.679L298.53 172.959L297.44 172.879L296.97 173.129L296.55 172.659L296.59 172.089L296.24 171.919L296.3 172.529L296 172.969L296.69 173.829L296.26 173.889L296.37 174.799L295.9 175.139L295.18 174.179L295.43 173.649L295.23 173.459L294.31 173.549L294.47 174.299L293.3 173.809L291.86 173.679L291.62 174.199L291.73 175.979L291.05 176.679L291.15 177.189L290.65 179.129L288.2 178.129L287.3 178.999L287.13 179.699L286.61 179.879L284.84 178.869L284.37 177.779L284.96 177.229L284.71 176.729L283.99 176.529L281.78 176.779L281.23 175.969L279.79 175.489L278.57 174.579L277.62 174.719L277.54 173.569L278.33 172.199L278.19 171.799L277.22 171.419L277.5 170.449L277.23 170.229L277.7 169.399L278.3 169.099L277.45 168.659L277.78 167.599L276.66 166.829L276.13 166.079L276.28 165.159L275.68 163.909L275.29 163.819L275.34 163.169L275.79 163.049L275.74 162.239L276.52 161.389L276.95 160.049L276.74 159.329L277.16 159.219L277.77 158.359L278.04 158.389L278.55 157.199L278.42 156.119L277.76 154.949L278.15 154.809L278.97 153.339L277.85 152.679L277.78 151.619L278.6 151.169L279.09 151.649L279.65 151.469L279.03 148.969L279.08 146.289L279.6 145.829L279.75 144.269L279.35 143.779L280.16 142.669L280.77 142.449L281.17 141.879L281.63 142.559L282.57 142.569L283.57 141.789L284.03 141.769L284.07 141.049L284.81 140.549L286.33 140.169L288.29 138.679L288.97 139.759L290.69 138.659L291.37 138.569L292.61 139.339L293.5 138.649L293.61 137.819L295 137.199L295.47 136.659L296.84 138.699L298.38 142.159L297.4 143.239L298.79 143.839L299.25 144.479L299.13 144.729L298.64 144.739L298.28 145.279L298.39 146.259L298.72 146.739L299.23 146.909L299.72 147.799L300.41 147.919L300.81 148.619L300.49 150.219L301.21 151.429L301.44 154.409L301.02 156.099L301.46 156.169L300.61 158.739H300.86L302.19 156.939L302.21 158.959L302.81 159.039L303.1 159.739L302.95 160.099L302.33 160.179L301.47 161.349L300.77 161.599L301.2 162.479L302.36 161.349L302.67 161.299L302.87 161.669L302.44 162.999L301.32 163.259L300.43 163.859L299.62 165.049L299.96 165.399L300.75 164.979L301.19 165.519L299.49 165.809L299.86 166.199Z" fill="#27272A"/>
<path d="M126.51 317.659L126.27 318.689L125.26 318.339L124.66 318.779L124.22 320.369L124.56 322.029L123.42 322.509L123.4 323.609L124.43 324.239L124.76 325.719L124.45 325.769L122.77 324.269L122 324.159H121.65L120.44 325.199L119.85 324.839L119.57 325.039L118.66 323.979L117.07 324.859L116.98 324.019L117.66 323.009L117.61 322.649L118.77 321.389L118.53 321.009L117.7 321.079L117.75 320.699L118.16 320.599L118.17 319.269L117.66 318.019L117.86 317.099L117.1 316.239L116.83 315.359L117.17 314.989L118.22 316.169L118.41 316.099L119.26 314.719L119.86 314.549L120.35 312.889L121.56 312.469L122.45 311.799L122.41 311.229L121.7 310.719L120.62 308.539L121.35 308.129L123.52 308.389L124.72 308.049L125.66 306.629L125.34 305.829L125.96 303.989L126.79 303.609L126.85 303.059L127.6 302.159L128.25 300.679L128.79 301.009L129.31 300.819L129.9 299.809L134.24 299.849L135.21 298.649L135.92 298.949L136.39 298.619H137.45L137.82 299.159L139.16 299.679L140.97 299.509L141.62 300.409L142.41 300.729L143.02 300.529L143.44 299.719L143.83 299.589L144.08 300.049L144.78 299.879L145.29 301.139L145.39 303.139L147.36 303.189L147.59 303.989L147.12 304.529L147.22 304.999L148 306.189L150.11 306.409L148.23 309.989L147.58 313.559L146.84 312.349H146.23L146.11 311.619L145.13 310.619L144.7 309.589L143.29 308.909L142.78 307.829L139.55 307.229L139.1 306.679L135.95 307.179L135.7 307.649L133.37 308.819L133.39 309.459L131.2 309.869L130.65 310.939L130.4 310.359L129.48 310.659L129.56 311.279L129.29 311.559L129.5 311.999L129.16 312.799L129.5 312.709L129.57 313.239L129.24 313.429L129.43 313.989L128.53 314.929L128.78 315.659L128.54 315.809L128.47 315.409L128.03 315.439L126.51 317.659Z" fill="#27272A"/>
<path d="M139.68 288.819L141.82 287.599L142 286.639L144.08 287.339L145.69 287.409L146.76 286.209L147.29 286.589L147.1 287.549L147.28 287.919L147.64 287.979L147.77 287.579L148.22 287.489L149.33 287.719L149.32 288.129L148.93 288.439L149.12 288.919L150.25 289.179L151.07 289.809L151.46 289.749L152.83 290.799L152.67 291.759L152.25 291.979L151.16 291.399L150.88 291.699L149.25 291.439L147.55 291.619L146.81 292.199L146.87 292.619L146.55 292.959L145.31 293.099L144.14 294.009H143.67L142.81 293.039L141.43 293.289L140.67 293.579L140.39 294.079L139.81 293.889L138.81 294.729L138.67 295.239L138.05 295.459L136.17 294.719L136.86 294.219L137.19 291.139L135.68 289.929L135.75 289.599L136.06 289.509L137.65 290.309L138.2 290.139L139.68 288.819Z" fill="#27272A"/>
<path d="M79.6296 340.219L78.3796 339.569L78.1196 339.079L77.5496 338.949L77.1496 338.239L76.6096 338.999L75.6996 339.409L74.8596 339.399L74.2596 339.949L73.2196 339.789L72.8996 339.169L72.3596 338.909L72.5396 337.829L73.5796 336.699L74.8296 334.069L76.4896 332.399L76.3696 331.439L75.9896 331.409L75.9196 330.959L76.5896 330.989L76.7196 330.769L75.8196 330.219L78.2596 327.799L78.0296 327.599L76.9196 328.059L74.2996 328.159L74.3096 327.779L77.0296 325.949L77.0096 324.429L77.2396 324.079L76.3896 322.919L75.6196 322.739L75.4896 321.989L74.0296 321.309L73.7096 319.559L73.1396 319.079L75.2796 319.159L75.0996 318.089L76.7196 316.599L78.2196 316.769L78.7496 315.329L78.9096 315.729L79.7196 315.689L80.3896 316.299L81.9196 316.819L81.9096 317.109L82.7796 317.279L83.3796 318.069L84.0096 318.119L84.4096 318.749L84.7896 318.759L85.2796 318.129L85.4596 317.279L84.6296 316.069L84.7596 315.329L85.7796 314.769L87.1896 315.029L88.2296 316.119L88.4196 317.289L89.2796 318.069L89.8696 319.689L90.0796 321.959L91.4796 323.229L90.2196 323.389L89.6596 324.389L89.6296 325.289L88.6596 325.929L88.4596 326.859H87.8696L87.5096 327.399L87.2596 328.809L86.7996 329.149L86.0896 328.939L85.7996 329.659L85.3996 329.829L85.1496 331.209L85.3996 332.339L85.8196 333.019L86.2596 333.109L86.4496 334.259L87.2096 334.939L86.5796 335.969L86.0196 335.999L85.8196 336.589L86.9696 337.929L87.1396 338.839L86.2596 338.949L85.1496 338.589L84.4496 339.779L84.0496 339.909L83.1996 339.559L82.1996 340.269L79.6296 340.219ZM73.6096 330.439L74.0796 330.369L73.8496 331.649L73.3096 332.409L73.5896 332.499L73.0296 333.349L72.1996 333.729L71.0096 333.209L70.1096 333.289L70.0496 332.909L69.5396 332.739L69.1496 333.139L69.6496 333.539L69.6996 333.979L69.2696 334.969L67.4096 336.319L67.1796 337.179L66.1196 337.889L66.1696 338.849L65.6996 339.019L65.0396 337.919L65.2896 337.049L64.5596 336.839L65.2096 335.419L64.7696 334.839L64.7496 334.119L65.9396 331.709L66.1196 330.579L67.5096 329.929L68.9196 329.779L69.1596 330.059L69.0096 330.979L69.2696 332.009L70.8896 331.199L71.4896 330.479L72.3596 330.209L72.9296 330.579L73.6096 330.439ZM68.4396 337.559L68.3596 336.849L68.9396 336.259L68.7196 337.219L69.3796 338.919L68.9196 339.199L68.4496 340.439L67.4296 339.619L67.5096 338.869L67.1696 338.509L67.3096 337.639L68.4396 337.559ZM74.1096 329.609L73.5796 329.879L73.2196 329.719L72.9996 328.849L73.9596 327.959L74.2896 328.839L73.9696 329.259L74.1096 329.609Z" fill="#27272A"/>
<path d="M241.03 262.339L241.44 261.209L243.23 260.379L243.69 259.729L244.4 259.629L244.89 259.109L245.23 258.409L245.25 255.799L245.85 255.929L246.31 256.479L246.92 256.449L247.51 257.439L248.37 257.279L250.54 257.989L251.89 259.879L252.19 259.849L252.38 257.829L251.59 257.209L251.81 256.979L252.3 257.449L253.06 256.539L255.74 257.809L256.07 258.479L256.55 258.709L256.56 259.089L257.2 258.899H257.21H257.24H257.26L257.68 259.629L256.19 260.409L255.45 260.349L255.04 260.759L255.42 261.209L255.82 261.089L256.22 261.379L255.81 262.259L255.46 262.009L254.99 262.089L254.89 262.479L255.38 262.739L255.65 264.059L255.31 264.759L256.27 265.539L257.34 265.769L256.91 266.829L256.2 266.919L255.55 267.469L255.67 268.059L256.01 268.149L255.97 268.579L254.63 268.549L254.78 267.369L254.45 266.189L253.82 265.509L253.88 264.879L251.34 264.259L248.89 264.599L246.77 265.259L245.61 266.189L245.44 268.279L244.8 268.629L243.28 268.419L243.15 267.739L242.45 267.199L242.21 265.689L242.78 265.059L243.05 264.099L242.71 262.569L242.56 262.329L241.03 262.339Z" fill="#27272A"/>
<path d="M70.4302 355.819L71.5602 353.929L71.8302 351.589L71.6302 350.519L68.5402 347.329L69.6702 344.629L69.4902 343.539L68.7602 342.139L69.3302 341.059L68.6102 340.479L68.8202 339.939L69.6602 339.509L70.1802 339.519L70.8602 339.979L71.9402 339.879L72.3802 338.919L72.9202 339.179L73.2402 339.799L74.2802 339.959L74.8802 339.409L75.7202 339.419L76.6302 339.009L77.1702 338.249L77.5702 338.959L78.1402 339.089L78.4002 339.579L79.6502 340.229L79.1702 341.229L79.8202 341.459L80.6402 342.249L81.0602 343.669L82.1402 344.019L82.8802 344.869L82.7602 346.129L82.5602 346.199L82.7302 347.079L83.3802 347.179L83.6802 347.539L84.7602 347.669L84.5802 348.279L85.3702 348.469L85.5302 350.039L86.0802 351.009L86.5802 350.429L87.2902 351.069L88.2502 350.959L88.7202 351.249L89.0202 352.169L88.7702 352.789L88.9602 353.629L88.3402 354.289L88.2202 355.009L87.0502 354.589L86.0602 355.369L85.3602 356.459L85.2802 357.259L87.0502 357.869L87.0702 358.299L86.4202 359.009L86.6002 359.189L87.3902 358.909L87.5102 359.159L86.2402 360.289L85.2302 360.319L85.0202 361.159L84.2302 362.329L82.4702 363.309L81.0302 363.559L78.2902 365.609L78.6502 364.249L78.1402 363.849L79.9402 362.459L80.3802 361.339L80.1302 360.619L80.8302 359.729L81.1002 357.799L80.1602 355.739L79.7002 355.139L79.0302 354.859L79.1402 352.919L77.7902 352.949L76.9202 352.129L77.6002 351.219L78.6502 351.019L79.3902 351.639L79.2802 352.469L80.3402 352.559L81.4702 350.499L80.9802 349.399L78.3102 348.619L77.4702 349.289L77.2502 350.479L76.3202 351.819L76.4702 352.359L75.7702 353.829L75.5302 353.799L75.3702 354.779L75.6302 356.099L76.4302 358.159L77.5002 359.139L78.3902 359.369L77.8702 361.129L76.8402 361.869L76.2202 361.379L75.4602 361.669L75.2202 361.379L75.2802 360.559L74.3202 359.709L72.2002 359.729L71.3402 359.359L69.4802 359.769L69.3002 358.289L68.6602 358.059L69.3802 357.509L67.8402 356.029L68.3802 355.369L68.6402 355.849L69.6702 356.359L70.4302 355.819ZM75.0702 377.779L76.4902 378.409L76.4302 378.739L77.8002 379.109L78.4702 379.739L78.0902 381.499L76.7802 382.819L75.5402 383.119L73.8502 382.839L73.5902 382.049L73.3702 382.229L73.3802 381.539L72.9302 380.959L72.6602 379.819L72.7002 379.349L73.6402 379.269L74.3802 378.359L74.3902 377.889L74.9402 377.979L75.0502 377.609L75.0702 377.779ZM83.9302 375.109L83.7502 373.049L84.5702 371.749L84.8702 371.759L85.0202 370.419L86.0802 369.149L86.5902 370.289L86.3502 370.849L86.5102 372.429L86.0002 373.149L86.0802 374.299L85.6002 374.929L85.6402 375.399L84.9502 375.819L84.2102 377.339L84.3502 377.619L84.1302 377.869L84.5602 378.389L84.3302 378.859L84.6002 379.209L84.2702 379.329L84.2602 379.789L83.4502 379.779L82.4502 380.459L82.1502 379.879L82.3202 378.999L81.9802 377.649L82.4602 377.659L83.9302 375.109ZM59.8002 350.759L59.0302 351.229L58.6202 350.939L58.4902 350.379L58.8602 350.169L59.2502 349.049L60.5702 348.559L61.0002 347.319L61.3602 347.489L61.3102 347.979L60.6802 349.129L60.0802 349.309L60.1902 349.719L59.8102 350.129L60.0702 350.449L59.8002 350.759ZM61.9602 346.259L61.6402 345.699L61.9902 345.229L62.5302 345.309L62.9102 345.799L63.7602 345.609L63.8802 345.989L63.8502 346.589L62.9402 346.889L62.4302 346.619L62.5102 346.289L62.1102 345.959L61.9602 346.259ZM69.7802 377.619L70.4702 378.109L70.4602 378.369L70.0602 378.299L69.3902 378.689L69.0102 378.239L69.0902 377.759L68.5902 377.889L68.0602 377.139L69.7802 377.619Z" fill="#27272A"/>
<path d="M171.149 270.899L171.319 270.369L171.689 270.159L171.399 268.899L170.429 268.409L169.569 268.589L169.529 267.849L169.309 267.789L168.499 267.749L168.079 268.109L167.519 267.869L167.769 267.319L166.909 266.489L166.889 265.719L165.869 265.689L165.099 266.159L163.779 265.019L162.289 264.409L162.269 263.149L162.639 262.149L163.779 262.699L164.689 262.179L164.699 259.549L164.369 259.009L163.039 259.669L162.319 259.489L162.109 258.879L161.249 258.079L161.229 256.059L161.489 256.359L162.459 256.339L163.049 256.039L163.499 255.259L164.309 255.319L166.229 253.969L168.119 253.369L169.199 254.049L169.859 255.249L168.789 256.259L168.599 256.999L167.509 258.319L167.569 258.919L167.869 258.909L168.459 257.939L169.069 258.279L169.199 258.449L168.559 258.999L169.909 259.609L170.159 259.279L170.299 260.659L170.779 260.179L171.619 260.389L171.669 259.879L170.409 259.089L171.259 258.409L172.189 258.299L172.339 257.719L172.689 257.709L172.699 258.279L173.109 258.529L172.699 259.419L173.219 259.839L172.929 260.849L174.239 262.059L174.369 262.929L176.099 263.119L177.599 263.709L178.969 263.449L180.149 265.289L180.569 265.279L180.189 266.719L180.619 268.829L180.309 270.569L179.969 270.819L180.259 271.989L181.149 273.499L180.909 274.569L181.619 275.039L182.349 274.659L182.479 275.539L182.789 275.489L183.089 275.859L183.489 275.709L184.099 276.309L183.839 276.569L183.989 276.979L184.439 278.179L184.099 278.929L183.519 278.849L183.029 278.179L182.039 278.169L182.119 277.809L181.379 278.939L180.649 279.019L178.729 278.499L178.209 277.279L178.489 276.659L177.469 275.509L177.159 274.449L175.919 273.299V272.679L175.169 272.659L174.909 273.339L175.289 273.759L174.499 274.019L173.809 273.289L173.559 273.399L173.489 272.239L171.329 271.639L171.149 270.899Z" fill="#27272A"/>
<path d="M197.24 288.869L197.05 288.999L197.71 287.799L197.14 287.469L196.48 288.879L195.38 289.619L195.01 289.669L194.74 288.879L194.46 288.969L194.23 289.809L194.14 289.119L193.44 289.109L193.72 290.049L193.5 290.289L190.55 291.009L190.14 290.899L189.5 291.449L188.95 292.459L189.3 293.069L189.72 293.009L189.37 293.699L188.76 293.799L188.39 293.259L187.98 293.369L188.16 293.689L187.46 293.929L187.64 294.249L188.32 294.149L188.33 294.829L189.05 295.199L188.88 296.399L188.22 296.489L187.44 297.619L186.5 297.799L186.09 298.459L185.48 298.429L184.42 300.309L183.7 302.309L182.41 302.039L180.71 300.099L180.78 298.179L181.88 296.459L183.09 296.069L183.92 294.949L185.54 295.199L185.4 293.869L185.64 293.599L185.76 291.849L185.39 291.169L186.12 289.809L185.43 288.659L186.1 288.299L184.94 286.449L185.44 285.499L187.62 285.179L188.01 284.239L187.72 283.279L187.07 283.539L186.61 282.529L185.79 282.799L184.75 282.289L184.49 281.879L184.93 280.879L184.88 280.279L185.26 279.759L184.46 278.189L184.01 276.979L185.35 276.429L185.28 275.919L186.05 275.289L185.97 275.039L185.35 274.989L185.28 274.739L185.75 274.349L186.07 274.729L187.09 274.709L188.43 275.369L190.76 274.239L190.97 273.319L191.76 272.219L191.8 270.839L192.53 268.339L191.82 267.609L191.74 266.759L193.95 265.809L195.65 268.299L196.73 268.419L197.05 269.629L198.02 271.199L197.26 271.399L196.34 272.089L195.98 273.109L196.24 274.229L194.31 277.179L193.75 278.809L193.81 279.469L194.48 279.759L194.1 281.089L196.2 281.699L196.48 282.379L197.76 282.849L198.84 283.659L200.02 283.689L200.24 284.339L200.8 284.469L200.59 284.749L200.75 285.029L201.46 284.899L201.74 285.189L201.82 285.919L200.69 286.589L200.8 286.919L201.43 287.059L200.8 287.769L201.09 288.239L200.63 289.509L199.66 289.779L198.29 289.309L199.37 289.149L199.91 289.419L199.98 288.769L199.5 288.649L199.23 288.849L197.77 288.509L197.24 288.869Z" fill="#27272A"/>
<path d="M283.29 189.889L282.88 190.599L283.2 190.849L283.54 190.699L283.72 191.349L282.46 192.099L280.75 195.719L280.35 199.419L280.67 201.369L279.98 201.189L279.26 201.459L279.29 203.629L279.16 203.849L277.58 203.789L278.05 204.179L277.9 204.339L276.69 204.069L276.06 203.569L275.78 202.819L275.96 201.679L275.4 201.219L274.58 200.939L271.93 201.209L271.56 200.119L270.42 199.429L269.29 199.999L267.9 199.339L267.84 197.359L269.56 197.349L270.55 196.799L270.74 195.779L271.85 194.199L271.62 192.969L271.78 191.949L272.83 190.629L272.67 190.029L273.76 188.889L274.37 187.289L274.17 186.589L273.57 186.199L273.3 185.289L273.68 184.639L273.65 184.099L273.04 182.729L273.14 182.499L273.8 182.849L274.2 182.749L274.63 181.599L274.41 180.629L275.09 179.529L274.26 179.079L274.07 178.019L273.01 176.999L273.24 176.649L273.51 176.829L275.27 176.469L276.91 174.899L277.62 174.729L278.57 174.589L279.79 175.499L281.23 175.979L281.78 176.789L283.99 176.539L284.71 176.739L284.96 177.239L284.37 177.789L284.84 178.879L286.61 179.889L287.13 179.709L287.3 179.009L288.2 178.139L290.65 179.139L291.15 177.199L291.05 176.689L291.73 175.989L291.62 174.209L291.86 173.689L293.3 173.819L294.47 174.309L295.32 177.159L294.94 177.039L294.43 176.219L293.74 176.419L293.65 178.089L292.29 178.929L292.14 179.489L293.16 180.169L293.11 181.379L292.4 180.739L291.39 181.679L290.79 181.859L290.76 182.579L292.48 182.789L292.36 183.469L291.64 184.109L291.17 184.159L291.2 184.649L291.65 184.849L291.81 185.389L292.29 185.219L292.9 185.579L292.61 186.529L292.14 185.879L291.78 185.989V187.639L290.85 187.619L291.21 187.939L291.33 188.879L292.66 188.719L292.69 189.009L292.03 189.129L292.72 190.929L292.38 191.909L290.92 190.849L291.18 190.329L290.25 190.059L290.51 189.609L291.08 189.389L290.54 188.749L289.41 189.129L289.24 188.469L288.97 188.359L288 188.299L286.44 188.749L285.19 189.589L285.31 190.509L284.77 190.679L284.7 189.299L283.78 189.179L283.27 189.489L283.29 189.889Z" fill="#27272A"/>
<path d="M94.9104 341.459L93.9104 344.839L93.7604 346.289L94.5904 347.459L94.0304 349.019L94.0904 351.039L93.3004 351.499L92.4004 353.589L92.6404 354.389L92.0904 354.729L92.2804 355.689L91.5004 356.419L91.8404 357.129L91.3304 357.159L90.8104 356.699L89.9304 356.779L89.2504 355.269L88.2004 355.009L88.3204 354.289L88.9404 353.629L88.7504 352.789L89.0004 352.169L88.7004 351.249L88.2304 350.959L87.2704 351.069L86.5604 350.429L86.0604 351.009L85.5104 350.039L85.3504 348.469L84.5604 348.279L84.7404 347.669L83.6604 347.539L83.3604 347.179L82.7104 347.079L82.5404 346.199L82.7404 346.129L82.8604 344.869L82.1204 344.019L81.0404 343.669L80.6204 342.249L79.8004 341.459L79.1504 341.229L79.6304 340.229L82.2004 340.279L83.2004 339.569L84.0504 339.919L84.4504 339.789L85.1504 338.599L86.2604 338.959L87.1404 338.849L86.9704 337.939L85.8204 336.599L86.0204 336.009L86.5804 335.979L87.2104 334.949L86.4504 334.269L86.2604 333.119L85.8204 333.029L85.4004 332.349L85.1504 331.219L85.4004 329.839L85.8004 329.669L86.0904 328.949L86.8004 329.159L87.2604 328.819L87.5104 327.409L87.8704 326.869H88.4604L88.6604 325.939L89.6304 325.299L89.6604 324.399L90.2204 323.399L91.4804 323.239L91.9604 323.819L92.3404 323.829L94.3604 323.129L95.1904 323.989L95.0104 324.459L95.2004 324.749L96.1004 325.049L96.6204 324.609L98.8504 324.629L99.3404 324.049L99.4904 323.309L100.29 323.159L101.93 323.779L101.67 325.339L102.23 325.349L102 325.869L100.44 326.839L99.8504 328.509L98.7704 329.039L98.3704 329.909L98.6004 330.539L99.3304 331.069L98.6704 331.609L97.7704 331.779L97.9604 332.329L98.5504 332.679L97.6304 333.039L96.4604 335.819L94.9104 341.459Z" fill="#27272A"/>
<path d="M227.09 219.259L228.94 218.039L231.5 215.399L233.81 214.099L236.1 210.249L236.94 209.669L237.62 208.489L239 203.879L239.91 202.779L243.98 199.849L246.36 199.219L248.07 198.109L249.82 196.229L251.06 194.229L251.47 192.639L251.6 188.759L253.45 185.009L255.26 185.969L256.74 186.289L256.98 186.579L256.58 188.569L257.38 189.699L259.22 190.179L260.37 191.409L259.58 192.999L258.21 193.859L256.63 193.639L256.11 194.459L256.27 195.769L255.93 196.589L256.28 197.349L255.59 197.859L255 201.029L255.66 202.189L256.32 202.509L256.77 202.379L257.22 203.149L255.64 204.859L254.93 206.159L255.06 206.399L253.53 207.439L253.5 208.169L253.92 209.199L253.83 210.009L254.21 210.829L253.73 211.059L252.47 210.839L252.1 211.079L251.71 210.759L251.24 210.799L250.83 210.959L250.51 212.149L249.83 211.909L249.28 212.199L247.13 212.439L246.56 213.359L247.23 213.919L247.09 215.109L246.89 216.269L245.92 217.669L246.51 218.469L247.19 218.629L247.66 219.559L247.31 220.839L247.73 222.229L247.51 223.009L247.62 224.349L247.38 224.769L247.15 224.429L246.23 224.359L246.12 223.599L244.58 222.049L244.46 223.009L243.64 223.739L242.01 224.019L242.28 225.949L242.18 226.199L241.34 226.099L241.05 227.049L241.3 227.489L239.81 228.109L239.16 228.079L239.27 229.079L238.48 229.749L237.28 229.309L236.92 229.939L236.67 229.779L236.55 229.299L236.17 229.049L236.69 228.199L236.46 227.739L236.6 227.009L235.62 226.559L234.59 225.469L234.55 223.919L234.13 222.979L233.32 222.749L230.76 223.559L230.03 225.119L228.84 225.649L228.58 227.299L228.33 227.339L228.04 226.709L227.19 226.649L226.18 227.309L224.94 227.329L224.01 228.389L223.06 227.699L223.61 226.409L223.24 225.849L221.38 225.459L220.37 225.549L220.45 226.839L219.67 228.149L218.3 229.199L217.71 227.519V226.749L217.32 226.149L217.29 224.959L216.47 224.709L215.77 223.899L221.19 221.919L223 220.589L223.86 220.289L224.78 219.189L225.89 219.469L227.09 219.259ZM232.09 194.489L231.5 195.749L231.69 196.819L232.39 197.119L234 196.469L234.2 196.719L232.78 200.649L230.03 202.879L228.93 202.939L227.92 203.549L227.18 203.399L226.97 202.929L228.28 202.359L228.62 201.519L228.52 200.669L229.63 199.669L229.86 198.779L229.61 199.189L229.09 198.609L228.48 198.509L227.92 199.559L227.51 199.319L227.52 198.439L227.29 198.289L227.64 197.939L227.67 196.569L228.65 195.319L229.35 193.729L230.13 193.349L230.81 192.359L231.52 192.179L231.98 190.639L233.07 190.379L232.63 193.589L232.09 194.489Z" fill="#27272A"/>
<path d="M214.33 265.089L214.32 264.559L215.16 263.909L214.9 262.639L215.77 262.349L215.06 261.369L215.71 260.669V259.759L215.14 259.219L214.07 259.539L213.76 258.989L213.83 257.889L213.44 257.439L213.87 256.159L213.09 255.459L212.29 253.669L211.06 253.299L211.01 252.789L209.97 252.779L209.68 252.389L209.79 251.849L210.38 251.599L210.73 250.539L211.88 250.189L212.21 250.519L212.63 250.449L213.15 249.389L213.59 249.289L213.96 248.369L214.96 247.609L215.35 246.039L214.63 245.789L214.17 245.289L214.18 244.479L214.93 243.769L214.98 243.249L214.6 242.699L215.99 240.889L216.08 240.109L215.99 239.579L214.96 238.919L214.83 238.409L215.73 237.549L216.15 236.739L216.13 235.989L216.52 235.459L217.13 235.289L217.01 234.799L216.8 234.839L216.91 234.069L218.09 233.369L218.29 229.189L219.66 228.139L220.44 226.829L220.36 225.539L221.37 225.449L223.23 225.839L223.6 226.399L223.05 227.699L224 228.389L224.93 227.329L226.17 227.299L227.18 226.649L228.03 226.709L228.32 227.329L228.56 227.289L228.82 225.639L230.01 225.109L230.74 223.539L233.31 222.729L234.12 222.959L234.54 223.899L234.58 225.449L235.61 226.539L236.59 226.989L236.45 227.719L236.68 228.169L236.16 229.029L236.54 229.269L236.66 229.749L235.11 230.579L233.32 230.939L233.31 232.029L232.35 232.189L231.39 233.369L231.41 234.359L230.81 236.019L230.87 237.319L232.12 238.059L232.55 238.129L232.76 237.819L233.64 238.069L234.08 237.669L234.78 237.569L235.61 237.819L235.9 238.969L235.83 240.449L234.8 241.129L235.03 242.239L235.45 242.679L235.42 243.489L234.97 243.969L234.51 243.639L234.35 243.809L234.79 244.569L235.44 244.649L235.72 245.319L235.39 245.669L235.77 247.439L236.38 247.629L236.74 248.149L237.1 248.059L237 248.519L237.52 249.569L237.32 250.089L236.92 250.079L236.19 251.019L235.22 251.029L234.68 249.889L232.92 249.859L232.7 250.269L232.22 250.359L231.74 249.829L231.75 249.159L230.32 248.579L228.55 251.289L227.83 250.669L227.63 250.789L226.66 252.759L227.54 253.619L226.54 254.719L227.27 256.489L226.69 258.129L226.33 257.989L225.77 258.639L226.1 258.899L225.69 259.459L226.11 260.769L225.37 261.029V261.699L225.9 262.369L225.76 263.089L224.11 263.719L222.9 264.729L221.62 265.369L221.41 265.799L220.9 265.809L220.44 266.739L219.37 266.849L218.53 267.109L218.31 266.719L216.76 266.419L215.9 266.979L214.65 267.239V266.729L214.02 265.919L214.33 265.089Z" fill="#27272A"/>
<path d="M184.439 278.179L185.239 279.749L184.859 280.269L184.909 280.859L184.479 281.869L184.739 282.279L185.769 282.779L186.589 282.509L187.059 283.519L187.709 283.249L187.999 284.209L187.609 285.159L185.429 285.479L184.929 286.429L186.079 288.279L185.419 288.639L186.109 289.799L185.389 291.159L185.759 291.839L185.629 293.589L185.389 293.859L185.529 295.189L183.909 294.939L183.089 296.049L181.879 296.439L180.779 298.159L178.769 298.499L178.109 298.089L177.449 298.079L176.299 298.759L176.079 298.189L175.709 298.059L176.419 296.229L176.139 295.719L175.559 295.509L175.619 294.989L174.479 294.029L174.599 293.489L176.099 292.039L176.479 291.459L176.469 290.749L177.009 290.479L177.819 290.849L178.209 290.249L177.999 289.599L177.109 289.099L176.909 287.379L176.509 286.699L177.119 286.329L177.309 285.229L177.229 284.059L176.699 282.809L177.269 281.909L177.059 281.459L176.679 281.389L177.189 279.019L177.699 278.579L177.859 277.219L178.209 277.279L178.729 278.499L180.649 279.019L181.379 278.939L182.119 277.809L182.039 278.169L183.029 278.179L183.519 278.849L184.099 278.929L184.439 278.179Z" fill="#27272A"/>
<path d="M70.3596 322.239L71.3096 322.099L71.7996 322.459L72.6796 324.169V325.269L72.0696 326.069L72.2996 326.379L72.0896 326.869L70.4796 327.469L69.8196 328.319L68.5496 328.789L68.5796 328.109L67.7796 327.619L67.8596 326.749L69.2696 325.629L69.3296 325.019L68.8596 324.769L69.0496 324.349L68.7896 324.059L66.9296 324.029L65.8496 324.739L64.3196 324.649L64.1296 325.639L63.1896 327.129L62.2296 327.699L61.3896 328.799L60.0796 329.279L60.3196 328.739L60.9096 328.499L61.9196 325.449L60.6296 323.919L60.8196 323.469L60.2596 323.379L60.0796 323.789L59.1796 322.919L58.5796 321.159L57.9496 320.339L57.8796 319.769L58.3396 319.039L58.5696 317.459L59.5396 317.189L60.0996 317.909L59.9496 319.079L60.3396 319.169L60.5896 318.749L61.5996 319.369L61.6196 320.999L61.2396 320.989L61.3896 321.709L61.0696 322.369L61.6596 322.429L62.2496 323.189L63.2196 322.059L64.8496 323.089L65.4196 322.839L63.8896 321.039L64.2796 319.569L63.8996 318.629L62.4996 317.689L60.9396 317.809L60.1096 317.419L59.7896 315.409L59.3396 315.499L59.5596 316.309L58.6796 316.899L58.4896 316.179L59.1296 316.099L58.8996 315.409L58.0796 315.349L57.7396 314.669L57.0096 314.179L56.4596 314.189L56.5896 313.299L57.1696 312.879L56.9096 311.459L57.3096 310.319L57.8996 310.779L58.7996 309.899L59.0896 310.169L58.7396 310.699L58.9296 310.969L59.6796 311.119L60.3396 310.659L60.6796 310.979L61.0096 310.529L61.2196 311.369L60.6296 312.359L61.6796 313.739L61.7096 314.999L63.0896 315.579L64.1096 315.479L64.4696 316.349L64.3696 316.769L63.8496 316.869L63.7996 317.229L64.9496 317.999L66.4996 319.649L69.2996 320.329L69.2496 320.929L68.5696 321.269L67.7696 322.199L68.6196 322.939L70.3596 322.239ZM52.0396 287.939L52.3896 286.799L51.8296 287.509L50.5096 287.459L50.0096 287.159L50.5296 287.019L50.8096 286.579L50.9396 284.589L51.6096 283.239L52.0196 283.059L51.9996 282.639L51.2196 282.529L51.1896 282.159L51.5596 281.719L51.8596 280.289L53.2996 280.219L53.6896 279.259L54.3996 278.909L55.0496 279.199L55.3596 279.809L54.8096 281.269L54.8796 282.509L54.1196 283.719L52.8196 284.949L53.3896 285.919L53.1296 287.039L53.6196 287.099L53.7296 287.389L52.8496 288.129L52.8796 288.529L53.2596 288.689L52.5896 289.319L51.9796 289.189L51.0696 292.649L49.6996 293.739L49.4996 293.289L48.7796 293.299L49.5396 287.859L50.0196 288.159L49.8996 288.769L50.7496 288.489L50.7696 288.099L52.0396 287.939ZM42.4096 325.289L42.5496 326.479L43.4896 327.299L43.4096 327.629L41.9596 327.729L41.7396 327.279L40.9996 327.529L40.8496 328.109L41.3596 328.379L41.4696 328.769L41.0396 329.209L40.6596 329.079L40.3096 328.409L38.7096 328.799L37.5996 328.289L37.8696 327.469L38.0696 327.769L39.0296 327.359L38.5896 326.689L38.4196 324.789L38.7496 324.339L39.2196 324.379L39.7596 325.059L41.7596 323.929L41.7496 324.399L42.4096 325.289ZM47.5896 318.099L47.2796 319.649L47.9296 319.609L48.7996 319.029L49.1196 319.169L49.1496 319.739L47.4396 321.229L47.5196 322.509L46.8296 322.449L46.6996 323.539L46.3796 323.379L46.6896 321.839L46.2296 320.529L45.9596 320.829L45.3596 320.559L45.7696 319.789L46.4696 319.809L46.3496 318.599L47.5396 317.359L47.3796 316.399L47.7596 315.409L47.9196 316.749L47.5896 318.099ZM55.8596 310.349L56.1696 310.449L56.2296 310.109L55.6796 310.119L55.8296 309.739L56.4596 309.659L56.6196 310.319L56.4296 310.579L56.7496 310.889L56.2796 311.099L56.2496 311.519L55.7996 311.619L56.0196 311.979L54.6696 314.259L52.8196 315.299L52.4096 315.019L52.4796 314.479L52.8596 314.919L53.2996 314.889L53.0196 314.009L53.9396 313.489L53.4896 312.899L54.2596 311.639L55.5496 310.339L55.8596 310.349ZM42.7496 322.889L43.5796 323.409L43.1496 324.769L42.3996 324.279L42.3196 322.999L42.7496 322.889ZM45.6896 322.509L45.1596 322.249L44.7596 321.589L45.4696 321.689L45.0996 321.149L45.2996 320.819L46.1996 321.639L46.0896 322.869L45.6896 322.509ZM48.3296 312.319L48.3096 312.739L48.6296 312.879L48.0696 313.159L48.1096 313.399L46.9696 313.159L46.9096 312.889L47.3496 312.509L47.9296 312.479L47.9796 312.159L48.3296 312.319ZM44.3496 323.909L44.1896 323.499L43.8396 323.419L43.8196 322.999L42.9996 322.469L43.3296 322.109L43.8996 322.269L44.1596 323.009L44.5296 322.199L44.7096 322.269L44.8396 322.699L44.3996 323.239L44.5996 323.529L44.3496 323.909ZM53.5496 310.509L54.0996 308.849V310.939L53.3796 310.839L53.5496 310.509ZM56.8796 307.949L56.4296 308.239L55.3296 308.179L56.4996 307.249L57.0396 307.599L56.8796 307.949ZM46.7396 314.849L46.5096 314.979L46.1196 314.669L46.4396 314.129L46.8696 314.399L47.4596 314.219L47.2796 314.899L46.7396 314.849Z" fill="#27272A"/>
<path d="M22.1599 466.989L22.9899 466.179L25.0999 465.289L25.4799 464.539L24.7399 463.939L23.7399 463.839L23.4099 463.009L23.7199 462.659L23.3399 462.129L23.3999 461.529L23.9199 461.799L25.0299 461.629L25.7999 461.929L25.9899 462.129L25.6499 462.839L25.9699 463.319L26.8899 463.209L27.8299 462.609L28.1399 461.709L28.9599 461.319L28.9399 461.009L30.3799 459.639L30.7999 458.639L30.7099 458.049L30.9599 457.929L31.8699 458.639L32.2599 460.679L30.4999 463.299L28.7399 463.329L28.7899 464.019L28.2699 463.919L28.8199 464.709L27.6699 465.429L26.5199 465.049L26.8499 465.719L25.1399 466.879L24.8099 467.549L23.2199 467.099L22.4699 467.669L22.6799 468.249L23.3799 468.779L23.3099 469.259L24.2999 470.319L24.2499 470.669L23.2399 469.779L22.5699 469.919L21.2499 472.709L21.4499 473.009L22.1899 472.909L22.4699 473.469L20.8299 474.519L20.3799 475.149L19.4299 475.489L19.0399 475.279L18.6499 472.769L20.0499 471.129L21.0099 470.639L21.0599 470.379L20.1799 468.279L20.2099 467.639L20.3699 467.489L20.6099 467.869L22.1599 466.989ZM57.2399 424.859L56.1399 426.289L55.0699 426.689L54.5699 426.499L54.2899 427.629L54.6699 428.379L53.5999 429.119L53.4199 429.719L53.0699 429.419L52.7799 429.719L52.9899 430.729L51.3499 429.799L51.3799 429.299L50.9299 428.429L49.0399 428.129L48.1899 427.469L49.9899 427.019L50.1699 426.829L49.7899 426.369L50.7599 425.809L51.5199 425.769L52.2399 424.889L52.7699 425.219L53.3199 424.509L54.3599 424.629L54.6599 423.889L54.9599 424.199L55.5199 424.189L55.7499 423.289L56.2399 422.769L56.7499 422.919L57.7899 422.459L57.9499 423.409L57.7299 423.669L58.0999 423.859L58.8199 422.859L58.2499 421.929L59.1399 421.309L59.2499 422.219L59.7299 422.549L59.6599 423.549L58.6499 424.279L57.6299 424.189L57.2399 424.859ZM44.9599 436.279L44.9099 437.149L46.2899 438.369L45.3199 440.419L44.2899 440.609L43.1699 439.239L43.6799 438.339L43.1399 436.769L43.5599 435.449L44.9999 435.489L44.9599 436.279ZM38.2099 447.179L37.6199 447.729L36.8199 447.959L36.2499 447.439L36.1099 446.629L36.3199 446.259L37.5499 446.429L39.4399 445.469L39.8199 445.509L38.2099 447.179ZM49.8899 429.569L50.2799 429.749L50.5799 429.229L51.1899 430.319L52.3099 430.479L52.5199 430.809L52.2399 431.389L51.8599 431.569L51.3099 431.059L51.1299 431.709L50.4199 430.879L49.7599 431.389L49.8599 429.989L49.2299 429.609L48.9599 428.919L49.6499 428.629L49.8399 428.849L49.5399 429.079L49.8899 429.569ZM1.56992 469.989L0.679924 469.489L0.419922 468.989L1.86992 468.609L2.65992 469.529L2.27992 470.019L2.41992 470.729L1.75992 470.429L1.56992 469.989ZM65.9199 424.909L64.7199 426.779L64.1399 426.999L63.6499 426.619L63.6999 425.889L64.3099 425.819L65.5099 424.679L65.9199 424.909ZM24.8399 454.249L25.7399 453.219L26.2399 453.129L25.6499 454.229L24.1899 455.399L24.8399 454.249ZM22.1999 461.039L22.4399 461.579L21.1399 461.619L20.8799 461.389L21.0899 460.969L22.1999 461.039ZM13.1699 472.169L13.4599 472.409V472.959L13.1999 473.169L13.2899 473.669L12.8399 474.079L12.7799 473.099L13.1699 472.169ZM24.5999 456.169L24.9899 456.619L24.9199 457.089L24.6399 457.169L24.0799 456.579L24.5999 456.169ZM12.2599 471.659L12.6799 471.869L12.1999 472.329L11.7099 472.179L12.2599 471.659Z" fill="#27272A"/>
<path d="M172.14 283.279L172.51 282.479L171.87 282.339L171.84 281.529L172.14 281.019L172.88 280.589L172.42 280.359L172.96 279.149L172.81 277.719L172.07 276.479L172.54 274.439L172.11 274.189L173.02 273.679L172.06 273.539L170.66 272.729L170.9 272.369L170.82 271.399L170.42 271.159L170.71 270.849L171.14 270.899L171.33 271.639L173.49 272.239L173.56 273.399L173.81 273.289L174.5 274.019L175.29 273.759L174.91 273.339L175.17 272.659L175.92 272.679V273.289L177.16 274.439L177.46 275.499L178.49 276.659L178.2 277.279L177.85 277.219L177.7 278.579L177.19 279.019L176.68 281.389L177.06 281.469L177.27 281.919L176.7 282.819L177.23 284.079L177.31 285.239L177.12 286.339L176.51 286.709L175.22 286.889L174.02 287.689L172.4 287.549L170.34 288.289L168.71 288.379L167.48 289.169L166.44 289.349L166.01 289.309L165.88 288.429L165.61 288.339L168.18 287.489L170.02 285.809L170.99 284.319L172.14 283.279Z" fill="#27272A"/>
<path d="M144.669 282.209L143.259 283.299L142.789 285.019L140.829 284.479L140.309 284.819L138.469 284.479L137.849 283.699L136.249 283.989L135.979 284.299L136.219 284.519L133.999 285.279L133.309 284.439L133.189 282.699L131.979 281.049L131.989 279.669L131.579 277.769L131.869 276.649L130.269 274.649L130.279 273.049L130.739 271.839L129.729 270.619L130.089 270.369L130.329 269.529L130.709 269.749L132.519 269.119L132.189 267.929L132.459 267.549L133.239 267.879L134.449 267.389L134.659 266.889L134.449 266.409L135.409 266.159L136.189 263.729L137.889 264.359L139.159 264.369L140.229 265.109L140.749 266.019L141.409 265.519L141.609 264.979L142.769 264.489L142.799 264.009L144.299 263.579L144.149 264.469L144.339 264.639L145.129 264.849L146.069 264.679L146.759 265.269L146.979 265.689L146.859 266.299L147.349 266.609L147.159 267.319L147.669 267.949L149.149 267.029L149.689 267.299L150.379 267.169L151.769 266.009L152.069 266.239L151.629 267.039L152.259 267.699L152.179 268.479L151.509 268.409L151.269 268.669L151.029 269.769L150.439 270.019L150.379 270.949L149.459 271.489L149.659 272.079L149.509 272.989L149.159 273.309L149.839 274.159L149.139 275.469L149.319 275.939L150.399 276.899L150.939 278.269L150.439 278.599L150.239 278.319L149.579 278.309L147.819 280.289L147.449 281.179L146.469 281.769L145.189 281.829L144.669 282.209ZM149.929 285.049L149.559 285.109L150.239 284.399L149.379 284.599L148.709 285.889L148.479 285.299L148.849 284.809L148.739 284.569L148.239 284.279L147.069 284.779L146.859 284.529L147.309 283.669L150.989 282.319L150.869 282.789L151.169 283.129L150.769 285.379L150.369 284.859L149.929 285.049Z" fill="#27272A"/>
<path d="M81.9103 316.829L82.2603 316.579L82.7403 315.199L81.9003 314.469L81.9303 313.849L81.5703 313.659L81.6903 313.279L82.2103 313.019L82.3503 312.379L82.0603 311.429L81.7603 311.269L82.2303 310.579L82.7203 310.449L83.0203 308.799L84.6303 307.419L85.5603 307.189L86.5303 307.459L88.4403 307.349L88.3103 306.889L88.7003 306.369L88.4003 305.569L88.5503 305.199L88.8703 304.769L90.6503 305.679L93.2203 305.799L93.3103 305.349L94.3103 304.449L94.8003 303.489L96.4803 302.989L98.0803 303.799L99.3303 305.469L99.6003 306.549L99.5103 308.339L99.1903 308.489L98.7903 309.699L97.4203 309.299L97.2403 309.589L97.7403 310.239L97.6203 310.459L96.7103 310.559L96.5003 311.149L95.7703 311.039L95.5303 310.619L94.8203 310.769L94.7003 311.479L95.0503 312.979L96.5503 313.489L98.4303 312.679L99.7703 313.639L102.73 312.969L101.37 314.999L100.87 316.259L101.57 316.569L102.65 316.079L102.97 316.359L102.28 316.699L101.88 317.379L102.87 317.669L103.17 317.699L103.46 316.989L104.05 317.829L104.41 317.659L104.38 317.149L104.67 317.009L104.74 317.809L104.24 318.169L103.21 318.059L102.46 319.439L102.58 319.719L103.16 319.909L103.41 320.369L104.13 320.109L104.58 320.479L106.22 320.549L106.29 320.809L104.18 321.079L104.35 321.849L104.96 321.829L104.15 322.589L104.81 323.289L103.38 324.309L102.46 323.839L102.21 325.369L101.65 325.359L101.91 323.799L100.27 323.179L99.4703 323.329L99.3203 324.069L98.8303 324.649L96.6003 324.629L96.0803 325.069L95.1803 324.769L94.9903 324.479L95.1703 324.009L94.3403 323.149L92.3203 323.849L91.9403 323.839L91.4603 323.259L90.0603 321.989L89.8503 319.719L89.2603 318.099L88.4003 317.319L88.2103 316.149L87.1703 315.059L85.7603 314.799L84.7403 315.359L84.6103 316.099L85.4403 317.309L85.2603 318.159L84.7703 318.789L84.3903 318.779L83.9903 318.149L83.3603 318.099L82.7603 317.309L81.8903 317.139L81.9103 316.829Z" fill="#27272A"/>
<path d="M61.3902 311.539L62.0602 312.499L62.2202 311.579L62.0302 311.389L62.7002 309.999L60.9502 308.659L61.4302 308.509L61.1702 308.169L61.4402 307.849L61.8302 307.989L62.1802 308.789L62.4602 308.569L61.9002 307.389L61.8702 307.069L62.4102 307.039L62.2102 306.159L62.8502 306.639L63.1702 306.599L63.1902 306.329L63.8702 306.299L63.9002 306.639L64.6402 307.269L64.0102 308.009L64.6202 308.549L65.7602 308.739L66.0402 308.579L65.9902 308.249L68.6202 308.329L69.3102 308.009L70.1702 308.249L70.6402 308.039L72.3402 309.109L73.1102 309.279L73.7302 309.989L74.7202 309.039L75.4602 308.789L75.8702 308.999L75.8502 311.249L75.3402 311.219L74.8302 312.079L72.9802 313.499L72.3902 314.539L72.2202 315.769L70.9102 315.759L70.7102 315.239L69.8302 314.659L69.6402 315.319L67.8502 316.759L69.6302 319.819L69.6702 320.229L69.2502 320.259L66.4502 319.579L64.9002 317.929L63.7502 317.159L63.8002 316.799L64.3202 316.699L64.4202 316.279L64.0602 315.409L63.0402 315.509L61.6602 314.929L61.6302 313.669L60.5802 312.289L61.1702 311.299L61.3902 311.539ZM59.7802 302.559L59.1702 302.529L58.7802 301.429L58.4102 301.929L58.2002 301.189L58.5402 300.689L58.3502 300.299L59.4102 298.959L60.7802 299.459L60.5202 300.309L61.0402 300.759L60.4702 301.049L61.2502 301.319L61.0802 301.859L59.9902 301.909L59.7802 302.559ZM60.0202 309.209L60.3902 308.209L61.1702 309.159L60.5602 309.099L60.4802 309.519L60.0002 309.749L59.7002 309.449L60.0202 309.209Z" fill="#27272A"/>
<path d="M191.73 266.759L191.8 267.609L192.51 268.339L191.78 270.839L191.74 272.219L190.96 273.319L190.75 274.239L188.41 275.369L187.08 274.709L186.06 274.719L185.73 274.339L185.26 274.729L185.33 274.989L185.95 275.029L186.03 275.289L185.26 275.909L185.33 276.429L183.99 276.979L183.84 276.569L184.1 276.309L183.49 275.709L183.09 275.859L182.79 275.489L182.48 275.539L182.35 274.659L181.62 275.039L180.91 274.569L181.15 273.499L180.26 271.989L179.97 270.819L180.31 270.569L180.62 268.829L180.19 266.719L180.57 265.279L180.15 265.289L178.97 263.449L179.42 262.709L179.79 262.609L179.85 262.109H180.5L180.85 262.509L181.42 262.229L182.46 259.469L183.23 260.239L183.69 260.139L184.15 259.259L185.44 259.139L185.79 258.069L186.89 258.389L187.03 257.639L186.2 255.879L186.51 255.209L187.18 255.079L188.99 256.009L189.25 257.079L189.91 257.149L189.79 258.749L190.57 259.039L190.88 258.539L191.43 259.249L191.19 260.139L191.82 260.779L191.73 261.779L192.26 262.629L191.71 263.069L191.67 264.409L191.35 264.929L191.33 265.859L191.01 266.069L191.73 266.759Z" fill="#27272A"/>
<path d="M110.76 270.559L111.04 269.769L112.27 268.839L112.35 268.169L112.85 267.499L115.36 265.699L116.78 265.159L117.34 264.649L117.75 263.869L117.88 262.259L116.92 261.869L117.02 261.499L118.14 261.039L118.64 261.339L119.49 261.169L119.6 260.959L118.98 260.609L120.42 260.309L120.66 259.989L122.79 259.479L123.79 259.519L123.72 258.869L124.89 258.989L125.3 258.029L126.23 257.389L127.14 258.449L128.22 258.279L128.63 257.949L130.79 258.269L129.58 258.569L129.17 259.079L129.66 260.069L130.8 260.749L130.64 263.189L130.22 263.809L130.49 265.439L127.39 266.819L127.41 267.109L128.02 267.239L128.25 267.929L127.36 268.629L127.19 270.169L126.61 269.949L125.19 270.369L124.21 269.579L123.42 270.199L122.27 269.499L121.87 269.569L119.47 272.899L118.28 273.149L117.43 274.149L117.81 274.619L118.5 274.829L118.51 275.699L116.75 275.839L115.28 276.899L113.65 276.769L113.4 276.359L112.99 276.499L113.06 276.749L112.55 277.179L112.03 276.759L110.79 276.889L110.58 277.329L110.18 276.849L109.39 276.739L109.08 277.879L107.63 278.739L107.33 279.219L107.88 279.559L107.18 280.589L106.97 282.369L106.34 283.049L105.74 283.229L105.44 283.869L105.93 284.499L105.12 284.949L104.64 285.659L104.49 285.969L104.92 286.859L103.8 288.439L103.11 287.809L102.17 288.509L101.12 288.609L100.25 287.749L100.08 286.979L100.63 285.439L98.7604 285.479L98.1504 283.829L98.8104 283.189L98.8304 282.369L99.2604 282.209L98.4304 279.669L99.5804 279.699L101.09 279.249L102.42 277.729L103.55 276.909L103.78 276.249L104.41 276.049L105.57 274.809L106.32 273.569L109.18 271.189L110.76 270.559ZM128.86 243.229L128.47 242.729L127.99 242.659L128.16 241.849L127.86 241.679L127.94 240.809L128.81 239.819L129.89 239.509L130.68 239.839L131.97 241.299L131.67 242.799L131.22 242.989L131.12 242.429L130.98 242.879L130.4 242.969L131 243.109L131.11 243.669L130.85 243.739L129.06 243.789L129.2 243.359L128.86 243.229ZM125.9 244.349L126.17 244.439L126.08 244.769L125.15 245.229L125.48 245.729L125.26 246.359L124.82 246.299L124.45 245.589L124.1 245.559L123.91 245.789L124.34 246.909L123.31 246.269L123.94 245.029L124.65 244.979L124.63 244.519L125.31 244.689L125.9 244.349ZM127.04 245.729L125.72 246.989L125.94 246.159L125.63 245.359L125.89 245.179L126.15 245.479L126.22 244.979L126.59 244.899L126.98 245.119L127.04 245.729ZM124.45 247.019L125.8 247.549L125.66 247.899L124.48 247.739L124.45 247.019Z" fill="#27272A"/>
<path d="M237.32 250.089L237.52 249.569L237 248.519L237.1 248.059L237.85 247.049L239.08 247.029L240 246.019L241.52 245.619L241.98 244.839L243.51 244.769L243.93 244.009L243.95 243.079L245.18 241.109L245.88 241.159L247.57 242.019L248.17 241.869L249.14 242.159L250 241.949L251.81 243.289L254.35 242.809L254.87 243.289L255.36 243.109L255.67 242.529L256.51 242.939L256.34 243.829L257.2 245.789L257.59 245.889L257.98 245.539L258.69 246.939L258.75 247.979L260.42 251.199L260.2 252.529L259.85 252.799L258.93 252.869L258.76 252.449L258.24 252.589L257.79 252.309L257.38 253.049L255.6 252.739L254.93 253.539L254.38 253.249L253.47 253.619L253.19 252.749L251.6 253.499L250.35 253.529L249.82 252.929L249.04 252.779L248.63 251.909L246.53 251.759L245.5 251.199L243.84 250.919L243.14 250.379L241.75 250.959L241.57 251.399L240.48 251.689L239.79 251.159L238.63 250.959L238.34 250.319L237.32 250.089Z" fill="#27272A"/>
<path d="M244.85 274.999L243.78 277.049L242.55 278.069L242.07 279.329L242.36 280.089L241.91 280.259L241.43 280.009L241.02 280.199L240.82 280.719L239.56 281.459L239.18 281.319L238.1 280.299L238.33 280.009L238.19 279.639L237.46 279.309L237.47 278.499L238.21 277.769L237.73 276.689L238 276.489L237.8 274.699L238.47 274.089L237.93 272.559L238.42 271.329L240.47 271.489L240.74 270.779L238.96 269.189L236.64 268.679L233.9 269.499L233 271.069L233.4 271.569L233.18 272.169L230.11 273.829L229.31 275.169L229.49 276.169L228.8 277.399L227.28 278.549L226.74 279.919L226.75 280.639L227.5 281.349L227.41 281.569L222.94 279.989L220.88 279.919L219.04 280.369L216.38 279.759L212.82 279.689L212.66 277.369L213.09 276.139L215.84 274.599L217.12 272.679L217.15 271.619L218.61 269.619L219.08 269.379L219 268.909L219.57 268.329L219.06 267.829L219.37 266.849L220.44 266.739L220.9 265.809L221.41 265.799L221.62 265.369L222.9 264.729L224.11 263.719L225.76 263.089L225.9 262.369L225.37 261.699V261.029L226.11 260.769L225.69 259.459L226.1 258.899L225.77 258.639L226.33 257.989L226.69 258.129L227.27 256.489L228.21 259.669L227.83 260.849L228.06 261.919L227.6 262.849L227.93 264.149L228.61 264.659L229.37 264.139L230.13 264.499L230.82 267.189L231.51 267.689L232.75 267.809L233.47 267.179L233.07 264.519L233.5 263.909L233.45 262.199L234.44 261.289L235.01 262.549L236.04 262.429L236.49 263.399L239.29 262.929L239.66 262.659L240.36 262.729L241.03 262.339L242.54 262.309L242.69 262.549L243.04 264.069L242.76 265.039L242.19 265.659L242.43 267.179L243.13 267.719L243.26 268.399L244.78 268.609L244.11 269.579L243.97 270.589L244.6 270.839L244.47 272.169L245.5 272.999L245.39 274.529L244.85 274.999Z" fill="#27272A"/>
<path d="M267.46 225.029L267.37 227.019L267.64 228.009L267.42 229.309L268.04 230.309L267.95 230.629L267 230.839L266.72 231.219L267.29 233.169L267.31 234.979L266.39 236.839L266.18 238.009L265.51 238.209L265.23 237.819L264.78 237.839L264.37 238.309L263.69 238.069L263.64 238.589L263.38 238.719L261.82 238.799L261.69 239.249L260.69 239.719L260.57 240.599L259.44 240.319L258.88 242.009L257.24 242.879L256.51 242.939L255.67 242.529L255.16 241.739L255.25 241.459L254.87 241.219L253.76 241.399L253.05 240.969L252.04 241.259L250.93 240.289L250.97 239.709L249.92 238.929L250.1 237.969L251.29 236.419L250.96 235.659L251.36 234.459L252.18 233.809L251.84 233.129L250.61 233.199L249.14 232.459L249.32 231.089L249.91 230.199L249.63 229.029L250.65 227.619L249.63 227.179L250.21 225.639L251.15 225.209L251.86 224.189L253.21 223.949L254.13 223.199L254.76 223.109L254.99 222.679L255.78 222.479L256.04 222.069L258.84 221.199L259.02 220.289L260.38 219.699L262.8 219.979L265.19 220.979L266.21 221.959L266.44 222.889L267.29 222.839L267.13 224.699L267.46 225.029Z" fill="#27272A"/>
<path d="M250.36 279.409L249.68 279.019L249.54 278.609L249.48 277.219L249.71 276.719L250.93 277.149L251.45 278.069L251.29 279.569L250.36 279.409ZM248.25 285.559L247.92 287.849L247.43 287.449L247.37 286.929L248.25 285.559ZM246.83 287.749L247.08 288.019L246.47 288.219L246.83 287.749ZM259.15 256.669L258.33 256.609L258.13 255.679L257.63 256.119L257.33 257.679L257.65 258.429L257.9 258.279L258.34 258.989L257.47 258.789L256.54 259.079L256.53 258.699L256.05 258.469L255.72 257.799L253.04 256.529L252.28 257.439L251.79 256.969L251.57 257.199L252.36 257.819L252.17 259.839L251.87 259.869L250.52 257.979L248.37 257.279L247.51 257.439L246.92 256.449L246.31 256.479L245.85 255.929L245.25 255.799L243.15 254.639L241.57 251.399L241.76 250.959L243.14 250.379L243.85 250.919L245.51 251.209L246.54 251.769L248.64 251.919L249.05 252.789L249.83 252.949L250.36 253.549L251.61 253.509L253.2 252.759L253.48 253.629L254.4 253.259L254.95 253.549L255.62 252.749L257.4 253.069L257.81 252.319L258.26 252.599L258.78 252.459L258.95 252.879L259.88 252.809L260.96 255.069L261.31 255.829L260.75 256.149L261.15 256.529L260.32 257.099L259.15 256.669ZM253.53 294.289L253.8 293.829L253.77 293.299L253.25 292.769L252.32 292.879L251.92 293.879L252.1 294.509L252.79 294.599L253.53 294.289ZM258.03 317.599L259 318.199L259.15 317.499L259.54 317.409L259.29 316.499L258.74 316.449L257.86 315.549L257.38 315.559L257.22 316.279L257.5 316.839L257.92 316.969L258.03 317.599ZM258.03 317.599L259 318.199L259.15 317.499L259.54 317.409L259.29 316.499L258.74 316.449L257.86 315.549L257.38 315.559L257.22 316.279L257.5 316.839L257.92 316.969L258.03 317.599Z" fill="#27272A"/>
<path d="M158.39 299.899L156.3 300.769L155.41 301.539L155.23 302.049L153.98 302.959L152.79 303.659L151.87 303.849L151.23 305.639L150.34 305.599L150.13 306.069L150.39 306.209L150.09 306.389L147.98 306.169L147.2 304.979L147.1 304.509L147.57 303.969L147.34 303.169L145.37 303.119L145.27 301.119L144.76 299.859L144.06 300.029L143.81 299.569L143.42 299.699L143 300.509L142.39 300.709L141.6 300.389L140.95 299.489L139.14 299.659L137.8 299.139L137.43 298.599L137.99 297.699V296.659L137.72 296.169L138.01 295.489L138.63 295.269L138.77 294.759L139.77 293.919L140.35 294.109L140.63 293.609L141.39 293.319L142.77 293.069L143.63 294.039H144.1L145.27 293.129L146.51 292.989L146.83 292.649L146.77 292.229L147.51 291.649L149.21 291.469L150.84 291.729L151.12 291.429L152.21 292.009L152.63 291.789L152.79 290.829L155.6 290.039V290.979L156.35 291.469L155.63 294.429L155.72 295.529L156.2 296.059L156.56 295.499L157.15 296.569L157.78 296.929L157.26 297.319L157.96 297.509L157.82 297.969L156.53 298.909L156.44 299.239L156.71 299.449L158.69 299.489L158.83 299.699L158.39 299.899Z" fill="#27272A"/>
<path d="M130.81 260.739L132.27 261.029L132.74 260.869L133.21 260.009L134.19 259.509L135.99 259.129L137.43 259.709L139.23 259.879L142.6 259.649L143.27 259.279L144.67 259.449L146.52 259.249L149.3 258.509L149.86 257.739L150.62 257.689L150.75 257.299L151.36 257.169L152.05 257.689L152.43 258.459L152.31 259.479L152.8 261.359L153.53 261.699L153.44 262.779L154.17 263.739L154.02 264.169L154.28 265.329L152.64 266.479L152.06 266.219L151.76 265.989L150.37 267.149L149.68 267.279L149.14 267.009L147.66 267.929L147.15 267.299L147.34 266.589L146.85 266.279L146.97 265.669L146.75 265.249L146.06 264.659L145.12 264.829L144.33 264.619L144.14 264.449L144.29 263.559L142.79 263.989L142.76 264.469L141.6 264.959L141.4 265.499L140.74 265.999L140.22 265.089L139.15 264.349L137.88 264.339L136.18 263.709L135.4 266.139L134.44 266.389L134.65 266.869L134.44 267.369L133.23 267.859L132.45 267.529L132.18 267.909L132.51 269.099L130.7 269.729L130.32 269.509L130.08 270.349L129.72 270.599L129.3 270.099L127.2 270.419V270.159L127.37 268.619L128.26 267.919L128.03 267.229L127.42 267.099L127.4 266.809L130.5 265.429L130.23 263.799L130.65 263.179L130.81 260.739Z" fill="#27272A"/>
<path d="M205.54 228.689L206.85 229.369L207.83 229.139L209.77 229.229L210.94 228.119L211.3 227.109L211.27 225.899L211.64 225.189L212.98 224.479L215.76 223.879L216.46 224.689L217.28 224.939L217.31 226.139L217.7 226.739V227.509L218.29 229.189L218.09 233.369L216.91 234.069L216.8 234.839L217.01 234.799L217.13 235.289L216.52 235.459L216.13 235.989L216.15 236.739L215.73 237.549L214.83 238.409L213.89 238.339L213.05 237.519L212.34 237.859L211.21 237.509L210.93 236.729L209.58 237.529L209.37 237.489L209.33 236.609L208.74 236.559L207.28 237.249L207.03 236.809L206.48 236.829L204.4 238.849L204.15 239.999L202.76 241.219L202.42 241.139L202.68 240.409L202.34 239.639L201.42 239.129L201.07 239.489L200.82 238.899L200.05 239.459L199.76 240.519L199.18 240.599L199.03 239.709L199.35 239.289L198.9 237.399L199.65 234.449L199.19 233.869L199 232.739L199.77 231.509L199.54 231.049L199.7 230.079L200.25 229.429L200.85 225.939L202.25 224.569L202.98 224.309L204.22 224.409L202.89 226.699L204.31 228.259L205 228.759L205.54 228.689Z" fill="#27272A"/>
<path d="M180.05 307.169L179.51 307.549L179.19 308.239L179.28 308.949L178.8 309.029L178.55 308.679L178.87 307.929L178.08 308.039L176.2 307.289L173.85 306.909L171.83 305.699L171.42 304.959L171.57 304.169L170.3 303.539L171.28 303.009L171.53 302.439L170.09 301.219L167.47 300.009L166.79 298.599L166.02 298.219L164.91 298.539L165.12 296.209L166.69 295.569L167.18 294.939L166.45 294.179L165.33 293.929L165.94 293.289L166.24 292.459L167.11 292.529L167.41 292.179L167.28 291.429L166.53 291.229L166.1 290.009L165.1 288.929L165.23 288.449L165.59 288.309L165.86 288.399L165.99 289.279L166.42 289.319L167.46 289.139L168.69 288.349L170.32 288.259L172.38 287.519L174 287.659L175.2 286.859L176.49 286.679L176.89 287.359L177.09 289.079L177.98 289.579L178.19 290.239L177.8 290.839L176.99 290.469L176.44 290.739L176.45 291.449L176.07 292.019L174.58 293.469L174.45 294.009L175.59 294.969L175.53 295.499L176.11 295.709L176.39 296.219L175.68 298.049L176.06 298.179L176.27 298.749L177.42 298.069L178.08 298.079L178.74 298.489L180.75 298.149L180.68 300.069L182.38 302.009L183.67 302.279L183.34 302.729L183.19 303.879L182.23 304.139L182 304.989L182.72 305.269L182.65 305.619L180.57 307.079L180.05 307.169Z" fill="#27272A"/>
<path d="M94.9997 295.159L94.4097 294.749L94.0597 295.629L93.3197 295.979L93.0297 295.779L93.1797 295.189L92.7397 295.049L91.9697 296.509L90.2497 297.539L88.0697 296.759L88.1497 295.969L85.8897 294.689L85.1997 295.069L84.8797 295.949L83.0397 297.729L82.8497 297.139L83.3097 296.269L83.2797 294.589L82.2197 293.069L82.3397 292.459L83.0897 292.329L83.6397 291.219L83.3997 290.009L82.3297 288.839L82.6297 288.679L83.0097 287.309L85.6497 286.899L85.3497 286.419L84.1297 286.039L84.4097 285.219L85.3297 285.959L86.4097 285.619L86.9297 285.769L88.0197 286.879L90.9797 286.619L91.5997 285.789L92.6197 285.819L94.0597 284.139L93.7897 283.479L94.1397 282.919L94.8397 283.059L95.5397 282.349L95.8797 281.929L95.9097 281.069L96.3697 280.959L96.7497 280.079L96.9997 279.849L97.9697 280.139L98.4397 279.649L99.2697 282.189L98.8397 282.349L98.8197 283.169L98.1597 283.809L98.7697 285.459L100.64 285.419L100.09 286.959L100.26 287.729L101.13 288.589L102.18 288.489L103.12 287.789L103.81 288.419L104.93 286.839L104.5 285.949L104.65 285.639L105.13 284.929L105.94 284.479L106.24 285.159L106.07 285.969L106.31 287.329L107.23 288.109L107.15 288.739L107.65 290.199L108.93 290.509L109.26 290.319L109.5 290.809L109.21 291.329L109.58 291.799L108.6 292.709L108.84 295.669L108.27 296.629L107.18 296.749L107.19 298.369L107.77 299.049L107.44 299.679L106.95 298.609L105.52 297.879L105.15 298.049L101.54 295.289L101.07 295.889L101.04 296.439L100.13 296.239L101.25 295.059L99.9997 294.349L99.4797 294.269L97.6597 294.819L95.5597 295.779L94.9997 295.159ZM110.14 298.779L109.24 298.639L108.72 299.099L108.14 298.229L108.08 297.439L109.26 296.489L110.62 297.619L111.6 297.679L112.86 296.829L113.96 296.889L112.7 297.849L111.99 297.839L111.8 298.149L111.99 298.979L111.12 299.079L111.02 298.259L110.58 298.159L110.04 298.249L110.14 298.779Z" fill="#27272A"/>
<path d="M245.24 255.799L245.22 258.409L244.88 259.109L244.39 259.629L243.68 259.729L243.22 260.379L241.43 261.209L241.03 262.339L240.36 262.729L239.66 262.659L239.29 262.929L236.49 263.399L236.04 262.429L235.01 262.549L234.44 261.289L233.45 262.199L233.5 263.909L233.07 264.519L233.47 267.179L232.75 267.809L231.51 267.689L230.82 267.189L230.13 264.499L229.37 264.139L228.61 264.659L227.93 264.149L227.6 262.849L228.06 261.919L227.83 260.849L228.21 259.669L227.27 256.489L226.54 254.719L227.54 253.619L226.66 252.759L227.63 250.789L227.83 250.669L228.55 251.289L230.32 248.579L231.75 249.159L231.74 249.829L232.22 250.359L232.7 250.269L232.92 249.859L234.68 249.889L235.22 251.029L236.19 251.019L236.92 250.079L237.32 250.089L238.34 250.319L238.63 250.959L239.79 251.159L240.48 251.689L241.57 251.399L243.14 254.639L245.24 255.799Z" fill="#27272A"/>
<path d="M267.9 199.319L267.6 201.029L267.64 203.039L268.19 203.449L266.86 205.059L265.56 204.799L264.82 205.359L263.35 204.239L262.12 204.699L261.15 203.019L260.82 203.369L260.19 203.439L259.58 203.049L258.64 203.629L258.01 202.949L257.22 203.129L256.77 202.359L256.32 202.489L255.66 202.169L255 201.009L255.59 197.839L256.28 197.329L255.93 196.569L256.27 195.749L256.11 194.439L256.63 193.619L258.21 193.839L259.58 192.979L260.37 191.389L259.22 190.159L257.38 189.679L256.58 188.549L256.98 186.559L256.74 186.269L255.26 185.949L253.45 184.989L254.62 181.909L256.36 180.399L257.5 178.899L258.63 174.819L259.24 173.779L259.94 171.139L259.76 170.559L262.27 170.969L262.64 170.509L263.62 170.269L263.82 171.439L264.53 171.619L265.32 172.319L268.4 173.259L269.48 172.989L269.83 173.759L270.89 173.839L271.47 175.639L272.99 176.169L273.23 176.619L273 176.969L274.06 177.989L274.25 179.049L275.08 179.499L274.4 180.599L274.62 181.569L274.19 182.719L273.79 182.819L273.13 182.469L273.03 182.699L273.64 184.069L273.67 184.609L273.29 185.259L273.56 186.169L274.16 186.559L274.36 187.259L273.75 188.859L272.66 189.999L272.82 190.599L271.77 191.919L271.61 192.939L271.84 194.169L270.73 195.749L270.54 196.769L269.55 197.319L267.83 197.329L267.9 199.319Z" fill="#27272A"/>
<path d="M246.435 245.72L246.445 245.734L252.645 254.243L252.645 254.243C252.725 254.354 252.859 254.422 252.997 254.422C253.135 254.422 253.268 254.354 253.349 254.243L253.349 254.243L259.549 245.734L259.559 245.719L259.571 245.706C260.876 244.158 261.594 242.194 261.594 240.172C261.594 237.877 260.7 235.719 259.078 234.094C259.078 234.094 259.078 234.094 259.078 234.094M246.435 245.72L246.569 233.741C248.288 232.025 250.569 231.078 253 231.078C255.431 231.078 257.712 232.022 259.431 233.741L259.077 234.094C259.077 234.094 259.078 234.094 259.078 234.094M246.435 245.72L246.424 245.707C245.124 244.159 244.406 242.195 244.406 240.172C244.406 237.873 245.297 235.719 246.922 234.094M246.435 245.72L246.922 234.094M259.078 234.094C257.453 232.469 255.299 231.578 253 231.578C250.702 231.578 248.547 232.472 246.922 234.094M259.078 234.094L246.922 234.094" fill="#EA4335" stroke="#B31412"/>
<path d="M250.333 240.333C250.333 241.041 250.614 241.719 251.114 242.219C251.614 242.719 252.292 243 253 243C253.707 243 254.385 242.719 254.885 242.219C255.385 241.719 255.666 241.041 255.666 240.333C255.666 239.626 255.385 238.948 254.885 238.448C254.385 237.948 253.707 237.667 253 237.667C252.292 237.667 251.614 237.948 251.114 238.448C250.614 238.948 250.333 239.626 250.333 240.333Z" fill="#B31412"/>
</g>
<defs>
<clipPath id="clip0_2056_278">
<rect width="377" height="476" fill="white"/>
</clipPath>
</defs>
</svg>
