<svg width="100" height="100" viewBox="0 0 100 100" fill="none" xmlns="http://www.w3.org/2000/svg">
<rect width="100" height="100" fill="white" fill-opacity="0.01" style="mix-blend-mode:multiply"/>
<path d="M68.1625 20.7937L66.2156 19.6688L70.9031 11.55L72.85 12.675L68.1625 20.7937ZM27.15 87.325L29.0969 88.4469L33.7844 80.3281L31.8375 79.2063L27.15 87.325ZM62.4094 8.03125L60.2375 7.44687L57.8125 16.5031L59.9844 17.0875L62.4094 8.03125ZM37.5906 91.9719L39.7625 92.5531L42.1875 83.4969L40.0156 82.9156L37.5906 91.9719ZM48.875 93.75H51.125V84.375H48.875V93.75V93.75ZM51.125 6.25H48.875V15.625H51.125V6.25ZM57.8094 83.4938L60.2344 92.55L62.4062 91.9688L59.9813 82.9125L57.8094 83.4938ZM42.1875 16.5063L39.7625 7.45L37.5906 8.03125L40.0156 17.0875L42.1875 16.5063ZM66.2125 80.3312L70.9 88.45L72.8469 87.3281L68.1594 79.2094L66.2125 80.3312ZM33.7875 19.6656L29.1 11.5469L27.15 12.6719L31.8375 20.7906L33.7875 19.6656ZM73.5094 75.1031L80.1375 81.7312L81.7312 80.1375L75.1031 73.5094L73.5094 75.1031ZM26.4875 24.8969L19.8594 18.2688L18.2688 19.8594L24.8969 26.4875L26.4875 24.8969ZM79.2094 68.1625L87.3281 72.85L88.45 70.9031L80.3312 66.2156L79.2094 68.1625ZM20.7937 31.8375L12.675 27.15L11.55 29.1L19.6688 33.7875L20.7937 31.8375ZM82.9125 59.9813L91.9688 62.4062L92.55 60.2344L83.4938 57.8094L82.9125 59.9813ZM17.0875 40.0156L8.03125 37.5906L7.44687 39.7625L16.5063 42.1875L17.0875 40.0156ZM84.375 48.875V51.125H93.75V48.875H84.375V48.875ZM15.625 48.875H6.25V51.125H15.625V48.875ZM83.4938 42.1875L92.55 39.7625L91.9688 37.5906L82.9125 40.0156L83.4938 42.1875ZM16.5063 57.8094L7.45 60.2344L8.03438 62.4062L17.0906 59.9813L16.5063 57.8094ZM79.2094 31.8375L80.3312 33.7844L88.45 29.0969L87.3281 27.15L79.2094 31.8375ZM19.6656 66.2125L11.5469 70.9L12.6719 72.8469L20.7906 68.1594L19.6656 66.2125ZM55.9313 45.6594C56.8281 46.8813 57.375 48.3719 57.375 50C57.375 54.0688 54.0656 57.375 50 57.375C45.9344 57.375 42.625 54.0656 42.625 50C42.625 45.9344 45.9344 42.625 50 42.625C51.6281 42.625 53.1187 43.1719 54.3406 44.0656L68.2594 30.1469C57.6813 20.4156 41.175 20.65 30.9156 30.9063C20.3875 41.4344 20.3875 58.5656 30.9156 69.0906L29.325 70.6844C17.9187 59.2812 17.9187 40.7219 29.325 29.3187C40.4594 18.1844 58.3906 17.9469 69.85 28.5594L86.7031 11.7063L88.2969 13.2969L55.9313 45.6594ZM55.125 50C55.125 47.175 52.8281 44.875 50 44.875C47.1719 44.875 44.875 47.175 44.875 50C44.875 52.825 47.175 55.125 50 55.125C52.825 55.125 55.125 52.825 55.125 50ZM18.2688 80.1406L19.8594 81.7344L26.4875 75.1063L24.8969 73.5125L18.2688 80.1406Z" fill="#06B6D4"/>
</svg>
