<svg width="100" height="100" viewBox="0 0 100 100" fill="none" xmlns="http://www.w3.org/2000/svg">
<rect width="100" height="100" fill="white" fill-opacity="0.01" style="mix-blend-mode:multiply"/>
<path d="M31.2625 34.3781L33.6812 34.375L26.0656 15.2094H23.975L16.3531 34.3781H18.775L20.8156 29.25H29.225L31.2625 34.3781ZM21.7094 27L25.0219 18.6688L28.3312 27H21.7094ZM82.3562 96.875H80.1031C80.1031 83.2844 70.925 71.3344 57.7844 67.8125C57.3344 67.6938 57.0094 67.3156 56.9562 66.8531C56.9 66.3969 57.1375 65.95 57.5437 65.7344C62.7844 62.9313 66.0406 57.4969 66.0406 51.5625C66.0406 42.7031 58.8344 35.4969 49.9781 35.4969C41.1187 35.4969 33.9125 42.7031 33.9125 51.5625C33.9125 57.4969 37.1687 62.925 42.4125 65.7344C42.8187 65.95 43.0531 66.3969 43 66.8531C42.9469 67.3125 42.6187 67.6938 42.175 67.8125C29.0312 71.3344 19.8531 83.2844 19.8531 96.875H17.6031C17.6031 83.1031 26.3719 70.9 39.2094 66.375C34.5 62.9563 31.6625 57.4781 31.6625 51.5625C31.6625 41.4625 39.8781 33.2469 49.9781 33.2469C60.075 33.2469 68.2906 41.4625 68.2906 51.5625C68.2906 57.4781 65.4531 62.9563 60.7469 66.375C73.5906 70.9 82.3562 83.1031 82.3562 96.875ZM23.9937 56.7531L18.0531 44.875H9.375C5.30938 44.875 2 41.5656 2 37.5V15.625C2 11.5594 5.30938 8.25 9.375 8.25H40.625C44.6906 8.25 48 11.5594 48 15.625V28.125H45.75V15.625C45.75 12.8 43.45 10.5 40.625 10.5H9.375C6.55 10.5 4.25 12.8 4.25 15.625V37.5C4.25 40.325 6.55 42.625 9.375 42.625H18.75C19.175 42.625 19.5656 42.8656 19.7562 43.2469L26.0062 55.7469L23.9937 56.7531ZM76.0062 50.5031L73.9906 49.4969L80.2406 36.9969C80.4344 36.6156 80.8219 36.375 81.2469 36.375H90.6219C93.4469 36.375 95.7469 34.075 95.7469 31.25V9.375C95.7469 6.55 93.45 4.25 90.6219 4.25H59.375C56.55 4.25 54.25 6.55 54.25 9.375V21.875H52V9.375C52 5.30938 55.3062 2 59.375 2H90.625C94.6937 2 98 5.30938 98 9.375V31.25C98 35.3156 94.6906 38.625 90.625 38.625H81.9469L76.0062 50.5031ZM84.3937 29.25C80.5562 29.25 77.4406 28.0344 75.0375 26.2875C72.6125 28.2562 69.4625 29.25 65.6437 29.25V27C68.7375 27 71.3 26.2625 73.275 24.8C70.8719 22.4594 69.4469 19.6281 68.975 17.4188L71.1719 16.9469C71.6031 18.9312 72.8875 21.3031 74.9375 23.2438C77.6469 20.0531 78.0812 15.6219 78.1281 13.625H65.6437V11.375H73.8937V7.80625H76.1469V11.3781H84.3969V13.6281H80.3906C80.3469 15.9 79.8687 20.8937 76.6969 24.6594C78.7531 26.0594 81.3406 27.0031 84.3969 27.0031V29.25H84.3937Z" fill="#06B6D4"/>
</svg>
