<svg width="100" height="100" viewBox="0 0 100 100" fill="none" xmlns="http://www.w3.org/2000/svg">
<rect width="100" height="100" fill="white" fill-opacity="0.01" style="mix-blend-mode:multiply"/>
<path d="M84.375 98H15.625C15.0031 98 14.5 97.4969 14.5 96.875V76.125H3.125C2.50313 76.125 2 75.6219 2 75V31.25C2 30.6281 2.50313 30.125 3.125 30.125H14.5V3.125C14.5 2.50313 15.0031 2 15.625 2H84.375C84.9969 2 85.5 2.50313 85.5 3.125V30.125H96.875C97.4969 30.125 98 30.6281 98 31.25V75C98 75.6219 97.4969 76.125 96.875 76.125H85.5V96.875C85.5 97.4969 84.9969 98 84.375 98ZM16.75 95.75H83.25V57.375H16.75V95.75ZM85.5 73.875H95.7469V32.375H4.25V73.875H14.5V56.25C14.5 55.6281 15.0031 55.125 15.625 55.125H84.375C84.9969 55.125 85.5 55.6281 85.5 56.25V73.875ZM16.75 30.125H83.25V4.25H16.75V30.125ZM84.375 44.875H71.875V42.625H84.375V44.875Z" fill="#06B6D4"/>
</svg>
