<svg width="872" height="257" viewBox="0 0 872 257" fill="none" xmlns="http://www.w3.org/2000/svg">
<g clip-path="url(#clip0_17_119234)">
<path d="M663.702 58.4677H753.01C747.228 63.2865 742.73 67.4627 737.59 71.3177C731.165 75.8152 727.631 81.5977 725.061 89.3077C718.636 108.904 711.89 128.5 705.144 148.096C704.501 149.703 704.18 151.309 704.18 153.236C740.803 120.469 776.461 86.0952 824.327 66.8202C815.011 62.644 806.659 58.789 798.306 55.2552C747.87 34.374 695.506 21.524 641.536 16.384C581.141 10.2802 521.389 13.814 461.958 23.7727C378.111 37.5865 298.441 64.8927 221.341 100.23C220.056 100.873 219.092 101.515 217.486 102.158C218.129 103.764 218.771 105.691 219.414 107.298C235.797 148.739 252.502 190.501 268.886 231.943C270.171 235.155 272.42 238.368 274.669 240.938C279.488 246.399 284.627 251.218 290.089 257H189.216C189.216 257 190.822 255.073 191.786 254.109C197.569 248.969 203.672 244.15 209.455 239.01C210.74 238.046 211.704 235.155 211.061 233.549C197.248 198.211 183.434 163.195 169.299 128.179C169.299 127.858 168.656 127.215 168.335 126.573C167.05 127.215 165.765 127.536 164.48 128.179C146.49 138.459 128.821 148.739 111.153 159.019C108.904 160.304 106.655 163.195 105.691 165.765C97.9812 187.61 90.5925 209.776 82.8825 231.621C81.5975 235.155 82.24 237.404 84.81 239.974C90.2713 245.114 95.4113 250.896 101.515 257H0C4.4975 253.145 8.3525 249.611 12.2075 246.72C21.5237 240.616 26.3425 231.943 29.8763 221.341C48.5087 165.444 68.105 109.546 87.38 53.649C88.665 50.1152 88.3438 47.5452 85.4525 44.9752C79.9913 39.514 74.53 34.0527 68.4263 27.6277H170.584C167.371 30.519 164.801 33.4102 161.589 35.3377C149.381 43.369 142.956 54.2915 138.78 68.1052C132.034 90.5927 123.681 112.438 116.292 134.604C115.65 136.531 115.329 138.138 114.365 141.35C117.577 139.423 119.505 138.459 121.432 137.174C206.243 87.7015 295.55 49.4727 390.64 25.0577C463.564 6.42521 537.451 -2.89104 612.945 0.642712C695.185 4.49771 773.249 24.4152 846.494 62.644C849.064 63.929 851.634 65.214 854.204 66.1777C867.696 71.9602 874.443 85.774 870.909 99.5877C867.375 113.08 854.204 122.075 840.069 120.148C825.934 118.541 815.654 106.655 815.332 92.199C815.332 90.914 815.332 89.9502 815.332 88.0227C813.726 88.6652 812.12 88.9865 811.156 89.9502C798.949 97.6602 787.063 105.691 774.855 113.401C772.285 115.008 772.285 116.614 773.249 119.184C786.42 157.091 799.27 194.999 812.441 232.906C813.084 235.155 815.011 237.083 816.618 238.689C823.043 244.471 830.11 249.933 837.499 256.358H749.155C754.937 250.575 760.077 245.435 764.896 239.974C766.181 238.689 766.824 235.798 766.503 234.191C756.865 205.921 747.228 177.33 737.269 149.06C737.269 148.096 736.305 147.454 735.662 146.169C733.735 147.775 732.45 149.06 730.844 150.345C718.636 162.231 706.429 174.118 694.221 186.325C692.294 188.253 691.009 190.501 690.045 193.071C685.226 206.564 680.729 220.056 675.91 233.549C674.625 237.083 675.268 239.331 677.838 241.901C682.978 246.078 687.796 250.575 692.936 255.073C692.615 255.715 691.973 256.358 691.651 257H604.592C611.66 250.896 618.406 245.756 624.831 239.974C627.401 237.725 629.65 234.834 630.614 231.621C647.64 182.791 664.345 133.64 681.05 84.8102C682.335 80.9552 682.335 78.064 678.801 75.1727C673.019 70.354 667.558 65.214 662.096 60.3952C662.418 59.7527 663.06 59.1102 663.381 58.4677H663.702Z" fill="#E60012"/>
<path d="M385.821 58.1463C391.924 58.1463 396.422 58.1463 401.241 58.1463C447.501 58.1463 494.082 58.1463 540.342 58.1463C562.187 58.1463 578.249 68.7476 587.887 87.7013C597.846 107.298 595.918 126.573 583.068 143.92C572.467 158.698 557.368 165.444 539.378 165.765C532.311 165.765 525.564 165.765 517.854 165.765C518.497 168.014 519.139 169.62 519.461 171.226C526.528 191.465 533.274 211.704 540.342 231.943C541.306 234.513 543.233 237.083 545.161 239.01C551.586 244.793 558.332 250.254 565.721 256.358H477.377C481.232 252.503 484.123 248.326 487.657 245.756C495.046 240.295 495.046 234.513 492.154 226.16C485.087 207.528 478.983 188.574 472.558 169.941C471.594 166.729 469.988 165.444 466.454 165.765C453.283 165.765 440.112 165.765 426.941 165.765C424.049 165.765 422.443 166.729 421.479 169.62C414.412 190.501 407.344 211.383 399.956 232.264C398.992 235.155 399.956 236.761 401.562 238.689C407.344 244.471 412.806 250.254 419.231 256.679H330.566C335.384 252.503 339.239 248.969 343.416 245.756C349.198 241.58 352.411 235.798 354.981 229.051C371.364 180.864 388.069 132.676 404.453 84.8101C405.738 81.2763 405.417 79.0276 402.526 76.1363C396.743 70.6751 391.282 64.5713 384.536 57.8251L385.821 58.1463ZM429.189 150.988C429.189 150.988 430.796 151.63 431.438 151.63C454.568 151.63 478.019 151.63 501.149 151.63C510.144 151.63 517.212 147.454 522.031 140.065C529.741 129.143 531.668 116.935 529.098 104.085C525.243 86.0951 511.751 75.1726 494.403 75.1726C482.838 75.1726 471.273 75.1726 459.387 75.1726C455.853 75.1726 454.247 76.4576 452.962 79.6701C445.573 101.836 437.863 124.324 430.153 146.49C429.511 148.096 429.189 149.703 428.868 151.309L429.189 150.988Z" fill="#E60012"/>
</g>
<defs>
<clipPath id="clip0_17_119234">
<rect width="871.551" height="257" fill="white"/>
</clipPath>
</defs>
</svg>
