<svg width="100" height="100" viewBox="0 0 100 100" fill="none" xmlns="http://www.w3.org/2000/svg">
<rect width="100" height="100" fill="white" fill-opacity="0.01" style="mix-blend-mode:multiply"/>
<path d="M12.5 23C6.70937 23 2 18.2906 2 12.5C2 6.70937 6.70937 2 12.5 2C18.2906 2 23 6.70937 23 12.5C23 18.2906 18.2906 23 12.5 23ZM12.5 4.25C7.95 4.25 4.25 7.95 4.25 12.5C4.25 17.05 7.95 20.75 12.5 20.75C17.05 20.75 20.75 17.05 20.75 12.5C20.75 7.95 17.05 4.25 12.5 4.25ZM87.5 98C81.7094 98 77 93.2875 77 87.5C77 81.7125 81.7125 77 87.5 77C93.2875 77 98 81.7125 98 87.5C98 93.2875 93.2906 98 87.5 98ZM87.5 79.25C82.95 79.25 79.25 82.95 79.25 87.5C79.25 92.05 82.95 95.75 87.5 95.75C92.05 95.75 95.75 92.05 95.75 87.5C95.75 82.95 92.05 79.25 87.5 79.25ZM12.5 91.75C10.1562 91.75 8.25 89.8437 8.25 87.5C8.25 85.1562 10.1562 83.25 12.5 83.25C14.8437 83.25 16.75 85.1562 16.75 87.5C16.75 89.8437 14.8437 91.75 12.5 91.75ZM12.5 85.5C11.3969 85.5 10.5 86.3969 10.5 87.5C10.5 88.6031 11.3969 89.5 12.5 89.5C13.6031 89.5 14.5 88.6031 14.5 87.5C14.5 86.3969 13.6031 85.5 12.5 85.5ZM87.5 16.75C85.1562 16.75 83.25 14.8437 83.25 12.5C83.25 10.1562 85.1562 8.25 87.5 8.25C89.8437 8.25 91.75 10.1562 91.75 12.5C91.75 14.8437 89.8437 16.75 87.5 16.75ZM87.5 10.5C86.3969 10.5 85.5 11.3969 85.5 12.5C85.5 13.6031 86.3969 14.5 87.5 14.5C88.6031 14.5 89.5 13.6031 89.5 12.5C89.5 11.3969 88.6031 10.5 87.5 10.5ZM50 66.75C40.7625 66.75 33.25 59.2344 33.25 50C33.25 40.7625 40.7625 33.25 50 33.25C59.2344 33.25 66.75 40.7625 66.75 50C66.75 59.2344 59.2344 66.75 50 66.75ZM50 35.5C42.0031 35.5 35.5 42.0062 35.5 50C35.5 57.9937 42.0062 64.5 50 64.5C57.9937 64.5 64.5 57.9969 64.5 50C64.5 42.0031 57.9969 35.5 50 35.5ZM50 60.5C44.2094 60.5 39.5 55.7875 39.5 50C39.5 44.2125 44.2094 39.5 50 39.5C55.7906 39.5 60.5 44.2094 60.5 50C60.5 55.7906 55.7906 60.5 50 60.5ZM50 41.75C45.45 41.75 41.75 45.4531 41.75 50C41.75 54.55 45.4531 58.25 50 58.25C54.55 58.25 58.25 54.55 58.25 50C58.25 45.45 54.55 41.75 50 41.75ZM87.5 2C81.7094 2 77 6.70937 77 12.5C77 14.9906 77.9062 17.2469 79.3594 19.05L67.3437 31.0656C62.6187 28.6687 56.9 27 50 27C24.5531 27 14.6875 49.3312 14.5906 49.5562C14.4687 49.8375 14.4687 50.1594 14.5906 50.4406C14.6562 50.5969 19.3531 61.225 30.5719 67.8344L19.0469 79.3562C17.2469 77.9062 14.9875 77 12.5 77C6.70937 77 2 81.7125 2 87.5C2 93.2875 6.70937 98 12.5 98C18.2906 98 23 93.2906 23 87.5C23 85.0125 22.0937 82.7531 20.6406 80.95L32.6562 68.9344C37.3812 71.3312 43.1 73 50 73C75.45 73 85.3125 50.6687 85.4094 50.4406C85.5312 50.1594 85.5312 49.8375 85.4094 49.5562C85.3437 49.4 80.6469 38.775 69.4281 32.1625L80.95 20.6375C82.7531 22.0937 85.0125 23 87.5 23C93.2906 23 98 18.2906 98 12.5C98 6.70937 93.2906 2 87.5 2ZM20.75 87.5C20.75 92.05 17.0469 95.75 12.5 95.75C7.95312 95.75 4.25 92.05 4.25 87.5C4.25 82.95 7.95 79.25 12.5 79.25C17.05 79.25 20.75 82.95 20.75 87.5ZM83.1344 50C81.6344 53.0531 71.9844 70.75 50 70.75C28.0156 70.75 18.3656 53.0531 16.8687 50C18.3656 46.9469 28.0187 29.25 50 29.25C71.9812 29.25 81.6312 46.9469 83.1344 50ZM87.5 20.75C85.4844 20.75 83.6594 19.9937 82.225 18.7875L81.225 17.7875C80.0094 16.3531 79.25 14.5219 79.25 12.5C79.25 7.95 82.95 4.25 87.5 4.25C92.05 4.25 95.75 7.95 95.75 12.5C95.75 17.05 92.05 20.75 87.5 20.75Z" fill="#06B6D4"/>
</svg>
