<svg width="100" height="100" viewBox="0 0 100 100" fill="none" xmlns="http://www.w3.org/2000/svg">
<rect width="100" height="100" fill="white" fill-opacity="0.01" style="mix-blend-mode:multiply"/>
<path d="M98 6.25V68.75H95.75V7.375H4.25V77H37.5V79.2531H3.125C2.50313 79.2531 2 78.75 2 78.1281V6.25C2 5.62813 2.50313 5.125 3.125 5.125H96.875C97.4969 5.125 98 5.62813 98 6.25ZM85.9375 72.3125C84.5156 72.3125 83.2281 72.8469 82.2156 73.6969C81.6219 71.1188 79.3156 69.1875 76.5625 69.1875C74.9375 69.1875 73.4687 69.8625 72.4156 70.9406C71.4781 68.9875 69.4969 67.625 67.1875 67.625C65.8406 67.625 64.6125 68.1063 63.625 68.8781V51.5625C63.625 48.3594 61.0156 45.75 57.8125 45.75C54.6094 45.75 52 48.3562 52 51.5625V81.3781C51.0125 80.6031 49.7844 80.1219 48.4375 80.1219C45.2344 80.1219 42.625 82.7313 42.625 85.9344V93.75H44.875V85.9375C44.875 83.9719 46.475 82.375 48.4375 82.375C50.4 82.375 52 83.9719 52 85.9375V87.5V93.75H54.25V87.5V85.9375V51.5625C54.25 49.6 55.8469 48 57.8125 48C59.7781 48 61.375 49.6 61.375 51.5625V84.375C61.375 84.9969 61.8781 85.5 62.5 85.5C63.1219 85.5 63.625 84.9969 63.625 84.375V73.4375C63.625 71.4719 65.2219 69.875 67.1875 69.875C69.1531 69.875 70.75 71.4719 70.75 73.4375V84.375C70.75 84.9969 71.2531 85.5 71.875 85.5C72.4969 85.5 73 84.9969 73 84.375V75C73 73.0344 74.5969 71.4375 76.5625 71.4375C78.5281 71.4375 80.125 73.0344 80.125 75V84.375C80.125 84.9969 80.6281 85.5 81.25 85.5C81.8719 85.5 82.375 84.9969 82.375 84.375V78.125C82.375 76.1594 83.9719 74.5625 85.9375 74.5625C87.9031 74.5625 89.5 76.1594 89.5 78.125V93.75H91.7531V78.125C91.75 74.9219 89.1406 72.3125 85.9375 72.3125Z" fill="#06B6D4"/>
</svg>
