<svg width="100" height="100" viewBox="0 0 100 100" fill="none" xmlns="http://www.w3.org/2000/svg">
<rect width="100" height="100" fill="white" fill-opacity="0.01" style="mix-blend-mode:multiply"/>
<path d="M41.4187 97.6719L39.8281 96.0781L42.9531 92.9531C43.1313 92.775 43.3594 92.6625 43.6094 92.6313L66.4844 89.7719C67.6094 89.6312 68.6688 89.1156 69.4656 88.3156L88.5344 69.2438C89.8187 67.9625 89.8187 65.8719 88.5344 64.5844C87.25 63.3 85.1563 63.3031 83.8781 64.5875L64.4812 80.3563C63.15 81.6188 61.3531 82.3937 59.375 82.3937H43.75V80.1406H59.375C60.6156 80.1406 61.7594 79.7 62.65 78.9719L62.6375 78.9531L63 78.6563C63.9438 77.7281 64.525 76.4406 64.525 75.0219C64.525 73.9156 63.6156 73.0156 62.5 73.0156H38.3094V70.7625H62.5C64.8594 70.7625 66.7781 72.6688 66.7781 75.0125C66.7781 75.2094 66.7688 75.4094 66.7531 75.6L82.3719 62.9094C84.4437 60.8281 87.9656 60.825 90.1219 62.9844C92.2844 65.1469 92.2813 68.6656 90.125 70.8281L71.0563 89.8969C69.9063 91.0469 68.3813 91.7937 66.7594 91.9969L44.2688 94.8062L41.4187 97.6719ZM13.2969 97.6688L11.7031 96.0813L20.7781 86.9875C21.4438 77.8469 29.0625 70.75 38.3094 70.75V73.0031C30.1156 73.0031 23.3906 79.3875 22.9969 87.5375C22.9844 87.8156 22.8656 88.0812 22.6719 88.275L13.2969 97.6688ZM65.625 60.5H28.125C27.5031 60.5 27 59.9969 27 59.375V12.5C27 11.8781 27.5031 11.375 28.125 11.375H36.375V3.125C36.375 2.50313 36.8781 2 37.5 2H75C75.6219 2 76.125 2.50313 76.125 3.125V50C76.125 50.6219 75.6219 51.125 75 51.125H66.75V59.375C66.75 59.9969 66.2469 60.5 65.625 60.5ZM29.25 58.25H64.5V26.125H53.125C52.5031 26.125 52 25.6219 52 25V13.625H29.25V58.25ZM66.75 48.875H73.8719V4.25H38.625V11.375H53.125C53.425 11.375 53.7125 11.4938 53.9219 11.7031L66.4219 24.2031C66.6312 24.4156 66.75 24.7 66.75 25V48.875ZM54.25 23.875H62.9094L54.25 15.2156V23.875ZM59.375 48H34.375V45.75H59.375V48ZM59.375 41.75H34.375V39.5H59.375V41.75ZM59.375 35.5H34.375V33.25H59.375V35.5Z" fill="#06B6D4"/>
</svg>
