<svg width="100" height="100" viewBox="0 0 100 100" fill="none" xmlns="http://www.w3.org/2000/svg">
<rect width="100" height="100" fill="white" fill-opacity="0.01" style="mix-blend-mode:multiply"/>
<path d="M50 1.84686L8.25 24.3281V75.6719L50 98.1531L91.75 75.6719V24.3281L50 1.84686ZM88.3719 25.0656L52.8875 46.9031C52.3938 46.4437 51.7906 46.1062 51.1219 45.9219V25.9531C52.9187 25.4562 54.2469 23.825 54.2469 21.875C54.2469 19.5312 52.3406 17.625 49.9969 17.625C47.6531 17.625 45.75 19.5312 45.75 21.875C45.75 23.8281 47.0781 25.4562 48.875 25.9531V45.9187C48.2063 46.1031 47.6031 46.4406 47.1094 46.9L11.625 25.0656L50 4.40311L88.3719 25.0656ZM50 52C48.8969 52 48 51.1031 48 50C48 48.8969 48.8969 48 50 48C51.1031 48 52 48.8969 52 50C52 51.1031 51.1031 52 50 52ZM50 23.875C48.8969 23.875 48 22.9781 48 21.875C48 20.7719 48.8969 19.875 50 19.875C51.1031 19.875 52 20.7719 52 21.875C52 22.9781 51.1031 23.875 50 23.875ZM10.5 27.0125L45.9375 48.8219C45.8281 49.2 45.75 49.5875 45.75 50C45.75 50.4219 45.8313 50.8219 45.9469 51.2062L27.8656 62.5062C27.1094 61.8094 26.1063 61.375 25 61.375C22.6563 61.375 20.75 63.2812 20.75 65.625C20.75 67.9687 22.6563 69.875 25 69.875C27.3438 69.875 29.25 67.9687 29.25 65.625C29.25 65.2031 29.1688 64.8031 29.0563 64.4187L47.1344 53.1156C47.625 53.5656 48.2156 53.8969 48.875 54.0781V94.9875L10.5 74.3281V27.0125ZM27 65.625C27 66.7281 26.1031 67.625 25 67.625C23.8969 67.625 23 66.7281 23 65.625C23 64.5219 23.8969 63.625 25 63.625C26.1031 63.625 27 64.5219 27 65.625ZM51.125 94.9906V54.0812C51.7844 53.9 52.3781 53.5687 52.8656 53.1187L70.9438 64.4187C70.8313 64.8031 70.75 65.2031 70.75 65.625C70.75 67.9687 72.6563 69.875 75 69.875C77.3438 69.875 79.25 67.9687 79.25 65.625C79.25 63.2812 77.3438 61.375 75 61.375C73.8938 61.375 72.8906 61.8125 72.1344 62.5094L54.0563 51.2125C54.1719 50.8281 54.2531 50.425 54.2531 50.0031C54.2531 49.5906 54.175 49.2 54.0656 48.825L89.5 27.0125V74.3281L51.125 94.9906ZM73 65.625C73 64.5219 73.8969 63.625 75 63.625C76.1031 63.625 77 64.5219 77 65.625C77 66.7281 76.1031 67.625 75 67.625C73.8969 67.625 73 66.7281 73 65.625Z" fill="#06B6D4"/>
</svg>
