<svg width="100" height="100" viewBox="0 0 100 100" fill="none" xmlns="http://www.w3.org/2000/svg">
<path d="M50.0005 98.0001C23.5317 98.0001 2.00049 76.4688 2.00049 50.0001C2.00049 23.5313 23.5317 2.00006 50.0005 2.00006C76.4692 2.00006 98.0005 23.5313 98.0005 50.0001C98.0005 76.4688 76.4692 98.0001 50.0005 98.0001ZM48.8755 87.5001H51.1255V95.7376C75.463 95.1501 95.1474 75.4626 95.738 51.1251H87.5005V48.8751H95.738C95.1474 24.5407 75.4599 4.85319 51.1255 4.26256V12.5001H48.8755V4.26256C24.5411 4.85319 4.85361 24.5407 4.26299 48.8751H12.5005V51.1251H4.26299C4.85361 75.4626 24.538 95.1469 48.8755 95.7376V87.5001ZM71.088 63.4751L48.8755 50.6501V18.7501H51.1255V49.3501L72.213 61.5251L71.088 63.4751Z" fill="#06B6D4"/>
</svg>
