<svg width="174" height="71" viewBox="0 0 174 71" fill="none" xmlns="http://www.w3.org/2000/svg">
<g clip-path="url(#clip0_597_664)">
<path d="M67.1862 62.2151L59.5718 47.229L43.895 16.3485L35.8326 0L27.3224 16.3485L35.8326 32.697L42.9992 47.229H38.0722L30.4577 62.2151H50.6136L54.6448 70.8435H71.6653L67.1862 62.2151Z" fill="#18181B"/>
<path d="M30.9057 42.6876L16.5726 70.8434H0L22.3954 26.3391L30.9057 42.6876Z" fill="#18181B"/>
<path d="M106.154 28.1558H89.1336V15.4403H106.154C109.737 15.4403 112.425 18.1651 112.425 21.7981C112.873 25.4311 109.737 28.1558 106.154 28.1558ZM89.1336 70.8436V43.142H106.602C118.248 43.142 127.654 33.6053 127.654 21.7981C127.654 15.8945 125.414 10.445 121.383 6.81197C117.8 3.17897 112.425 0.454224 106.602 0.454224H74.3527V70.8436H89.1336Z" fill="#18181B"/>
<path d="M126.758 70.8434H111.081L103.915 49.9537H106.154C110.633 49.9537 114.664 48.5913 118.248 46.3207L126.758 70.8434Z" fill="#18181B"/>
<path d="M143.778 56.3116V70.8436C132.133 69.0271 122.727 58.5822 122.727 45.8667H137.508V46.3208C137.508 50.8621 140.195 54.4951 143.778 56.3116Z" fill="#18181B"/>
<path d="M173.34 0.454102V45.4125C173.34 58.1279 164.382 68.5728 152.289 70.8434V56.3114C155.872 54.4949 158.56 50.862 158.56 46.3207V0.454102H173.34Z" fill="#18181B"/>
</g>
<defs>
<clipPath id="clip0_597_664">
<rect width="173.34" height="70.8435" fill="white"/>
</clipPath>
</defs>
</svg>
