<svg width="334" height="90" viewBox="0 0 334 90" fill="none" xmlns="http://www.w3.org/2000/svg">
<path d="M276.98 38.7999H315.892C316.66 38.7999 317.343 39.0132 317.94 39.4399C318.537 39.7812 318.921 40.3359 319.092 41.1039L321.396 49.1679C321.823 50.7892 322.889 51.5999 324.596 51.5999H331.38C333.087 51.5999 333.94 52.4532 333.94 54.1599V71.3119C333.94 73.0186 333.129 74.0852 331.508 74.5119L323.7 76.5599C322.079 76.9866 321.055 78.0106 320.628 79.6319L318.452 87.5679C318.025 89.1892 316.959 89.9999 315.252 89.9999H277.108C275.401 89.9999 274.335 89.1892 273.908 87.5679L271.732 79.6319C271.305 78.0106 270.281 76.9866 268.66 76.5599L260.852 74.5119C259.231 74.0852 258.42 73.0186 258.42 71.3119V63.6319C258.42 61.9252 259.273 61.0719 260.98 61.0719H268.532C270.239 61.0719 271.092 61.9252 271.092 63.6319V71.4399C271.092 73.1466 271.647 74.5546 272.756 75.6639C273.951 76.6879 275.359 77.1999 276.98 77.1999H315.38C317.001 77.1999 318.367 76.6879 319.476 75.6639C320.671 74.5546 321.268 73.1466 321.268 71.4399V57.3599C321.268 55.8239 320.671 54.5012 319.476 53.3919C318.281 52.1972 316.916 51.5999 315.38 51.5999H276.468C274.761 51.5999 273.695 50.8319 273.268 49.2959L270.964 41.2319C270.537 39.6106 269.471 38.7999 267.764 38.7999H260.98C259.273 38.7999 258.42 37.9466 258.42 36.2399V19.2159C258.42 17.5092 259.231 16.4426 260.852 16.0159L268.66 13.8399C270.281 13.4132 271.305 12.3892 271.732 10.7679L273.908 2.8319C274.335 1.21057 275.401 0.399902 277.108 0.399902H314.996C316.703 0.399902 317.769 1.21057 318.196 2.8319L320.372 10.7679C320.799 12.3892 321.823 13.4132 323.444 13.8399L331.508 16.0159C333.129 16.4426 333.94 17.5092 333.94 19.2159V26.8959C333.94 28.6026 333.087 29.4559 331.38 29.4559H323.828C322.121 29.4559 321.268 28.6026 321.268 26.8959V19.0879C321.268 17.4666 320.671 16.1012 319.476 14.9919C318.367 13.7972 317.001 13.1999 315.38 13.1999H276.98C275.359 13.1999 273.951 13.7972 272.756 14.9919C271.647 16.1012 271.092 17.4666 271.092 19.0879V33.0399C271.092 34.5759 271.689 35.9412 272.884 37.1359C274.079 38.2452 275.444 38.7999 276.98 38.7999Z" fill="#06B6D4"/>
<path d="M216.76 71.4399C216.76 73.0612 217.315 74.4692 218.424 75.6639C219.619 76.7732 221.027 77.3279 222.648 77.3279H229.56C231.181 77.3279 232.547 76.8159 233.656 75.7919C234.851 74.6826 235.448 73.2746 235.448 71.5679V2.95991C235.448 1.25324 236.301 0.399902 238.008 0.399902H245.56C247.267 0.399902 248.12 1.25324 248.12 2.95991V71.3119C248.12 73.0186 247.309 74.0852 245.688 74.5119L237.624 76.5599C236.003 76.9866 234.979 78.0106 234.552 79.6319L232.376 87.5679C231.949 89.1892 230.883 89.9999 229.176 89.9999H222.776C221.069 89.9999 220.003 89.1892 219.576 87.5679L217.4 79.7599C216.973 78.1386 215.949 77.1146 214.328 76.6879L206.392 74.5119C204.856 74.0852 204.088 73.0186 204.088 71.3119V22.1599C204.088 20.4532 204.941 19.5999 206.648 19.5999H214.2C215.907 19.5999 216.76 20.4532 216.76 22.1599V71.4399ZM201.4 89.9999H191.544C189.837 89.9999 188.771 89.1892 188.344 87.5679L186.168 79.6319C185.741 78.0106 184.717 76.9866 183.096 76.5599L175.032 74.5119C173.411 74.0852 172.6 73.0186 172.6 71.3119V2.95991C172.6 1.25324 173.453 0.399902 175.16 0.399902H182.712C184.419 0.399902 185.272 1.25324 185.272 2.95991V71.5679C185.272 73.2746 185.827 74.6826 186.936 75.7919C188.131 76.8159 189.539 77.3279 191.16 77.3279H201.4C203.107 77.3279 203.96 78.1812 203.96 79.8879V87.4399C203.96 89.1466 203.107 89.9999 201.4 89.9999Z" fill="#06B6D4"/>
<path d="M86.7798 2.95991C86.7798 1.25324 87.6331 0.399902 89.3398 0.399902H159.74C161.446 0.399902 162.3 1.25324 162.3 2.95991V10.6399C162.3 12.3466 161.446 13.1999 159.74 13.1999H102.012C100.305 13.1999 99.4518 14.0532 99.4518 15.7599V32.9119C99.4518 34.5332 100.006 35.9412 101.116 37.1359C102.31 38.2452 103.718 38.7999 105.34 38.7999H146.94C148.646 38.7999 149.5 39.6532 149.5 41.3599V49.0399C149.5 50.7466 148.646 51.5999 146.94 51.5999H105.468C103.761 51.5999 102.694 50.7892 102.268 49.1679L100.092 41.2319C99.6651 39.6106 98.6411 38.5866 97.0198 38.1599L89.2118 35.9839C87.5905 35.5572 86.7798 34.4906 86.7798 32.7839V2.95991ZM99.4518 74.6399C99.4518 76.3466 100.305 77.1999 102.012 77.1999H159.74C161.446 77.1999 162.3 78.0532 162.3 79.7599V87.4399C162.3 89.1466 161.446 89.9999 159.74 89.9999H89.3398C87.6331 89.9999 86.7798 89.1466 86.7798 87.4399V54.1599C86.7798 52.4532 87.6331 51.5999 89.3398 51.5999H96.8918C98.5985 51.5999 99.4518 52.4532 99.4518 54.1599V74.6399Z" fill="#06B6D4"/>
<path d="M76.48 87.4399C76.48 89.1466 75.6266 89.9999 73.92 89.9999H66.368C64.6613 89.9999 63.808 89.1466 63.808 87.4399V57.4879C63.808 55.8666 63.2106 54.5012 62.016 53.3919C60.9066 52.1972 59.5413 51.5999 57.92 51.5999H51.136C49.4293 51.5999 48.3626 50.7892 47.936 49.1679L45.76 41.2319C45.3333 39.6106 44.3093 38.5866 42.688 38.1599L34.88 35.9839C33.2586 35.5572 32.448 34.4906 32.448 32.7839V19.0879C32.448 17.4666 31.8506 16.1012 30.656 14.9919C29.5466 13.7972 28.1813 13.1999 26.56 13.1999H16.192C14.4853 13.1999 13.632 14.0532 13.632 15.7599V87.4399C13.632 89.1466 12.7786 89.9999 11.072 89.9999H3.51996C1.81329 89.9999 0.959961 89.1466 0.959961 87.4399V2.95991C0.959961 1.25324 1.81329 0.399902 3.51996 0.399902H26.432C28.1386 0.399902 29.2053 1.21057 29.632 2.8319L31.808 10.7679C32.2346 12.3892 33.2586 13.4132 34.88 13.8399L42.688 16.0159C44.3093 16.4426 45.12 17.5092 45.12 19.2159V32.9119C45.12 34.5332 45.6746 35.9412 46.784 37.1359C47.9786 38.2452 49.3866 38.7999 51.008 38.7999H57.792C59.4986 38.7999 60.5653 39.6106 60.992 41.2319L63.168 49.1679C63.5946 50.7892 64.6186 51.8132 66.24 52.2399L74.048 54.4159C75.6693 54.8426 76.48 55.9092 76.48 57.6159V87.4399ZM63.808 2.95991C63.808 1.25324 64.6613 0.399902 66.368 0.399902H73.92C75.6266 0.399902 76.48 1.25324 76.48 2.95991V36.2399C76.48 37.9466 75.6266 38.7999 73.92 38.7999H66.368C64.6613 38.7999 63.808 37.9466 63.808 36.2399V2.95991Z" fill="#06B6D4"/>
</svg>
