<svg width="128" height="128" viewBox="0 0 128 128" fill="none" xmlns="http://www.w3.org/2000/svg">
<path d="M51.5 95.25C50.12 95.25 49 94.13 49 92.75C49 91.37 50.12 90.25 51.5 90.25C52.88 90.25 54 91.37 54 92.75C54 94.13 52.8825 95.25 51.5 95.25ZM74.9 101.5V64.9H94C97.255 64.9 99.9 62.2525 99.9 59V39C99.9 35.7475 97.2525 33.1 94 33.1H74.9V26.5C74.9 26.0025 74.4975 25.6 74 25.6H29C28.5025 25.6 28.1 26.0025 28.1 26.5V101.5C28.1 101.997 28.5025 102.4 29 102.4H74C74.4975 102.4 74.9 101.997 74.9 101.5ZM29.9 84.9H73.1V100.597H29.9V84.9ZM29.9 27.4H73.1V33.1H66.5C63.2475 33.1 60.6 35.7475 60.6 39V74C60.6 74.365 60.8175 74.6925 61.155 74.8325C61.49 74.965 61.88 74.8925 62.135 74.6375L71.8725 64.9H73.0975V83.1H29.9V27.4ZM94 34.9C96.26 34.9 98.1 36.74 98.1 39V59C98.1 61.26 96.2625 63.1 94 63.1H71.5C71.26 63.1 71.03 63.195 70.8625 63.3625L62.4 71.825V39C62.4 36.74 64.24 34.9 66.5 34.9H94ZM91.5 53.1H69V54.9H91.5V53.1ZM91.5 43.1H69V44.9H91.5V43.1Z" fill="#67E8F9"/>
</svg>
