<svg width="64" height="64" viewBox="0 0 64 64" fill="none" xmlns="http://www.w3.org/2000/svg">
<path d="M62 62.7199H2V61.2799H62V62.7199ZM62 54.7199H32V53.2799H62V54.7199ZM26 46.7199H2V45.2799H26V46.7199ZM43.436 40.7139C41.182 40.7139 38.928 39.8659 37.214 38.1679L32 33.0119L26.79 38.1679C23.358 41.5619 17.774 41.5619 14.342 38.1679C12.676 36.5219 11.76 34.3319 11.76 32.0019C11.76 29.6699 12.676 27.4779 14.342 25.8299C17.776 22.4359 23.36 22.4359 26.792 25.8299L32 30.9859L37.212 25.8299C40.642 22.4339 46.228 22.4339 49.658 25.8299C51.324 27.4779 52.24 29.6699 52.24 32.0019C52.238 34.3319 51.322 36.5199 49.658 38.1679C47.944 39.8659 45.688 40.7139 43.436 40.7139ZM33.024 31.9999L38.224 37.1439C41.096 39.9879 45.77 39.9879 48.646 37.1439C50.034 35.7699 50.798 33.9439 50.798 32.0019C50.8 30.0579 50.034 28.2299 48.646 26.8539C45.77 24.0099 41.098 24.0099 38.224 26.8539L33.024 31.9999ZM20.566 24.7219C18.678 24.7219 16.79 25.4319 15.354 26.8539C13.964 28.2299 13.2 30.0579 13.2 32.0019C13.2 33.9439 13.964 35.7719 15.354 37.1439C18.228 39.9859 22.904 39.9899 25.776 37.1439L30.978 31.9999L25.776 26.8539C24.34 25.4339 22.454 24.7219 20.566 24.7219ZM62 18.7199H32V17.2799H62V18.7199ZM32 10.7199H2V9.27991H32V10.7199ZM62 2.71991H2V1.27991H62V2.71991ZM62 9.99991C62 10.5519 61.552 10.9999 61 10.9999C60.448 10.9999 60 10.5519 60 9.99991C60 9.44791 60.448 8.99991 61 8.99991C61.552 8.99991 62 9.44791 62 9.99991ZM57 8.99991C56.448 8.99991 56 9.44791 56 9.99991C56 10.5519 56.448 10.9999 57 10.9999C57.552 10.9999 58 10.5519 58 9.99991C58 9.44791 57.552 8.99991 57 8.99991ZM7 38.9999C6.448 38.9999 6 39.4479 6 39.9999C6 40.5519 6.448 40.9999 7 40.9999C7.552 40.9999 8 40.5519 8 39.9999C8 39.4479 7.552 38.9999 7 38.9999ZM31 44.9999C30.448 44.9999 30 45.4479 30 45.9999C30 46.5519 30.448 46.9999 31 46.9999C31.552 46.9999 32 46.5519 32 45.9999C32 45.4479 31.552 44.9999 31 44.9999ZM3 52.9999C2.448 52.9999 2 53.4479 2 53.9999C2 54.5519 2.448 54.9999 3 54.9999C3.552 54.9999 4 54.5519 4 53.9999C4 53.4479 3.552 52.9999 3 52.9999ZM61 44.9999C60.448 44.9999 60 45.4479 60 45.9999C60 46.5519 60.448 46.9999 61 46.9999C61.552 46.9999 62 46.5519 62 45.9999C62 45.4479 61.552 44.9999 61 44.9999ZM3 38.9999C2.448 38.9999 2 39.4479 2 39.9999C2 40.5519 2.448 40.9999 3 40.9999C3.552 40.9999 4 40.5519 4 39.9999C4 39.4479 3.552 38.9999 3 38.9999ZM3 16.9999C2.448 16.9999 2 17.4479 2 17.9999C2 18.5519 2.448 18.9999 3 18.9999C3.552 18.9999 4 18.5519 4 17.9999C4 17.4479 3.552 16.9999 3 16.9999ZM61 22.9999C60.448 22.9999 60 23.4479 60 23.9999C60 24.5519 60.448 24.9999 61 24.9999C61.552 24.9999 62 24.5519 62 23.9999C62 23.4479 61.552 22.9999 61 22.9999Z" fill="#0891B2"/>
</svg>
