<svg width="678" height="90" viewBox="0 0 678 90" fill="none" xmlns="http://www.w3.org/2000/svg">
<path d="M620.26 38.7999H659.172C659.94 38.7999 660.623 39.0132 661.22 39.4399C661.817 39.7812 662.202 40.3359 662.372 41.1039L664.676 49.1679C665.103 50.7892 666.169 51.5999 667.876 51.5999H674.66C676.367 51.5999 677.22 52.4532 677.22 54.1599V71.3119C677.22 73.0186 676.409 74.0852 674.788 74.5119L666.98 76.5599C665.359 76.9866 664.335 78.0106 663.908 79.6319L661.732 87.5679C661.306 89.1892 660.239 89.9999 658.532 89.9999H620.388C618.682 89.9999 617.615 89.1892 617.188 87.5679L615.012 79.6319C614.585 78.0106 613.562 76.9866 611.94 76.5599L604.132 74.5119C602.511 74.0852 601.7 73.0186 601.7 71.3119V63.6319C601.7 61.9252 602.554 61.0719 604.26 61.0719H611.812C613.519 61.0719 614.372 61.9252 614.372 63.6319V71.4399C614.372 73.1466 614.927 74.5546 616.036 75.6639C617.231 76.6879 618.639 77.1999 620.26 77.1999H658.66C660.281 77.1999 661.647 76.6879 662.756 75.6639C663.951 74.5546 664.548 73.1466 664.548 71.4399V57.3599C664.548 55.8239 663.951 54.5012 662.756 53.3919C661.561 52.1972 660.196 51.5999 658.66 51.5999H619.748C618.042 51.5999 616.975 50.8319 616.548 49.2959L614.244 41.2319C613.818 39.6106 612.751 38.7999 611.044 38.7999H604.26C602.554 38.7999 601.7 37.9466 601.7 36.2399V19.2159C601.7 17.5092 602.511 16.4426 604.132 16.0159L611.94 13.8399C613.562 13.4132 614.585 12.3892 615.012 10.7679L617.188 2.8319C617.615 1.21057 618.682 0.399902 620.388 0.399902H658.276C659.983 0.399902 661.05 1.21057 661.476 2.8319L663.652 10.7679C664.079 12.3892 665.103 13.4132 666.724 13.8399L674.788 16.0159C676.409 16.4426 677.22 17.5092 677.22 19.2159V26.8959C677.22 28.6026 676.367 29.4559 674.66 29.4559H667.108C665.401 29.4559 664.548 28.6026 664.548 26.8959V19.0879C664.548 17.4666 663.951 16.1012 662.756 14.9919C661.647 13.7972 660.281 13.1999 658.66 13.1999H620.26C618.639 13.1999 617.231 13.7972 616.036 14.9919C614.927 16.1012 614.372 17.4666 614.372 19.0879V33.0399C614.372 34.5759 614.97 35.9412 616.164 37.1359C617.359 38.2452 618.724 38.7999 620.26 38.7999Z" fill="#06B6D4"/>
<path d="M544.68 13.0719H518.44C516.733 13.0719 515.88 12.2186 515.88 10.5119V2.95991C515.88 1.25324 516.733 0.399902 518.44 0.399902H544.68C546.387 0.399902 547.24 1.25324 547.24 2.95991V10.5119C547.24 12.2186 546.387 13.0719 544.68 13.0719ZM549.8 89.9999C548.093 89.9999 547.24 89.1466 547.24 87.4399V19.0879C547.24 17.3812 548.051 16.3146 549.672 15.8879L557.608 13.7119C559.229 13.2852 560.253 12.2612 560.68 10.6399L562.856 2.8319C563.283 1.21057 564.349 0.399902 566.056 0.399902H588.84C590.547 0.399902 591.4 1.25324 591.4 2.95991V10.5119C591.4 12.2186 590.547 13.0719 588.84 13.0719H565.928C564.307 13.0719 562.899 13.6692 561.704 14.8639C560.595 15.9732 560.04 17.3386 560.04 18.9599V87.4399C560.04 89.1466 559.187 89.9999 557.48 89.9999H549.8Z" fill="#06B6D4"/>
<path d="M503.02 61.0719C504.727 61.0719 505.58 61.9252 505.58 63.6319V71.3119C505.58 73.0186 504.769 74.0852 503.148 74.5119L495.084 76.5599C493.463 76.9866 492.439 78.0106 492.012 79.6319L489.836 87.5679C489.409 89.1892 488.343 89.9999 486.636 89.9999H448.748C447.041 89.9999 445.975 89.1892 445.548 87.5679L443.372 79.6319C442.945 78.0106 441.921 76.9866 440.3 76.5599L432.492 74.5119C430.871 74.0852 430.06 73.0186 430.06 71.3119V19.2159C430.06 17.5092 430.871 16.4426 432.492 16.0159L440.3 13.8399C441.921 13.4132 442.945 12.3892 443.372 10.7679L445.548 2.8319C445.975 1.21057 447.041 0.399902 448.748 0.399902H486.636C488.343 0.399902 489.409 1.21057 489.836 2.8319L492.012 10.7679C492.439 12.3892 493.463 13.4132 495.084 13.8399L503.148 16.0159C504.769 16.4426 505.58 17.5092 505.58 19.2159V26.8959C505.58 28.6026 504.727 29.4559 503.02 29.4559H495.468C493.761 29.4559 492.908 28.6026 492.908 26.8959V19.0879C492.908 17.4666 492.311 16.1012 491.116 14.9919C490.007 13.7972 488.641 13.1999 487.02 13.1999H448.62C446.999 13.1999 445.591 13.7972 444.396 14.9919C443.287 16.1012 442.732 17.4666 442.732 19.0879V71.4399C442.732 73.1466 443.287 74.5546 444.396 75.6639C445.591 76.6879 446.999 77.1999 448.62 77.1999H487.02C488.641 77.1999 490.007 76.6879 491.116 75.6639C492.311 74.5546 492.908 73.1466 492.908 71.4399V63.6319C492.908 61.9252 493.761 61.0719 495.468 61.0719H503.02Z" fill="#06B6D4"/>
<path d="M354.352 0.399902C356.059 0.399902 356.912 1.25324 356.912 2.95991V71.4399C356.912 73.1466 357.467 74.5546 358.576 75.6639C359.771 76.6879 361.179 77.1999 362.8 77.1999H401.2C402.822 77.1999 404.187 76.6879 405.296 75.6639C406.491 74.5546 407.088 73.1466 407.088 71.4399V2.95991C407.088 1.25324 407.942 0.399902 409.648 0.399902H417.2C418.907 0.399902 419.76 1.25324 419.76 2.95991V71.3119C419.76 73.0186 418.95 74.0852 417.328 74.5119L409.264 76.5599C407.643 76.9866 406.619 78.0106 406.192 79.6319L404.016 87.5679C403.59 89.1892 402.523 89.9999 400.816 89.9999H362.928C361.222 89.9999 360.155 89.1892 359.728 87.5679L357.552 79.6319C357.126 78.0106 356.102 76.9866 354.48 76.5599L346.672 74.5119C345.051 74.0852 344.24 73.0186 344.24 71.3119V2.95991C344.24 1.25324 345.094 0.399902 346.8 0.399902H354.352Z" fill="#06B6D4"/>
<path d="M323.7 13.8399L331.508 16.0159C333.129 16.4426 333.94 17.5092 333.94 19.2159V71.3119C333.94 73.0186 333.129 74.0852 331.508 74.5119L323.7 76.5599C322.079 76.9866 321.055 78.0106 320.628 79.6319L318.452 87.5679C318.025 89.1892 316.959 89.9999 315.252 89.9999H260.98C259.273 89.9999 258.42 89.1466 258.42 87.4399V2.95991C258.42 1.25324 259.273 0.399902 260.98 0.399902H315.252C316.959 0.399902 318.025 1.21057 318.452 2.8319L320.628 10.7679C321.055 12.3892 322.079 13.4132 323.7 13.8399ZM271.092 74.6399C271.092 76.3466 271.945 77.1999 273.652 77.1999H315.38C317.001 77.1999 318.367 76.6879 319.476 75.6639C320.671 74.5546 321.268 73.1466 321.268 71.4399V19.0879C321.268 17.4666 320.671 16.1012 319.476 14.9919C318.367 13.7972 317.001 13.1999 315.38 13.1999H273.652C271.945 13.1999 271.092 14.0532 271.092 15.7599V74.6399Z" fill="#06B6D4"/>
<path d="M191.288 89.9999C189.581 89.9999 188.515 89.1892 188.088 87.5679L185.912 79.6319C185.485 78.0106 184.461 76.9866 182.84 76.5599L175.032 74.5119C173.411 74.0852 172.6 73.0186 172.6 71.3119V19.2159C172.6 17.5092 173.411 16.4426 175.032 16.0159L182.84 13.8399C184.461 13.4132 185.485 12.3892 185.912 10.7679L188.088 2.8319C188.515 1.21057 189.581 0.399902 191.288 0.399902H229.176C230.883 0.399902 231.949 1.21057 232.376 2.8319L234.552 10.7679C234.979 12.3892 236.003 13.4132 237.624 13.8399L245.688 16.0159C247.309 16.4426 248.12 17.5092 248.12 19.2159V71.3119C248.12 73.0186 247.309 74.0852 245.688 74.5119L237.624 76.5599C236.003 76.9866 234.979 78.0106 234.552 79.6319L232.376 87.5679C231.949 89.1892 230.883 89.9999 229.176 89.9999H191.288ZM191.16 13.1999C189.539 13.1999 188.131 13.7972 186.936 14.9919C185.827 16.1012 185.272 17.4666 185.272 19.0879V71.4399C185.272 73.1466 185.827 74.5546 186.936 75.6639C188.131 76.6879 189.539 77.1999 191.16 77.1999H229.56C231.181 77.1999 232.547 76.6879 233.656 75.6639C234.851 74.5546 235.448 73.1466 235.448 71.4399V19.0879C235.448 17.4666 234.851 16.1012 233.656 14.9919C232.547 13.7972 231.181 13.1999 229.56 13.1999H191.16Z" fill="#06B6D4"/>
<path d="M152.188 89.9999C150.481 89.9999 149.628 89.1466 149.628 87.4399V57.3599C149.628 55.8239 149.03 54.5012 147.836 53.3919C146.641 52.1972 145.276 51.5999 143.74 51.5999H105.468C103.761 51.5999 102.694 50.7892 102.268 49.1679L100.092 41.2319C99.6651 39.6106 98.6411 38.5866 97.0198 38.1599L89.2118 35.9839C87.5905 35.5572 86.7798 34.4906 86.7798 32.7839V2.95991C86.7798 1.25324 87.6331 0.399902 89.3398 0.399902H143.612C145.318 0.399902 146.385 1.21057 146.812 2.8319L148.988 10.7679C149.414 12.3892 150.438 13.4132 152.06 13.8399L159.868 16.0159C161.489 16.4426 162.3 17.5092 162.3 19.2159V36.2399C162.3 37.9466 161.446 38.7999 159.74 38.7999H152.188C150.481 38.7999 149.628 39.6532 149.628 41.3599V49.0399C149.628 50.7466 150.481 51.5999 152.188 51.5999H159.74C161.446 51.5999 162.3 52.4532 162.3 54.1599V87.4399C162.3 89.1466 161.446 89.9999 159.74 89.9999H152.188ZM143.74 38.7999C145.361 38.7999 146.726 38.2879 147.836 37.2639C149.03 36.1546 149.628 34.7466 149.628 33.0399V19.0879C149.628 17.4666 149.03 16.1012 147.836 14.9919C146.726 13.7972 145.361 13.1999 143.74 13.1999H102.012C100.305 13.1999 99.4518 14.0532 99.4518 15.7599V32.9119C99.4518 34.5332 100.006 35.9412 101.116 37.1359C102.31 38.2452 103.718 38.7999 105.34 38.7999H143.74ZM89.3398 89.9999C87.6331 89.9999 86.7798 89.1466 86.7798 87.4399V54.1599C86.7798 52.4532 87.6331 51.5999 89.3398 51.5999H96.8918C98.5985 51.5999 99.4518 52.4532 99.4518 54.1599V87.4399C99.4518 89.1466 98.5985 89.9999 96.8918 89.9999H89.3398Z" fill="#06B6D4"/>
<path d="M19.648 51.5999C17.9413 51.5999 16.8746 50.7892 16.448 49.1679L14.272 41.2319C13.8453 39.6106 12.8213 38.5866 11.2 38.1599L3.39196 35.9839C1.77063 35.5572 0.959961 34.4906 0.959961 32.7839V2.95991C0.959961 1.25324 1.81329 0.399902 3.51996 0.399902H57.792C59.4986 0.399902 60.5653 1.21057 60.992 2.8319L63.168 10.7679C63.5946 12.3892 64.6186 13.4132 66.24 13.8399L74.048 16.0159C75.6693 16.4426 76.48 17.5092 76.48 19.2159V36.2399C76.48 37.9466 75.6266 38.7999 73.92 38.7999H66.368C64.6613 38.7999 63.808 39.6532 63.808 41.3599V49.0399C63.808 50.7466 62.9546 51.5999 61.248 51.5999H19.648ZM57.92 38.7999C59.5413 38.7999 60.9066 38.2879 62.016 37.2639C63.2106 36.1546 63.808 34.7466 63.808 33.0399V19.0879C63.808 17.4666 63.2106 16.1012 62.016 14.9919C60.9066 13.7972 59.5413 13.1999 57.92 13.1999H16.192C14.4853 13.1999 13.632 14.0532 13.632 15.7599V32.9119C13.632 34.5332 14.1866 35.9412 15.296 37.1359C16.4906 38.2452 17.8986 38.7999 19.52 38.7999H57.92ZM3.51996 89.9999C1.81329 89.9999 0.959961 89.1466 0.959961 87.4399V54.1599C0.959961 52.4532 1.81329 51.5999 3.51996 51.5999H11.072C12.7786 51.5999 13.632 52.4532 13.632 54.1599V87.4399C13.632 89.1466 12.7786 89.9999 11.072 89.9999H3.51996Z" fill="#06B6D4"/>
</svg>
