<svg width="32" height="32" viewBox="0 0 32 32" fill="none" xmlns="http://www.w3.org/2000/svg">
<path d="M26 18V26H18V30H30V18H26Z" fill="url(#paint0_linear_601_689)"/>
<path d="M6 6H14V2H2V14H6V6Z" fill="url(#paint1_linear_601_689)"/>
<path d="M6 6H26V26H6V6Z" fill="url(#paint2_linear_601_689)"/>
<path d="M16 21C18.7614 21 21 18.7614 21 16C21 13.2386 18.7614 11 16 11C13.2386 11 11 13.2386 11 16C11 18.7614 13.2386 21 16 21Z" fill="#F4F4F4"/>
<defs>
<linearGradient id="paint0_linear_601_689" x1="18" y1="24" x2="30" y2="24" gradientUnits="userSpaceOnUse">
<stop stop-color="#F4F4F4" stop-opacity="0.15"/>
<stop offset="1" stop-color="#F4F4F4" stop-opacity="0.45"/>
</linearGradient>
<linearGradient id="paint1_linear_601_689" x1="2" y1="8" x2="14" y2="8" gradientUnits="userSpaceOnUse">
<stop stop-color="#F4F4F4" stop-opacity="0.45"/>
<stop offset="1" stop-color="#F4F4F4" stop-opacity="0.15"/>
</linearGradient>
<linearGradient id="paint2_linear_601_689" x1="6" y1="26" x2="26" y2="6" gradientUnits="userSpaceOnUse">
<stop stop-color="#00FFFB"/>
<stop offset="1" stop-color="#0891B2"/>
</linearGradient>
</defs>
</svg>
