<svg width="32" height="32" viewBox="0 0 32 32" fill="none" xmlns="http://www.w3.org/2000/svg">
<g clip-path="url(#clip0_1461_154)">
<mask id="mask0_1461_154" style="mask-type:luminance" maskUnits="userSpaceOnUse" x="0" y="0" width="32" height="32">
<path d="M32 0H0V32H32V0Z" fill="white"/>
</mask>
<g mask="url(#mask0_1461_154)">
<path d="M23.179 8.82196C22.49 7.14686 21.3981 5.6678 20.0001 4.51613C18.6022 3.36445 16.9415 2.57579 15.1655 2.22019C13.3895 1.86459 11.5532 1.95304 9.81957 2.47769C8.08597 3.00234 6.50874 3.94696 5.22795 5.22766C3.94716 6.50836 3.00243 8.08552 2.47766 9.81908C1.95289 11.5526 1.86431 13.389 2.21979 15.165C2.57527 16.941 3.36381 18.6018 4.51539 19.9998C5.66697 21.3978 7.14595 22.4899 8.821 23.179L23.179 8.82196Z" fill="url(#paint0_linear_1461_154)"/>
<path d="M8.8208 23.179C9.50987 24.8541 10.6019 26.3331 11.9999 27.4847C13.398 28.6362 15.0587 29.4248 16.8348 29.7803C18.6108 30.1357 20.4471 30.0472 22.1807 29.5224C23.9142 28.9976 25.4914 28.0529 26.7721 26.7721C28.0528 25.4913 28.9974 23.9141 29.5221 22.1805C30.0467 20.4469 30.1352 18.6106 29.7796 16.8346C29.424 15.0586 28.6353 13.3978 27.4836 11.9999C26.332 10.6019 24.8529 9.51 23.1778 8.82104L8.8208 23.179Z" fill="url(#paint1_linear_1461_154)"/>
<path d="M24.0002 13C24.0006 11.5677 23.7203 10.1493 23.1752 8.82495C21.1686 8.00249 18.9636 7.79151 16.8374 8.21854C14.7112 8.64557 12.7587 9.69154 11.2252 11.225C9.69179 12.7585 8.64581 14.711 8.21879 16.8372C7.79176 18.9634 8.00274 21.1683 8.8252 23.175C10.4957 23.8603 12.3093 24.1238 14.1058 23.9423C15.9023 23.7609 17.6265 23.1399 19.1262 22.1344C20.6259 21.1288 21.855 19.7695 22.7051 18.1764C23.5551 16.5834 23.9999 14.8056 24.0002 13Z" fill="#F4F4F4"/>
</g>
</g>
<defs>
<linearGradient id="paint0_linear_1461_154" x1="2.898" y1="18.325" x2="17.875" y2="3.34696" gradientUnits="userSpaceOnUse">
<stop stop-color="#9747FF"/>
<stop offset="1" stop-color="#5001B6"/>
</linearGradient>
<linearGradient id="paint1_linear_1461_154" x1="13.6758" y1="29.103" x2="28.6528" y2="14.125" gradientUnits="userSpaceOnUse">
<stop stop-color="#F4F4F4" stop-opacity="0.45"/>
<stop offset="1" stop-color="#F4F4F4" stop-opacity="0.15"/>
</linearGradient>
<clipPath id="clip0_1461_154">
<rect width="32" height="32" fill="white"/>
</clipPath>
</defs>
</svg>
