<svg width="32" height="32" viewBox="0 0 32 32" fill="none" xmlns="http://www.w3.org/2000/svg">
<g clip-path="url(#clip0_601_699)">
<path d="M23.179 8.82196C22.49 7.14686 21.3981 5.6678 20.0001 4.51613C18.6022 3.36445 16.9415 2.57579 15.1655 2.22019C13.3895 1.86459 11.5532 1.95304 9.81956 2.47769C8.08596 3.00234 6.50873 3.94696 5.22794 5.22766C3.94715 6.50836 3.00242 8.08552 2.47765 9.81908C1.95288 11.5526 1.8643 13.389 2.21978 15.165C2.57526 16.941 3.3638 18.6018 4.51538 19.9998C5.66696 21.3978 7.14594 22.4899 8.82099 23.179L23.179 8.82196Z" fill="url(#paint0_linear_601_699)"/>
<path d="M8.821 23.179C9.51007 24.8541 10.6021 26.3331 12.0001 27.4847C13.3982 28.6362 15.0589 29.4248 16.835 29.7803C18.611 30.1357 20.4473 30.0472 22.1809 29.5224C23.9144 28.9976 25.4916 28.0529 26.7723 26.7721C28.053 25.4913 28.9976 23.9141 29.5223 22.1805C30.0469 20.4469 30.1354 18.6106 29.7798 16.8346C29.4242 15.0586 28.6355 13.3978 27.4838 11.9999C26.3322 10.6019 24.8531 9.51 23.178 8.82104L8.821 23.179Z" fill="url(#paint1_linear_601_699)"/>
<path d="M24 13C24.0004 11.5677 23.7201 10.1493 23.175 8.82495C21.1684 8.00249 18.9634 7.79151 16.8372 8.21854C14.711 8.64557 12.7585 9.69154 11.225 11.225C9.69159 12.7585 8.64561 14.711 8.21859 16.8372C7.79156 18.9634 8.00254 21.1683 8.825 23.175C10.4955 23.8603 12.3091 24.1238 14.1056 23.9423C15.9021 23.7609 17.6263 23.1399 19.126 22.1344C20.6257 21.1288 21.8548 19.7695 22.7049 18.1764C23.5549 16.5834 23.9997 14.8056 24 13Z" fill="#F4F4F4"/>
</g>
<defs>
<linearGradient id="paint0_linear_601_699" x1="2.89799" y1="18.325" x2="17.875" y2="3.34696" gradientUnits="userSpaceOnUse">
<stop stop-color="#01FDFA"/>
<stop offset="1" stop-color="#0896B5"/>
</linearGradient>
<linearGradient id="paint1_linear_601_699" x1="13.676" y1="29.103" x2="28.653" y2="14.125" gradientUnits="userSpaceOnUse">
<stop stop-color="#F4F4F4" stop-opacity="0.45"/>
<stop offset="1" stop-color="#F4F4F4" stop-opacity="0.15"/>
</linearGradient>
<clipPath id="clip0_601_699">
<rect width="32" height="32" fill="white"/>
</clipPath>
</defs>
</svg>
