<svg width="28" height="28" viewBox="0 0 28 28" fill="none" xmlns="http://www.w3.org/2000/svg">
<path d="M15.0653 19.8333H23.4348M15.0653 19.8333L12.8334 24.5M15.0653 19.8333L18.408 12.8439C18.6774 12.2807 18.8121 11.999 18.9964 11.9101C19.1566 11.8327 19.3434 11.8327 19.5037 11.9101C19.688 11.999 19.8227 12.2807 20.092 12.8439L23.4348 19.8333M23.4348 19.8333L25.6667 24.5M2.33337 5.83333H9.33337M9.33337 5.83333H13.4167M9.33337 5.83333V3.5M13.4167 5.83333H16.3334M13.4167 5.83333C12.8379 9.2835 11.4947 12.4089 9.52652 15.0318M11.6667 16.3333C10.9521 16.0123 10.2231 15.5658 9.52652 15.0318M9.52652 15.0318C7.94857 13.8224 6.5366 12.1644 5.83337 10.5M9.52652 15.0318C7.65438 17.5268 5.21671 19.5671 2.33337 21" stroke="#A1A1AA" stroke-width="2" stroke-linecap="round" stroke-linejoin="round"/>
</svg>
