<svg width="233" height="67" viewBox="0 0 233 67" fill="none" xmlns="http://www.w3.org/2000/svg">
<path d="M17.5557 50.5738C26.682 50.5738 34.0803 43.1755 34.0803 34.0492C34.0803 24.9229 26.682 17.5246 17.5557 17.5246C8.42944 17.5246 1.03113 24.9229 1.03113 34.0492C1.03113 43.1755 8.42944 50.5738 17.5557 50.5738Z" fill="#0E7490" stroke="black" stroke-width="1.03279" stroke-linejoin="round"/>
<path d="M17.5246 50.5583C26.6509 50.5583 34.0492 43.16 34.0492 34.0337C34.0492 24.9074 26.6509 17.5091 17.5246 17.5091C8.39831 17.5091 1 24.9074 1 34.0337C1 43.16 8.39831 50.5583 17.5246 50.5583Z" fill="#0E7490" stroke="black" stroke-width="1.03279" stroke-linejoin="round"/>
<path d="M11.3279 36.0992L17.5246 42.296" stroke="black" stroke-width="1.03279" stroke-linejoin="round"/>
<path d="M23.7213 36.0992L17.5245 42.296" stroke="black" stroke-width="1.03279" stroke-linejoin="round"/>
<path d="M10.8579 67.0984H23.7523" stroke="black" stroke-width="1.03279" stroke-linejoin="round"/>
<path d="M17.5245 42.296V67.0828" stroke="black" stroke-width="1.03279" stroke-linejoin="round"/>
<path d="M90.4141 13.3934C90.4141 6.54873 84.8653 1 78.0206 1C71.1759 1 65.6272 6.54873 65.6272 13.3934V38.1803C65.6272 45.025 71.1759 50.5738 78.0206 50.5738C84.8653 50.5738 90.4141 45.025 90.4141 38.1803V13.3934Z" fill="#0E7490" stroke="black" stroke-width="1.03279" stroke-linejoin="round"/>
<path d="M78.0206 11.3279V67.0984" stroke="black" stroke-width="1.03279" stroke-linejoin="round"/>
<path d="M73.8895 21.6558H78.0207" stroke="black" stroke-width="1.03279" stroke-linejoin="round"/>
<path d="M78.0259 25.7817H82.1519" stroke="black" stroke-width="1.03279" stroke-linejoin="round"/>
<path d="M73.8895 34.044H78.0258" stroke="black" stroke-width="1.03279" stroke-linejoin="round"/>
<path d="M152.237 19.5901C152.697 18.2992 152.945 16.9049 152.945 15.459C152.945 8.61678 147.394 3.06555 140.551 3.06555C133.709 3.06555 128.158 8.61678 128.158 15.459C128.158 16.9101 128.406 18.2992 128.865 19.5901C124.657 22.9983 121.961 28.2087 121.961 34.0492C121.961 44.3151 130.285 52.6393 140.551 52.6393C150.817 52.6393 159.142 44.3151 159.142 34.0492C159.142 28.2087 156.451 22.9983 152.237 19.5901Z" fill="#0E7490" stroke="black" stroke-width="1.03279" stroke-linejoin="round"/>
<path d="M132.289 25.7869L140.551 34.0492" stroke="black" stroke-width="1.03279" stroke-linejoin="round"/>
<path d="M148.814 25.7869L140.551 34.0492" stroke="black" stroke-width="1.03279" stroke-linejoin="round"/>
<path d="M134.355 67.0983H146.748" stroke="black" stroke-width="1.03279" stroke-linejoin="round"/>
<path d="M140.551 34.0492V67.0984" stroke="black" stroke-width="1.03279" stroke-linejoin="round"/>
<path d="M155.01 31.9836L140.551 46.4426" stroke="black" stroke-width="1.03279" stroke-linejoin="round"/>
<path d="M126.092 31.9836L140.551 46.4426" stroke="black" stroke-width="1.03279" stroke-linejoin="round"/>
<path d="M211.344 1L190.688 67.0984H232L211.344 1Z" fill="#0E7490" stroke="black" stroke-width="1.03279" stroke-linejoin="round"/>
<path d="M211.344 21.6558V67.0984" stroke="black" stroke-width="1.03279" stroke-linejoin="round"/>
<path d="M205.147 34.0492H211.344" stroke="black" stroke-width="1.03279" stroke-linejoin="round"/>
<path d="M211.344 44.3771H217.541" stroke="black" stroke-width="1.03279" stroke-linejoin="round"/>
<path d="M201.016 56.7705H211.344" stroke="black" stroke-width="1.03279" stroke-linejoin="round"/>
</svg>
